# File exported by ZBrush version 2024
# www.zbrush.com
#Vertex Count 1784
#Face Count 1779
#Auto scale x=1.000000 y=1.000000 z=1.000000
#Auto offset x=0.000000 y=0.000000 z=0.000000
v -0.0306164 1.41598653 0.73445189
v -0.02682187 1.30458366 0.73873561
v -0.02976208 1.01880788 0.63392591
v -0.1439868 1.17288196 0.48995104
v -0.13331425 1.73718977 0.3563143
v -0.17214661 -0.30894595 0.28263041
v -0.25039923 1.09723436 0.25549322
v -0.39197117 1.56343662 0.24180704
v -0.42818072 -1.38352084 0.17449304
v -0.41682896 -1.41962254 0.16943059
v -0.16165344 0.69473522 0.15498934
v -0.31063726 -1.36427795 0.07579772
v -0.37303781 -1.3564912 0.09065172
v -0.32122772 -1.41007995 0.05837404
v -0.59230464 -1.416211 0.06273865
v -0.40581581 1.14198756 0.04987321
v -0.36106634 -1.43564963 0.02200897
v -0.51076966 2.01783919 0.01774674
v -0.42197731 0.86214846 0.01204807
v -0.51666998 1.95603787 0.01033896
v -0.49927961 2.03052163 0.00532924
v -0.32478871 -1.40765011 -0.00441496
v -0.64112776 1.37954425 -0.00711836
v -0.60961824 1.28828644 -0.0709157
v -1.42385375 0.76403665 -0.07125523
v -1.37104547 0.58022868 -0.07943902
v -1.43067157 0.76634556 -0.0910144
v -1.37390065 0.57920283 -0.09768531
v -0.33036482 1.61124062 -0.27336871
v -0.38292396 0.97553449 -0.32626348
v -0.27987226 1.17215871 -0.40257084
v -0.13119354 -0.67135411 -0.41905951
v -0.28377598 0.70313429 -0.54997277
v -0.26092878 -0.33735582 -0.64110815
v -0.18544882 -0.16138674 -0.72819083
v -0.06509239 -1.68561554 -1.39044416
v -0.05914787 -1.54385709 -1.61343777
v 0 1.42267346 0.73937493
v -0.04397633 1.39553511 0.74735325
v 0 1.40277421 0.77270335
v 0 1.31104052 0.74930143
v 0 1.33674585 0.76750451
v -0.04063202 1.32854557 0.74685066
v -0.01534611 1.26413166 0.69277244
v -0.07137953 1.25659537 0.65995299
v -0.03857956 1.24803459 0.57924902
v 0 1.01878082 0.64806366
v 0 1.04063129 0.67955547
v -0.04013151 1.04012548 0.66458928
v -0.01899672 1.08670127 0.52209252
v -0.06824214 1.12556195 0.49953678
v 0 1.26920807 0.42883357
v -0.05103866 1.21872091 0.4011316
v -0.18150587 1.2396878 0.4933857
v -0.23254305 1.25830614 0.41184806
v -0.20681591 1.17560505 0.40425127
v -0.17180788 1.11988377 0.39209976
v -0.1366388 1.11199927 0.48250484
v -0.10409699 1.20593333 0.52000969
v -0.14227159 1.24471116 0.5742796
v 0 1.75232052 0.38140863
v 0 1.84760224 0.22892689
v -0.08540545 1.84671998 0.20343877
v -0.23745705 1.61867415 0.36451566
v -0.18560385 1.54283273 0.43755543
v -0.10153777 1.61595058 0.44597774
v -0.11079823 -0.15765419 0.29644113
v -0.25349625 -0.14344848 0.242713
v -0.33732721 -0.27150917 0.22594144
v -0.14815387 -0.47741586 0.25682678
v 0 -0.43775832 0.28705051
v 0 -0.26848748 0.31202808
v -0.21916431 1.10665714 0.31125059
v -0.26092732 1.17944109 0.32080039
v -0.32491913 1.18015801 0.23147146
v -0.29751682 1.08071196 0.14467147
v -0.20276705 1.01850402 0.21882432
v -0.16814449 1.05350542 0.30845156
v -0.29538819 1.50829184 0.35383516
v -0.31032759 1.68108892 0.26932019
v -0.41511315 1.68415617 0.15436932
v -0.46929729 1.64660167 0.08018489
v -0.49535879 1.52712369 0.0950374
v -0.47036141 1.4292401 0.17958235
v -0.38399216 1.42693591 0.26861217
v -0.35883978 1.74752605 0.17888873
v -0.30585974 1.39665389 0.34521782
v -0.45092642 -1.38586413 0.16891832
v -0.45144322 -1.40704131 0.17904493
v -0.42410004 -1.39971125 0.1791031
v -0.39238211 -1.39193522 0.15165224
v -0.40854537 -1.3707025 0.14604462
v -0.43238365 -1.36507725 0.13564485
v -0.43709459 -1.43112754 0.16018728
v -0.40973678 -1.43647491 0.11117566
v -0.39375257 -1.4198693 0.14103087
v 0 0.71781331 0.15748235
v 0 0.75689297 0.13883437
v -0.12083762 0.76962292 0.12192073
v -0.12661851 0.55927974 0.2185283
v 0 0.58956056 0.21419006
v -0.26484632 0.81406158 0.07752222
v -0.31919315 0.74935025 0.10175323
v -0.33096829 -1.36140227 0.08873502
v -0.32987695 -1.39800727 0.10717054
v -0.30551743 -1.395442 0.07991962
v -0.32153049 -1.34531247 0.00799752
v -0.34289732 -1.33376252 0.02049275
v -0.30758056 -1.3733896 -0.00292137
v -0.3574334 -1.38866412 0.11738304
v -0.36917662 -1.32796728 0.02959513
v -0.39304807 -1.3252002 0.02948199
v -0.40521732 -1.34802484 0.08119387
v -0.33619523 -1.4169178 0.07719282
v -0.33411842 -1.4220047 0.00645836
v -0.58635914 -1.43632042 0.0640075
v -0.57165086 -1.43546271 0.08595028
v -0.5768677 -1.4102149 0.08579693
v -0.55942368 -1.38763403 0.06271097
v -0.57775175 -1.40071487 0.04486801
v -0.58189588 -1.41965985 0.03551104
v -0.50551849 1.20950794 0.02277336
v -0.53428077 1.21860289 -0.05020368
v -0.44104963 1.15081632 -0.07822462
v -0.42565411 1.23183965 0.14719572
v -0.53565257 1.26804184 0.06980153
v -0.34843936 1.06138336 -0.01166004
v -0.2722353 1.00896155 0.06235544
v -0.38981103 1.08907866 -0.10519763
v -0.56781524 -1.43350493 0.02564971
v -0.56670182 -1.44565844 0.04662897
v -0.35901922 -1.42029368 0.09264859
v -0.43714219 -1.44306039 0.08627968
v -0.39043906 -1.45036232 -0.00294925
v -0.34051233 -1.37775409 -0.13294155
v -0.32286435 -1.36039376 -0.11003625
v -0.31942647 -1.35614955 -0.0979989
v -0.50159025 1.99836456 0.03094753
v -0.4896124 2.01645755 0.02701946
v -0.50728559 2.0292809 0.0110587
v -0.5181536 2.00780701 0.00404628
v -0.51295352 1.98581481 0.02234381
v -0.51248914 2.01775598 -0.00538876
v -0.22049957 0.85415691 0.06476157
v -0.31821498 0.91194212 -0.00241513
v -0.38134363 0.96921438 -0.06792095
v -0.47622561 0.9305312 -0.07349217
v -0.46608182 0.77361106 0.04477649
v -0.61163395 1.28157615 -0.01227093
v -0.51339179 1.97328889 -0.00826746
v -0.5022965 1.87577784 -0.01756229
v -0.50589734 1.88535952 0.02156898
v -0.48912632 1.9044367 0.05202449
v -0.48353964 2.02549195 0.0162992
v -0.49879601 2.0233221 -0.00832954
v -0.48188257 2.02598428 0.00082029
v -0.40701469 1.98949241 -0.01845431
v -0.45031347 1.99408149 -0.03105281
v -0.41503047 1.99926865 0.01243759
v -0.31530621 -1.33197653 -0.08102292
v -0.31977292 -1.3188256 -0.06865595
v -0.5711559 1.40162193 0.06962997
v -0.58580905 1.443704 -0.01195004
v -0.63758587 1.38182056 -0.06923742
v -0.63601905 1.33249771 -0.00649765
v -0.55381298 1.33691084 0.09074676
v -0.63700532 1.33103239 -0.07552123
v -0.54283624 1.24434053 -0.1255169
v -0.54737365 1.29572606 -0.1726958
v -1.38716542 0.77439618 -0.07328158
v -1.38961088 0.77898907 -0.09621103
v -1.42920744 0.74428242 -0.06734921
v -1.38262605 0.75374782 -0.06046929
v -1.43194937 0.74726152 -0.09707894
v -1.38334202 0.59498179 -0.07172109
v -1.38907027 0.59228223 -0.10331163
v -1.33532857 0.58407044 -0.07636706
v -1.34186375 0.60484468 -0.06052721
v -1.33691811 0.58472925 -0.10269819
v -1.38691985 0.75960379 -0.11488123
v -1.3458116 0.60579609 -0.11988907
v -0.33488369 1.53852748 -0.32555174
v -0.43804174 1.53043007 -0.20274099
v -0.41240972 1.6375072 -0.15485222
v -0.32474651 1.67750966 -0.22412326
v -0.20774331 1.65500533 -0.36942964
v -0.1949073 1.53503596 -0.45624488
v -0.41632509 1.01222801 -0.21799705
v -0.37678265 1.06941616 -0.21035625
v -0.34469115 1.08283793 -0.3052583
v -0.27033808 1.09757959 -0.40843084
v -0.26948356 0.99131995 -0.43075722
v -0.5183686 0.92999595 -0.29361188
v -0.516873 0.96837568 -0.2230246
v -0.35833379 1.17061007 -0.30485138
v -0.31590488 1.25867962 -0.37730109
v -0.18821628 1.23239314 -0.48725974
v -0.15289346 1.10765492 -0.4997735
v -0.20358736 -0.73645848 -0.36054936
v -0.28067636 -0.69431263 -0.40590295
v -0.24163201 -0.62533062 -0.46735996
v -0.08450727 -0.73397433 -0.29177448
v -0.1451011 -0.77568358 -0.27617761
v 0 -0.64965999 -0.4211522
v 0 -0.71238076 -0.30013841
v -0.19381387 -0.56573075 -0.52939343
v -0.10454439 -0.59938937 -0.50428247
v -0.40903815 0.74087154 -0.46601593
v -0.39703643 0.86504656 -0.41863694
v -0.28045219 0.87298166 -0.48364809
v -0.15077716 0.88125538 -0.5461809
v -0.14538916 0.74715691 -0.60576707
v -0.35798808 0.56298214 -0.52231466
v -0.44528847 0.61854165 -0.46031895
v -0.20971134 -0.46581059 -0.6041038
v -0.28176412 -0.50492346 -0.5502364
v -0.3685705 -0.41730523 -0.55148315
v -0.45207932 -0.32109755 -0.5083121
v -0.35611644 -0.21967907 -0.59151136
v -0.28137478 -0.08286033 -0.6526162
v -0.12862195 -0.27877539 -0.73632484
v -0.18089759 -0.37425634 -0.67373395
v -0.17103752 -0.46022307 -0.62715995
v -0.08886127 -0.1188909 -0.78120321
v -0.06937191 -0.23497301 -0.7686373
v -0.09154319 -1.63478791 -1.32253325
v -0.14751434 -1.60891974 -1.37155568
v -0.0881288 -1.68400645 -1.44014763
v 0 -1.70411586 -1.39632153
v 0 -1.64526009 -1.29312133
v -0.08492369 -1.58885145 -1.59406542
v -0.13584245 -1.48842966 -1.5610764
v -0.07986241 -1.46005666 -1.59850418
v 0 -1.44450771 -1.61770403
v 0 -1.5586512 -1.62648236
v 0 -1.62856602 -1.61540341
v 0 -1.68206226 -1.58331465
v -0.10506051 -1.62856292 -1.55277478
v 0 -1.71691203 -1.52762627
v -0.10651331 -1.66364216 -1.49651455
v -0.17577974 -1.57136869 -1.43596136
v -0.17125234 -1.52818524 -1.50432539
v -0.21784482 -1.47647237 -1.36861228
v -0.211141 -1.42218959 -1.45414471
v -0.16544465 -1.37682437 -1.52392602
v -0.09840253 -1.34546053 -1.56834018
v -0.23934344 -1.318349 -1.39566731
v -0.19138191 -1.26870572 -1.47246909
v -0.11414378 -1.2321484 -1.52529895
v 0 -1.21107447 -1.55098414
v 0 -1.32493269 -1.59127366
v -0.2107329 -1.16262924 -1.41200554
v -0.12641076 -1.12321841 -1.4726659
v 0 -1.10198307 -1.50280094
v -0.12920121 -1.01646113 -1.41390621
v 0 -0.99869656 -1.44698882
v -0.12423022 -0.91434872 -1.34909248
v 0 -0.89847564 -1.38296866
v -0.11740505 -0.81671255 -1.27785921
v 0 -0.80329638 -1.31061327
v -0.10939177 -0.72253316 -1.20220208
v 0 -0.70930695 -1.23603236
v -0.09985928 -0.62912881 -1.12494623
v 0 -0.61497062 -1.15634417
v -0.08952824 -0.53649669 -1.04543745
v 0 -0.52306473 -1.0756011
v -0.07848453 -0.44578546 -0.96352583
v 0 -0.43203666 -0.99037593
v -0.06811163 -0.35923364 -0.87724548
v 0 -0.34487891 -0.90026551
v -0.06150671 -0.29162597 -0.79750186
v 0 -0.27390727 -0.8112716
v 0 -0.20547162 -0.78165614
v 0 -0.10182608 -0.80536586
v -0.08124227 0.09681933 -0.79539263
v 0 0.10105181 -0.81545579
v -0.07242938 0.33728846 -0.76804709
v 0 0.34764692 -0.78313452
v -0.10642141 0.56383681 -0.68941998
v 0 0.58701866 -0.70689386
v 0 0.77078914 -0.62962925
v 0 0.88644987 -0.57972973
v -0.14594875 0.9945755 -0.50960165
v 0 0.99517935 -0.54860693
v 0 1.10730099 -0.54857093
v 0 1.23281335 -0.56589752
v -0.18174129 1.39073991 -0.49458429
v 0 1.38996255 -0.56555843
v 0 1.53779792 -0.53814899
v 0 1.64910352 -0.47695171
v -0.14063079 1.75959909 -0.30400222
v 0 1.76015234 -0.37397363
v 0 1.85189044 -0.20070143
v -0.08614463 1.84700822 -0.17096352
v -0.068203 1.87885701 0.0164896
v 0 1.88725864 0.01667022
v -0.14647579 1.87300896 0.01469932
v -0.16990625 1.84315633 0.14090913
v -0.17165434 1.84823274 -0.10550674
v -0.25780916 1.88816118 -0.06424147
v -0.23468458 1.90435886 0.0141324
v -0.2321963 1.77486348 -0.1920952
v -0.30999749 1.83826863 -0.10723186
v -0.38233622 1.92139148 -0.06689509
v -0.34325557 1.94819927 -0.03858095
v -0.37670424 1.78432333 -0.11357371
v -0.42944684 1.89406681 -0.07069398
v -0.47671309 1.98495256 -0.03330368
v -0.44142451 1.76078581 -0.08076561
v -0.4730134 1.87847352 -0.05330329
v -0.49988719 1.97603559 -0.02478893
v -0.48185512 1.75446677 -0.01803375
v -0.47786533 1.63415622 -0.03424328
v -0.48257818 1.76887738 0.04426769
v -0.45271197 1.79985773 0.08867308
v -0.41047856 1.84137249 0.10794295
v -0.4639976 1.92999577 0.06596242
v -0.36718282 1.88807511 0.09880843
v -0.43725711 1.96030569 0.06133144
v -0.33580219 1.92895913 0.06472513
v -0.42008897 1.98597264 0.04117341
v -0.32601392 1.95221567 0.01333322
v -0.25148797 1.87444627 0.09475921
v -0.29714965 1.8195064 0.15752093
v -0.23214195 1.77579891 0.24194228
v -0.50263118 1.53113532 -0.06472265
v -0.44010254 1.42702281 -0.2730951
v -0.54229742 1.43972277 -0.14348375
v -0.43063247 1.32330012 -0.28670883
v -0.5463013 1.35873973 -0.18426838
v -0.44045019 1.24140393 -0.24622002
v -0.38607996 1.11836457 -0.19842265
v -0.44796732 1.18366229 -0.16938424
v -0.38510069 1.04726493 -0.1248993
v -0.41771841 1.00516963 -0.13951429
v -0.34242281 1.01083159 -0.05302611
v -0.27555778 0.95732849 0.01317811
v -0.19678108 0.89576685 0.07852357
v -0.19131456 0.94411814 0.12413448
v -0.10105817 0.84501552 0.12432792
v -0.09844821 0.8903113 0.16237106
v -0.09890311 0.95671725 0.24113622
v 0 0.86877012 0.17862337
v 0 0.93642455 0.25077992
v 0 0.99890208 0.32044017
v -0.09220486 1.01295507 0.31456485
v 0 1.04089272 0.37184074
v -0.08038085 1.05098271 0.36838614
v -0.13296891 1.08070743 0.37780523
v -0.07828234 1.03925907 0.44941946
v -0.11659589 1.07063508 0.46793741
v -0.06170145 1.02125418 0.55702751
v -0.09681447 1.04831337 0.576411
v -0.10893704 1.08252465 0.58659148
v -0.096464 1.12860703 0.54581362
v -0.04656892 1.06937778 0.66872543
v -0.03833185 1.0990597 0.65561479
v 0 1.06701362 0.68398106
v 0 1.10028016 0.66238641
v 0 1.08127987 0.49196136
v 0 1.02502381 0.43710008
v 0 1.00969743 0.54129129
v 0 0.82449501 0.13996419
v -0.10764195 0.80645161 0.11422397
v 0 0.78958815 0.13093891
v -0.50749206 0.96781814 -0.1489478
v -0.64143538 0.92481535 -0.21508403
v -0.63060665 0.92709779 -0.15409071
v -0.61307168 0.8973515 -0.09021229
v -0.75699704 0.88273632 -0.14987471
v -0.74608576 0.86397683 -0.10276661
v -0.74155032 0.82661342 -0.06193575
v -0.59851831 0.84595912 -0.03228949
v -0.74339628 0.77419811 -0.03971286
v -0.61442297 0.77899056 -0.00448972
v -0.74892288 0.70798003 -0.03932055
v -0.63460695 0.70023614 -0.00278578
v -0.50875324 0.68404895 0.0457733
v -0.64935851 0.62840521 -0.02849744
v -0.53677535 0.61049783 0.01691854
v -0.43985709 0.57248377 0.06193957
v -0.39588043 0.64997273 0.09904806
v -0.36934936 0.51171332 0.1059093
v -0.30107292 0.59090226 0.15872296
v -0.32634419 0.42187848 0.1277087
v -0.24919444 0.47992819 0.19412355
v -0.30009749 0.31811845 0.14084367
v -0.21143341 0.35124582 0.21283397
v -0.10420347 0.39326328 0.24589157
v 0 0.41311407 0.25315755
v -0.19814461 0.21713742 0.21715845
v -0.09529113 0.23449251 0.25345099
v 0 0.24282135 0.26349341
v -0.09477216 0.08993387 0.2680743
v 0 0.09127058 0.27807009
v -0.0983272 -0.0407414 0.28940126
v 0 -0.04644095 0.3006218
v 0 -0.16616876 0.30985376
v -0.20022651 0.09035278 0.22890433
v -0.21601161 -0.02895931 0.24443604
v -0.29986286 0.09195841 0.15247175
v -0.32752421 -0.01262924 0.15782372
v -0.37736564 -0.11741875 0.15665851
v -0.41532287 -0.00192638 0.04196723
v -0.47445282 -0.09620798 0.04753646
v -0.5596227 -0.21911796 0.06547845
v -0.46530908 -0.23759201 0.15586464
v -0.61316984 -0.40264552 0.0950925
v -0.54425936 -0.41339823 0.16673198
v -0.45920896 -0.43885049 0.21219079
v -0.35760688 -0.48096692 0.22690875
v -0.55358046 -0.64487266 0.1473495
v -0.50077027 -0.6591317 0.1779862
v -0.44259956 -0.6742534 0.18262271
v -0.378984 -0.70872038 0.1669389
v -0.29680877 -0.57090169 0.20664978
v -0.46691843 -0.85361677 0.07403109
v -0.42719751 -0.86168456 0.07938339
v -0.38614785 -0.87067544 0.07018189
v -0.3325136 -0.88658189 0.0457553
v -0.30582249 -0.75724434 0.1254474
v -0.39954018 -0.99567347 -0.02073515
v -0.36478343 -1.00016129 -0.02524402
v -0.3288134 -1.00761354 -0.03986613
v -0.28956437 -1.01411044 -0.06737856
v -0.271097 -0.90786284 -0.00303425
v -0.36212167 -1.09976017 -0.06751312
v -0.33494919 -1.10460698 -0.07833647
v -0.30823278 -1.11103355 -0.09797008
v -0.28495565 -1.11763393 -0.12722186
v -0.25728413 -1.01922035 -0.10609459
v -0.34233775 -1.20296025 -0.0759465
v -0.32290443 -1.21059763 -0.09195
v -0.30893564 -1.220106 -0.11306047
v -0.30300337 -1.22991454 -0.13535776
v -0.27274745 -1.12276101 -0.16014619
v -0.33284983 -1.30204868 -0.05343649
v -0.35017097 -1.28851997 -0.04033272
v -0.36390769 -1.19708156 -0.0652654
v -0.36891478 -1.27902066 -0.03188222
v -0.38899943 -1.19357824 -0.06212829
v -0.38910803 -1.27574253 -0.02936934
v -0.41292253 -1.19309449 -0.06516932
v -0.40981373 -1.27678644 -0.03164852
v -0.41810783 -1.32739114 0.02160748
v -0.42898759 -1.28135061 -0.04048569
v -0.43909746 -1.33476698 0.00745061
v -0.47044199 -1.36095333 0.06154198
v -0.43795096 -1.35260784 0.07434817
v -0.49961653 -1.37392032 0.10264495
v -0.4621019 -1.36804914 0.12144084
v -0.51852828 -1.39418256 0.13245859
v -0.47837007 -1.38777935 0.15460245
v -0.51738238 -1.42764461 0.13633716
v -0.47932136 -1.41919684 0.16189888
v -0.49652579 -1.4457798 0.10890571
v -0.46425634 -1.43889677 0.13554951
v -0.46508395 -1.44862997 0.06092692
v -0.48958677 -1.4517945 0.03781065
v -0.43810027 -1.45734238 -0.05034678
v -0.41415906 -1.45796895 -0.02718863
v -0.52546989 -1.44970345 0.08466088
v -0.54960483 -1.45100307 0.06442127
v -0.50759476 -1.45091056 0.01508084
v -0.54825079 -1.43295657 0.1083259
v -0.55198115 -1.4024502 0.10713025
v -0.53312093 -1.38061857 0.08215436
v -0.49607905 -1.36732339 0.04298974
v -0.51289814 -1.37231612 0.02043893
v -0.45454293 -1.34304642 -0.00817914
v -0.46692621 -1.35375928 -0.02410546
v -0.47835552 -1.36534464 -0.04113724
v -0.52678328 -1.38244962 -0.00025862
v -0.48459896 -1.38094854 -0.05875696
v -0.53483372 -1.40167546 -0.01199375
v -0.48610916 -1.40440988 -0.07256284
v -0.53330165 -1.423424 -0.01199887
v -0.47804796 -1.4284687 -0.07414784
v -0.52312022 -1.44153857 -0.00192032
v -0.46008265 -1.44845175 -0.06605887
v -0.43767496 -1.35725915 -0.14131006
v -0.41977062 -1.37232434 -0.15563392
v -0.39206019 -1.38041734 -0.16059681
v -0.40494355 -1.24457228 -0.19714681
v -0.3819215 -1.24853336 -0.19964772
v -0.35886731 -1.25066435 -0.19755281
v -0.36466312 -1.38312697 -0.15292896
v -0.33743009 -1.2501533 -0.18982313
v -0.34756535 -1.13346576 -0.26720574
v -0.31237682 -1.13284754 -0.25190135
v -0.28592202 -1.13148844 -0.227825
v -0.31734767 -1.24554383 -0.17588517
v -0.27234321 -1.12804281 -0.19504742
v -0.30704215 -1.23844361 -0.15681192
v -0.25114268 -1.01714527 -0.25144824
v -0.23447848 -1.0212965 -0.20440903
v -0.23804524 -1.0216434 -0.15305787
v -0.19668361 -0.93069613 -0.19210904
v -0.20288015 -0.9326561 -0.12563717
v -0.22686231 -0.92516505 -0.0622784
v -0.16532971 -0.86102759 -0.10059004
v -0.19075557 -0.84640646 -0.02131693
v -0.23529924 -0.81172114 0.05432887
v -0.14200413 -0.78719258 0.00964342
v -0.18106313 -0.74478381 0.09090164
v -0.23772376 -0.6688205 0.15935334
v -0.09991669 -0.68998724 0.14080788
v -0.12486163 -0.60178905 0.20472277
v 0 -0.66330385 0.16691327
v 0 -0.56626999 0.23778183
v -0.07634172 -0.74513739 0.04255671
v 0 -0.72732234 0.06103905
v -0.06289953 -0.77174758 -0.07071536
v 0 -0.75713342 -0.06199111
v 0 -0.74905258 -0.17969298
v -0.06285567 -0.76809406 -0.17862442
v -0.11901319 -0.80695396 -0.08272971
v -0.11517366 -0.80474847 -0.1819618
v -0.15944528 -0.85959035 -0.18553265
v -0.18830415 -0.83909761 -0.26083701
v -0.242807 -0.80926686 -0.32207438
v -0.22059176 -0.91860002 -0.25304561
v -0.26743382 -0.90105283 -0.30272999
v -0.32298106 -0.88115286 -0.32767233
v -0.30772662 -0.77871418 -0.3540906
v -0.28825432 -1.01039373 -0.29082399
v -0.3349404 -1.00153958 -0.31410637
v -0.38188579 -0.99154728 -0.3175596
v -0.37934148 -0.86052531 -0.32926636
v -0.38258183 -1.13040947 -0.27087104
v -0.4173136 -1.12442994 -0.26468658
v -0.42510414 -0.98088526 -0.30364081
v -0.46270638 -0.96933883 -0.2747499
v -0.48515752 -0.82187086 -0.27026799
v -0.43325939 -0.83976703 -0.30996257
v -0.44838255 -1.11563479 -0.24745117
v -0.47183227 -1.1066147 -0.22127372
v -0.49299624 -0.95955759 -0.23343588
v -0.42791822 -1.23848652 -0.1879066
v -0.44797822 -1.23161637 -0.17240695
v -0.46203887 -1.22466599 -0.15413211
v -0.48485651 -1.10091662 -0.1946419
v -0.44874039 -1.3404994 -0.12491591
v -0.45476266 -1.324216 -0.10683896
v -0.45603942 -1.31093061 -0.08865702
v -0.46858835 -1.21694243 -0.13347277
v -0.46653747 -1.20810794 -0.11063791
v -0.48175442 -1.09637379 -0.13324514
v -0.4880155 -1.09788239 -0.16132155
v -0.45322218 -1.29847276 -0.07030218
v -0.4440068 -1.28833794 -0.05361137
v -0.4540953 -1.20025992 -0.09036816
v -0.43477338 -1.19522297 -0.07430673
v -0.44259995 -1.09496033 -0.08418743
v -0.46575903 -1.09545612 -0.10580446
v -0.46472123 -0.98504054 -0.04402036
v -0.49076488 -0.97653549 -0.06934034
v -0.50887572 -0.96676749 -0.1026733
v -0.53277361 -0.82810425 0.02217229
v -0.55573791 -0.81504952 -0.0244679
v -0.56491398 -0.80605638 -0.08437833
v -0.51560783 -0.96085214 -0.14119625
v -0.55562216 -0.80390089 -0.14828185
v -0.51104331 -0.95693653 -0.18764753
v -0.5271908 -0.8079586 -0.21599373
v -0.61205864 -0.63981747 -0.1444325
v -0.57438784 -0.65727448 -0.22657001
v -0.51926791 -0.68288332 -0.29315319
v -0.60726636 -0.50971239 -0.27840066
v -0.54151099 -0.5547257 -0.34817466
v -0.46072435 -0.60181289 -0.39731466
v -0.44942975 -0.71483349 -0.34030407
v -0.36919423 -0.65038913 -0.41829478
v -0.37705752 -0.74754071 -0.36024528
v -0.43908748 -0.50456309 -0.46819916
v -0.34394797 -0.56846654 -0.48382467
v -0.52189397 -0.43226727 -0.42443826
v -0.58853262 -0.36390003 -0.35501441
v -0.51706636 -0.23776827 -0.43566131
v -0.56071347 -0.16816067 -0.3377735
v -0.47571393 -0.05979611 -0.38677403
v -0.42605704 -0.12940397 -0.50469446
v -0.63330894 -0.30326151 -0.265695
v -0.64811909 -0.25291591 -0.16028407
v -0.57180631 -0.11531831 -0.21663336
v -0.65313416 -0.47111991 -0.19105899
v -0.67363971 -0.43604874 -0.09517947
v -0.66144269 -0.40985369 0.00483839
v -0.622877 -0.22262829 -0.04414663
v -0.62845605 -0.62817966 -0.06014782
v -0.62192565 -0.62414377 0.02092302
v -0.59646803 -0.63087183 0.09114502
v -0.50274121 -0.84180754 0.05448781
v -0.43389868 -0.99110543 -0.02726996
v -0.41748783 -1.09496212 -0.07085582
v -0.39003592 -1.09657359 -0.06551197
v -0.54157465 -0.0906958 -0.08126989
v -0.47519114 -0.00173137 -0.09441547
v -0.49699473 -0.01843128 -0.24346445
v -0.43224173 0.0831955 -0.10196346
v -0.44662016 0.06390555 -0.25543156
v -0.41875836 0.03251491 -0.40644142
v -0.42269903 0.15080426 -0.26246124
v -0.38946101 0.13234415 -0.41675972
v -0.32497477 0.11527662 -0.55753278
v -0.35875731 -0.01513208 -0.54250884
v -0.24245353 0.09773706 -0.67603999
v -0.326148 0.24774229 -0.54897654
v -0.24532084 0.27779233 -0.65530878
v -0.16280137 0.31008198 -0.72505366
v -0.16349373 0.08689686 -0.75064575
v -0.28571584 0.43845027 -0.59794724
v -0.20534962 0.51456487 -0.65050226
v -0.35692414 0.37040522 -0.51270282
v -0.41115394 0.46513015 -0.45978781
v -0.44789618 0.40516614 -0.3690561
v -0.50556606 0.46274432 -0.34391042
v -0.48052179 0.5258845 -0.41479998
v -0.40997704 0.32741391 -0.3952144
v -0.43428206 0.31439754 -0.2614474
v -0.46294608 0.3801043 -0.25469243
v -0.38954827 0.23314948 -0.41287612
v -0.42083978 0.23632147 -0.26442113
v -0.40721491 0.25975939 -0.11278786
v -0.41706207 0.33920902 -0.11973495
v -0.41206884 0.17152869 -0.10714876
v -0.3652063 0.19006367 0.03473338
v -0.36482584 0.28849062 0.02732023
v -0.38073495 0.09231954 0.0384746
v -0.29133904 0.20385319 0.14565837
v -0.37888398 0.37772733 0.01968871
v -0.41196712 0.44610443 0.00512836
v -0.44209292 0.39615705 -0.12822529
v -0.47202241 0.50015264 -0.01996223
v -0.49454841 0.4501602 -0.13592086
v -0.51183825 0.43442168 -0.24804057
v -0.57384926 0.49347296 -0.14387984
v -0.58718538 0.47509381 -0.24336341
v -0.58522278 0.50028955 -0.32402157
v -0.6802777 0.50516784 -0.23784211
v -0.683272 0.52500617 -0.30487769
v -0.67515337 0.57745486 -0.35121554
v -0.57045888 0.55888968 -0.37875655
v -0.66319078 0.6471678 -0.37120351
v -0.54991304 0.64189082 -0.40899419
v -0.65068864 0.73105073 -0.36209335
v -0.5287795 0.74220114 -0.40517026
v -0.64359593 0.81778734 -0.32602074
v -0.51935511 0.84378725 -0.36448249
v -0.6443867 0.88916409 -0.27156287
v -0.76456445 0.78938508 -0.29420524
v -0.76613271 0.84541899 -0.24772425
v -0.76564317 0.87722814 -0.1986733
v -0.88112032 0.81033331 -0.21845491
v -0.88120299 0.83709859 -0.1768611
v -0.87746405 0.84393525 -0.13668789
v -0.99370747 0.80863803 -0.15658079
v -0.99228495 0.81319183 -0.12297298
v -0.98903697 0.8017897 -0.09330702
v -0.87158262 0.83182871 -0.10061736
v -0.98391366 0.77798426 -0.07066013
v -0.86622273 0.80476677 -0.07207978
v -0.97720658 0.74455338 -0.0585502
v -0.86178296 0.76208263 -0.0572494
v -0.97246301 0.70698207 -0.05860666
v -0.85942637 0.71117967 -0.05848632
v -0.97390914 0.66960215 -0.06968514
v -0.86256456 0.65713918 -0.07526216
v -0.75624841 0.64248085 -0.06142484
v -0.87073439 0.61331802 -0.10761657
v -0.76337158 0.58810091 -0.10382519
v -0.65877014 0.56833398 -0.07806837
v -0.77450782 0.55213111 -0.16445803
v -0.66838991 0.5237838 -0.15529863
v -0.55664134 0.54304039 -0.04549207
v -0.7884258 0.539824 -0.22742989
v -0.88350856 0.58715826 -0.15260836
v -0.89839255 0.58184695 -0.19953155
v -0.90831333 0.59649831 -0.24212755
v -0.79465264 0.55614286 -0.28097721
v -0.9097296 0.62759196 -0.27223303
v -0.79178458 0.59663373 -0.31835895
v -0.9033612 0.67064976 -0.28676489
v -0.78313148 0.65248817 -0.33446481
v -0.89236187 0.72002005 -0.28207543
v -0.77125209 0.72073298 -0.32581725
v -0.88324785 0.76887363 -0.257016
v -1.00914752 0.72707742 -0.22738814
v -1.00025773 0.76177012 -0.21237871
v -0.99505996 0.78930854 -0.18792019
v -1.10990834 0.75686597 -0.16759966
v -1.10718154 0.77660399 -0.15269964
v -1.10400974 0.78878992 -0.13177599
v -1.22145617 0.77866178 -0.12849089
v -1.2209531 0.79772508 -0.11258824
v -1.21887862 0.79690027 -0.09284806
v -1.10042977 0.78917455 -0.1120431
v -1.21435892 0.77681613 -0.07823565
v -1.09716975 0.77868831 -0.08964447
v -1.20930457 0.75102943 -0.06911528
v -1.09361934 0.75795465 -0.07142292
v -1.20512938 0.72716045 -0.06294963
v -1.09105885 0.73221248 -0.05988056
v -1.20149779 0.70365291 -0.05965122
v -1.08982336 0.70489376 -0.05609234
v -1.19819283 0.68024969 -0.06059539
v -1.0900321 0.67859178 -0.06122861
v -1.19578659 0.6584568 -0.06892621
v -1.09238469 0.65619856 -0.07742982
v -0.98154205 0.63860988 -0.09254325
v -1.09692013 0.6437506 -0.09957023
v -0.99220866 0.6209467 -0.12367749
v -1.10328757 0.64272016 -0.1273619
v -1.00367569 0.61860704 -0.15920844
v -1.10886979 0.65394175 -0.15079201
v -1.01333272 0.63145601 -0.19215153
v -1.1132853 0.67602515 -0.16857035
v -1.01781904 0.65787279 -0.21649782
v -1.11498451 0.70327127 -0.17718464
v -1.0157082 0.69158768 -0.22845685
v -1.11275637 0.73149532 -0.17678849
v -1.2141993 0.70364457 -0.1421879
v -1.21739149 0.72931027 -0.14144235
v -1.21921134 0.75310599 -0.13712145
v -1.30900585 0.7159087 -0.13016983
v -1.30788338 0.74620062 -0.12749432
v -1.30918681 0.77533817 -0.12118221
v -1.38186514 0.73200511 -0.12277194
v -1.31156873 0.79927063 -0.10501848
v -1.30908036 0.79704117 -0.07859019
v -1.3038969 0.77224636 -0.06547371
v -1.37817728 0.72910255 -0.05507223
v -1.30170536 0.74468183 -0.0601752
v -1.37395429 0.69978255 -0.05323653
v -1.30177915 0.71586233 -0.05721933
v -1.36468708 0.66600096 -0.05332428
v -1.29850971 0.68600529 -0.05578934
v -1.35122513 0.63239961 -0.05496774
v -1.2885555 0.65735101 -0.05628451
v -1.27724218 0.63173514 -0.06118408
v -1.26841926 0.61227816 -0.07961316
v -1.19491267 0.64394903 -0.0875017
v -1.2707225 0.61321908 -0.1057853
v -1.19801294 0.64472878 -0.11044921
v -1.28223919 0.63284266 -0.1240361
v -1.20422768 0.6592279 -0.12821643
v -1.29544127 0.65777212 -0.12999644
v -1.20938718 0.68070805 -0.13823455
v -1.30508339 0.68507558 -0.13091954
v -1.35724616 0.63212323 -0.12508045
v -1.36764395 0.6642037 -0.12633696
v -1.37641823 0.69985473 -0.12521307
v -1.41171407 0.64701587 -0.10950493
v -1.42424631 0.68977081 -0.10753226
v -1.4296602 0.72250115 -0.10319142
v -1.4227947 0.68831008 -0.06549909
v -1.42650687 0.71981161 -0.06453668
v -1.41057312 0.64724755 -0.06728396
v -1.39417481 0.61707049 -0.06779844
v -1.39898276 0.61624729 -0.10820129
v -0.31791332 1.40350842 -0.38713085
v -0.11534289 -0.38687658 -0.83558714
v -0.11048453 -0.32898813 -0.76299262
v -0.14938916 -0.44061258 -0.76699507
v -0.14747397 -0.39502084 -0.70394587
v -0.14976975 -0.50552427 -0.69220346
v -0.14640136 -0.47085025 -0.65325754
v -0.11935851 -0.55863559 -0.63616937
v -0.1152584 -0.5309425 -0.61244374
v -0.13274394 -0.52425432 -0.58627206
v -0.06600552 -0.56813669 -0.58386534
v -0.07407987 -0.56084483 -0.55859118
v -0.08663468 -0.57346934 -0.53661936
v -0.15379861 -0.53440654 -0.56807339
v 0 -0.57297265 -0.5490393
v 0 -0.5881226 -0.51982241
v 0 -0.6075207 -0.48900088
v 0 -0.58038181 -0.57092529
v -0.06987943 -0.59380728 -0.60131996
v 0 -0.6109597 -0.58447551
v -0.08240012 -0.66970264 -0.6372956
v 0 -0.68913459 -0.61565983
v -0.09616871 -0.77870804 -0.69169098
v 0 -0.80293881 -0.66932642
v -0.10798699 -0.88554221 -0.74983435
v 0 -0.9131146 -0.72701084
v -0.11856627 -0.98993241 -0.81034654
v 0 -1.01801574 -0.78706729
v -0.13035555 -1.09030783 -0.87447947
v 0 -1.11703586 -0.84826785
v -0.1388404 -1.1880505 -0.94034349
v 0 -1.21414268 -0.90865171
v -0.13989278 -1.28466188 -1.00655198
v 0 -1.30858135 -0.97150385
v -0.13527648 -1.38027644 -1.07580411
v 0 -1.4000467 -1.04052734
v -0.12190491 -1.47330248 -1.14873516
v 0 -1.48690521 -1.11691665
v -0.11050511 -1.55832147 -1.23278474
v 0 -1.57009768 -1.19986879
v -0.17948107 -1.5261904 -1.29013526
v -0.20156471 -1.43758916 -1.20990109
v -0.24633431 -1.37963736 -1.3004626
v -0.21754856 -1.34246826 -1.13669848
v -0.26432853 -1.28325176 -1.22731137
v -0.25880792 -1.21542584 -1.330289
v -0.22600302 -1.24381446 -1.06681263
v -0.27360704 -1.18471407 -1.15330731
v -0.27045187 -1.11437642 -1.25779891
v -0.21978724 -1.05695688 -1.34700477
v -0.2711659 -1.08390557 -1.07977402
v -0.26991957 -1.01416111 -1.18223559
v -0.21491614 -0.95328927 -1.27979207
v -0.25636088 -0.91363251 -1.10996854
v -0.20128576 -0.85266888 -1.21047437
v -0.23717571 -0.81547737 -1.04088246
v -0.1874099 -0.75650137 -1.13722717
v -0.21566055 -0.71710199 -0.97586798
v -0.17010414 -0.66132283 -1.06526744
v -0.1931833 -0.61888063 -0.9114657
v -0.15052768 -0.56611847 -0.99324703
v -0.17081122 -0.52251666 -0.84427326
v -0.13225124 -0.47332939 -0.91782939
v -0.19606158 -0.6838988 -0.81537622
v -0.17383079 -0.58404672 -0.75571149
v -0.15831437 -0.73842108 -0.73909807
v -0.13971287 -0.63526463 -0.6831243
v -0.21677635 -0.78589499 -0.8740319
v -0.17531497 -0.84333366 -0.79656016
v -0.23725526 -0.88573122 -0.93807542
v -0.19278807 -0.94533175 -0.85990238
v -0.25741189 -0.98420679 -1.00736272
v -0.21062926 -1.04430484 -0.9287675
v -0.22408463 -1.14241719 -0.99981105
v 0 -1.71999108 -1.46456372
v -0.44429984 1.32686924 0.18887861
v -0.36002337 1.30613565 0.26214039
v -0.29025366 1.28275597 0.33396491
v -0.24382224 1.35690343 0.41786003
v -0.19533704 1.31972265 0.49653881
v -0.18702937 1.40758991 0.50233191
v -0.23270535 1.45757722 0.42846489
v -0.14842321 1.47346079 0.50869935
v -0.1541225 1.3748064 0.58041429
v -0.12574541 1.4289546 0.58564448
v -0.07361032 1.46458923 0.58098661
v -0.08238279 1.52385878 0.50820231
v 0 1.48102486 0.57103216
v 0 1.54822719 0.50551766
v 0 1.64736402 0.45077991
v -0.06025919 1.43220973 0.66100865
v 0 1.44969391 0.64448034
v -0.09505039 1.40260052 0.66874367
v -0.10899213 1.36710143 0.66940331
v -0.05075834 1.37480592 0.74779337
v -0.11026544 1.32769405 0.66958975
v -0.04964912 1.35181343 0.74767887
v 0 1.35624826 0.77450007
v 0 1.37783086 0.77787196
v -0.09861884 1.28807902 0.66938185
v -0.15848645 1.30706608 0.57738292
v 0 1.2663213 0.54410928
v 0 1.2621541 0.69755733
v 0.0306164 1.41598653 0.73445189
v 0.02682187 1.30458378 0.73873561
v 0.02976208 1.01880788 0.63392591
v 0.14398677 1.17288196 0.48995104
v 0.13331425 1.73718977 0.3563143
v 0.17214661 -0.30894595 0.28263041
v 0.25039923 1.09723436 0.25549322
v 0.39197117 1.56343662 0.24180704
v 0.42818072 -1.38352084 0.17449304
v 0.41682896 -1.41962254 0.16943059
v 0.16165344 0.69473522 0.15498934
v 0.31063726 -1.36427795 0.07579772
v 0.37303781 -1.3564912 0.09065172
v 0.32122772 -1.41007995 0.05837404
v 0.59230464 -1.416211 0.06273865
v 0.40581581 1.14198756 0.04987321
v 0.36106634 -1.43564963 0.02200897
v 0.51076966 2.01783919 0.01774674
v 0.42197731 0.86214846 0.01204807
v 0.51666998 1.95603787 0.01033896
v 0.49927961 2.03052163 0.00532924
v 0.32478871 -1.40765011 -0.00441496
v 0.64112776 1.37954425 -0.00711836
v 0.60961824 1.28828644 -0.0709157
v 1.42385375 0.76403665 -0.07125523
v 1.37104547 0.58022868 -0.07943902
v 1.43067157 0.76634556 -0.0910144
v 1.37390065 0.57920283 -0.09768531
v 0.33036482 1.61124062 -0.27336871
v 0.38292396 0.97553449 -0.32626348
v 0.27987226 1.17215871 -0.40257084
v 0.13119354 -0.67135411 -0.41905951
v 0.28377598 0.70313429 -0.54997277
v 0.26092878 -0.33735582 -0.64110815
v 0.18544882 -0.16138674 -0.72819083
v 0.06509239 -1.68561554 -1.39044416
v 0.05914787 -1.54385709 -1.61343777
v 0.04397633 1.39553523 0.74735331
v 0.04063201 1.32854557 0.74685072
v 0.01534611 1.26413166 0.69277244
v 0.07137953 1.25659537 0.65995299
v 0.03857956 1.24803459 0.57924902
v 0.04013151 1.04012548 0.66458928
v 0.01899672 1.08670127 0.52209252
v 0.06824214 1.12556195 0.49953678
v 0.05103866 1.21872091 0.4011316
v 0.18150587 1.2396878 0.4933857
v 0.23254305 1.25830614 0.41184806
v 0.20681591 1.17560505 0.40425127
v 0.17180788 1.11988377 0.39209976
v 0.1366388 1.11199939 0.48250484
v 0.10409699 1.20593333 0.52000969
v 0.14227159 1.24471116 0.5742796
v 0.08540545 1.84671998 0.20343877
v 0.23745705 1.61867415 0.36451566
v 0.18560385 1.54283273 0.43755543
v 0.10153777 1.61595058 0.44597774
v 0.11079823 -0.15765419 0.29644113
v 0.25349625 -0.14344848 0.242713
v 0.33732721 -0.27150917 0.22594144
v 0.14815387 -0.47741586 0.25682678
v 0.21916431 1.10665714 0.31125059
v 0.26092732 1.17944109 0.32080039
v 0.32491913 1.18015801 0.23147146
v 0.29751682 1.08071196 0.14467147
v 0.20276705 1.01850402 0.21882432
v 0.16814449 1.05350542 0.30845156
v 0.29538819 1.50829184 0.35383516
v 0.31032759 1.68108892 0.26932019
v 0.41511315 1.68415617 0.15436932
v 0.46929729 1.64660167 0.08018489
v 0.49535879 1.52712369 0.0950374
v 0.47036141 1.4292401 0.17958235
v 0.38399216 1.42693591 0.26861217
v 0.35883978 1.74752605 0.17888873
v 0.30585974 1.39665389 0.34521782
v 0.45092642 -1.38586413 0.16891832
v 0.45144322 -1.40704131 0.17904493
v 0.42410004 -1.39971125 0.1791031
v 0.39238211 -1.39193522 0.15165224
v 0.40854537 -1.3707025 0.14604462
v 0.43238365 -1.36507725 0.13564485
v 0.43709459 -1.43112754 0.16018728
v 0.40973678 -1.43647491 0.11117566
v 0.39375257 -1.4198693 0.14103087
v 0.12083762 0.76962292 0.12192073
v 0.12661851 0.55927974 0.2185283
v 0.26484632 0.81406158 0.07752222
v 0.31919315 0.74935025 0.10175323
v 0.33096829 -1.36140227 0.08873502
v 0.32987695 -1.39800727 0.10717054
v 0.30551743 -1.395442 0.07991962
v 0.32153049 -1.34531247 0.00799752
v 0.34289732 -1.33376252 0.02049275
v 0.30758056 -1.3733896 -0.00292137
v 0.3574334 -1.38866412 0.11738304
v 0.36917662 -1.32796728 0.02959513
v 0.39304807 -1.3252002 0.02948199
v 0.40521732 -1.34802484 0.08119387
v 0.33619523 -1.4169178 0.07719282
v 0.33411842 -1.4220047 0.00645836
v 0.58635914 -1.43632042 0.0640075
v 0.57165086 -1.43546271 0.08595028
v 0.5768677 -1.4102149 0.08579693
v 0.55942368 -1.38763403 0.06271097
v 0.57775175 -1.40071487 0.04486801
v 0.58189588 -1.41965985 0.03551104
v 0.50551849 1.20950794 0.02277336
v 0.53428077 1.21860289 -0.05020368
v 0.44104963 1.15081632 -0.07822462
v 0.42565411 1.23183965 0.14719572
v 0.53565257 1.26804184 0.06980153
v 0.34843936 1.06138336 -0.01166004
v 0.2722353 1.00896155 0.06235544
v 0.38981103 1.08907866 -0.10519763
v 0.56781524 -1.43350493 0.02564971
v 0.56670182 -1.44565844 0.04662897
v 0.35901922 -1.42029368 0.09264859
v 0.43714219 -1.44306039 0.08627968
v 0.39043906 -1.45036232 -0.00294925
v 0.34051233 -1.37775409 -0.13294155
v 0.32286435 -1.36039376 -0.11003625
v 0.31942647 -1.35614955 -0.0979989
v 0.50159025 1.99836456 0.03094753
v 0.4896124 2.01645755 0.02701946
v 0.50728559 2.0292809 0.0110587
v 0.5181536 2.00780701 0.00404628
v 0.51295352 1.98581481 0.02234381
v 0.51248914 2.01775598 -0.00538876
v 0.22049957 0.85415691 0.06476157
v 0.31821498 0.91194212 -0.00241513
v 0.38134363 0.96921438 -0.06792095
v 0.47622561 0.9305312 -0.07349217
v 0.46608182 0.77361106 0.04477649
v 0.61163395 1.28157615 -0.01227093
v 0.51339179 1.97328889 -0.00826746
v 0.5022965 1.87577784 -0.01756229
v 0.50589734 1.88535952 0.02156898
v 0.48912632 1.9044367 0.05202449
v 0.48353964 2.02549195 0.0162992
v 0.49879601 2.0233221 -0.00832954
v 0.48188257 2.02598428 0.00082029
v 0.40701469 1.98949241 -0.01845431
v 0.45031347 1.99408149 -0.03105281
v 0.41503047 1.99926865 0.01243759
v 0.31530621 -1.33197653 -0.08102292
v 0.31977292 -1.3188256 -0.06865595
v 0.5711559 1.40162193 0.06962997
v 0.58580905 1.443704 -0.01195004
v 0.63758587 1.38182056 -0.06923742
v 0.63601905 1.33249771 -0.00649765
v 0.55381298 1.33691084 0.09074676
v 0.63700532 1.33103239 -0.07552123
v 0.54283624 1.24434053 -0.1255169
v 0.54737365 1.29572606 -0.1726958
v 1.38716542 0.77439618 -0.07328158
v 1.38961088 0.77898907 -0.09621103
v 1.42920744 0.74428242 -0.06734921
v 1.38262605 0.75374782 -0.06046929
v 1.43194937 0.74726152 -0.09707894
v 1.38334202 0.59498179 -0.07172109
v 1.38907027 0.59228223 -0.10331163
v 1.33532857 0.58407044 -0.07636706
v 1.34186375 0.60484468 -0.06052721
v 1.33691811 0.58472925 -0.10269819
v 1.38691985 0.75960379 -0.11488123
v 1.3458116 0.60579609 -0.11988907
v 0.33488369 1.53852748 -0.32555174
v 0.43804174 1.53043007 -0.20274099
v 0.41240972 1.6375072 -0.15485222
v 0.32474651 1.67750966 -0.22412326
v 0.20774331 1.65500533 -0.36942964
v 0.1949073 1.53503596 -0.45624488
v 0.41632509 1.01222801 -0.21799705
v 0.37678265 1.06941616 -0.21035625
v 0.34469115 1.08283793 -0.3052583
v 0.27033808 1.09757959 -0.40843084
v 0.26948356 0.99131995 -0.43075722
v 0.5183686 0.92999595 -0.29361188
v 0.516873 0.96837568 -0.2230246
v 0.35833379 1.17061007 -0.30485138
v 0.31590488 1.25867962 -0.37730109
v 0.18821628 1.23239314 -0.48725974
v 0.15289346 1.10765492 -0.4997735
v 0.20358736 -0.73645848 -0.36054936
v 0.28067636 -0.69431263 -0.40590295
v 0.24163201 -0.62533062 -0.46735996
v 0.08450727 -0.73397433 -0.29177448
v 0.1451011 -0.77568358 -0.27617761
v 0.19381387 -0.56573075 -0.52939343
v 0.10454439 -0.59938937 -0.50428247
v 0.40903815 0.74087154 -0.46601593
v 0.39703643 0.86504656 -0.41863694
v 0.28045219 0.87298166 -0.48364809
v 0.15077716 0.88125538 -0.5461809
v 0.14538916 0.74715691 -0.60576707
v 0.35798808 0.56298214 -0.52231466
v 0.44528847 0.61854165 -0.46031895
v 0.20971134 -0.46581059 -0.6041038
v 0.28176412 -0.50492346 -0.5502364
v 0.3685705 -0.41730523 -0.55148315
v 0.45207932 -0.32109755 -0.5083121
v 0.35611644 -0.21967907 -0.59151136
v 0.28137478 -0.08286033 -0.6526162
v 0.12862195 -0.27877539 -0.73632484
v 0.18089759 -0.37425634 -0.67373395
v 0.17103752 -0.46022307 -0.62715995
v 0.08886127 -0.1188909 -0.78120321
v 0.06937191 -0.23497301 -0.7686373
v 0.09154319 -1.63478791 -1.32253325
v 0.14751434 -1.60891974 -1.37155568
v 0.0881288 -1.68400645 -1.44014763
v 0.08492369 -1.58885145 -1.59406542
v 0.13584245 -1.48842966 -1.5610764
v 0.07986241 -1.46005666 -1.59850418
v 0.10506051 -1.62856292 -1.55277478
v 0.10651331 -1.66364216 -1.49651455
v 0.17577974 -1.57136869 -1.43596136
v 0.17125234 -1.52818524 -1.50432539
v 0.21784482 -1.47647237 -1.36861228
v 0.211141 -1.42218959 -1.45414471
v 0.16544465 -1.37682437 -1.52392602
v 0.09840253 -1.34546053 -1.56834018
v 0.23934344 -1.318349 -1.39566731
v 0.19138191 -1.26870572 -1.47246909
v 0.11414378 -1.2321484 -1.52529895
v 0.2107329 -1.16262924 -1.41200554
v 0.12641076 -1.12321841 -1.4726659
v 0.12920121 -1.01646113 -1.41390621
v 0.12423022 -0.91434872 -1.34909248
v 0.11740505 -0.81671255 -1.27785921
v 0.10939177 -0.72253316 -1.20220208
v 0.09985928 -0.62912881 -1.12494623
v 0.08952824 -0.53649669 -1.04543745
v 0.07848453 -0.44578546 -0.96352583
v 0.06811163 -0.35923364 -0.87724548
v 0.06150671 -0.29162597 -0.79750186
v 0.08124227 0.09681933 -0.79539263
v 0.07242938 0.33728846 -0.76804709
v 0.10642141 0.56383681 -0.68941998
v 0.14594875 0.9945755 -0.50960165
v 0.18174129 1.39073991 -0.49458429
v 0.14063079 1.75959909 -0.30400222
v 0.08614463 1.84700822 -0.17096352
v 0.068203 1.87885701 0.0164896
v 0.14647579 1.87300896 0.01469932
v 0.16990625 1.84315633 0.14090913
v 0.17165434 1.84823274 -0.10550674
v 0.25780916 1.88816118 -0.06424147
v 0.23468458 1.90435886 0.0141324
v 0.2321963 1.77486348 -0.1920952
v 0.30999749 1.83826863 -0.10723186
v 0.38233622 1.92139148 -0.06689509
v 0.34325557 1.94819927 -0.03858095
v 0.37670424 1.78432333 -0.11357371
v 0.42944684 1.89406681 -0.07069398
v 0.47671309 1.98495256 -0.03330368
v 0.44142451 1.76078581 -0.08076561
v 0.4730134 1.87847352 -0.05330329
v 0.49988719 1.97603559 -0.02478893
v 0.48185512 1.75446677 -0.01803375
v 0.47786533 1.63415622 -0.03424328
v 0.48257818 1.76887738 0.04426769
v 0.45271197 1.79985773 0.08867308
v 0.41047856 1.84137249 0.10794295
v 0.4639976 1.92999577 0.06596242
v 0.36718282 1.88807511 0.09880843
v 0.43725711 1.96030569 0.06133144
v 0.33580219 1.92895913 0.06472513
v 0.42008897 1.98597264 0.04117341
v 0.32601392 1.95221567 0.01333322
v 0.25148797 1.87444627 0.09475921
v 0.29714965 1.8195064 0.15752093
v 0.23214195 1.77579891 0.24194228
v 0.50263118 1.53113532 -0.06472265
v 0.44010254 1.42702281 -0.2730951
v 0.54229742 1.43972277 -0.14348375
v 0.43063247 1.32330012 -0.28670883
v 0.5463013 1.35873973 -0.18426838
v 0.44045019 1.24140393 -0.24622002
v 0.38607996 1.11836457 -0.19842265
v 0.44796732 1.18366229 -0.16938424
v 0.38510069 1.04726493 -0.1248993
v 0.41771841 1.00516963 -0.13951429
v 0.34242281 1.01083159 -0.05302611
v 0.27555778 0.95732849 0.01317811
v 0.19678108 0.89576685 0.07852357
v 0.19131456 0.94411814 0.12413448
v 0.10105817 0.84501552 0.12432792
v 0.09844821 0.8903113 0.16237106
v 0.09890311 0.95671725 0.24113622
v 0.09220486 1.01295507 0.31456485
v 0.08038085 1.05098271 0.36838614
v 0.13296891 1.08070743 0.37780523
v 0.07828234 1.03925907 0.44941946
v 0.11659589 1.07063508 0.46793741
v 0.06170145 1.02125418 0.55702751
v 0.09681447 1.04831337 0.576411
v 0.10893704 1.08252465 0.58659148
v 0.096464 1.12860703 0.54581356
v 0.04656892 1.06937778 0.66872543
v 0.03833185 1.0990597 0.65561479
v 0.10764195 0.80645161 0.11422397
v 0.50749206 0.96781814 -0.1489478
v 0.64143538 0.92481535 -0.21508403
v 0.63060665 0.92709779 -0.15409071
v 0.61307168 0.8973515 -0.09021229
v 0.75699704 0.88273632 -0.14987471
v 0.74608576 0.86397683 -0.10276661
v 0.74155032 0.82661342 -0.06193575
v 0.59851831 0.84595912 -0.03228949
v 0.74339628 0.77419811 -0.03971286
v 0.61442297 0.77899056 -0.00448972
v 0.74892288 0.70798003 -0.03932055
v 0.63460695 0.70023614 -0.00278578
v 0.50875324 0.68404895 0.0457733
v 0.64935851 0.62840521 -0.02849744
v 0.53677535 0.61049783 0.01691854
v 0.43985709 0.57248377 0.06193957
v 0.39588043 0.64997273 0.09904806
v 0.36934936 0.51171332 0.1059093
v 0.30107292 0.59090226 0.15872296
v 0.32634419 0.42187848 0.1277087
v 0.24919444 0.47992819 0.19412355
v 0.30009749 0.31811845 0.14084367
v 0.21143341 0.35124582 0.21283397
v 0.10420347 0.39326328 0.24589157
v 0.19814461 0.21713742 0.21715845
v 0.09529113 0.23449251 0.25345099
v 0.09477216 0.08993387 0.2680743
v 0.0983272 -0.0407414 0.28940126
v 0.20022651 0.09035278 0.22890433
v 0.21601161 -0.02895931 0.24443604
v 0.29986286 0.09195841 0.15247175
v 0.32752421 -0.01262924 0.15782372
v 0.37736564 -0.11741875 0.15665851
v 0.41532287 -0.00192638 0.04196723
v 0.47445282 -0.09620798 0.04753646
v 0.5596227 -0.21911796 0.06547845
v 0.46530908 -0.23759201 0.15586464
v 0.61316984 -0.40264552 0.0950925
v 0.54425936 -0.41339823 0.16673198
v 0.45920896 -0.43885049 0.21219079
v 0.35760688 -0.48096692 0.22690875
v 0.55358046 -0.64487266 0.1473495
v 0.50077027 -0.6591317 0.1779862
v 0.44259956 -0.6742534 0.18262271
v 0.378984 -0.70872038 0.1669389
v 0.29680877 -0.57090169 0.20664978
v 0.46691843 -0.85361677 0.07403109
v 0.42719751 -0.86168456 0.07938339
v 0.38614785 -0.87067544 0.07018189
v 0.3325136 -0.88658189 0.0457553
v 0.30582249 -0.75724434 0.1254474
v 0.39954018 -0.99567347 -0.02073515
v 0.36478343 -1.00016129 -0.02524402
v 0.3288134 -1.00761354 -0.03986613
v 0.28956437 -1.01411044 -0.06737856
v 0.271097 -0.90786284 -0.00303425
v 0.36212167 -1.09976017 -0.06751312
v 0.33494919 -1.10460698 -0.07833647
v 0.30823278 -1.11103355 -0.09797008
v 0.28495565 -1.11763393 -0.12722186
v 0.25728413 -1.01922035 -0.10609459
v 0.34233775 -1.20296025 -0.0759465
v 0.32290443 -1.21059763 -0.09195
v 0.30893564 -1.220106 -0.11306047
v 0.30300337 -1.22991454 -0.13535776
v 0.27274745 -1.12276101 -0.16014619
v 0.33284983 -1.30204868 -0.05343649
v 0.35017097 -1.28851997 -0.04033272
v 0.36390769 -1.19708156 -0.0652654
v 0.36891478 -1.27902066 -0.03188222
v 0.38899943 -1.19357824 -0.06212829
v 0.38910803 -1.27574253 -0.02936934
v 0.41292253 -1.19309449 -0.06516932
v 0.40981373 -1.27678644 -0.03164852
v 0.41810783 -1.32739114 0.02160748
v 0.42898759 -1.28135061 -0.04048569
v 0.43909746 -1.33476698 0.00745061
v 0.47044199 -1.36095333 0.06154198
v 0.43795096 -1.35260784 0.07434817
v 0.49961653 -1.37392032 0.10264495
v 0.4621019 -1.36804914 0.12144084
v 0.51852828 -1.39418256 0.13245859
v 0.47837007 -1.38777935 0.15460245
v 0.51738238 -1.42764461 0.13633716
v 0.47932136 -1.41919684 0.16189888
v 0.49652579 -1.4457798 0.10890571
v 0.46425634 -1.43889677 0.13554951
v 0.46508395 -1.44862997 0.06092692
v 0.48958677 -1.4517945 0.03781065
v 0.43810027 -1.45734238 -0.05034678
v 0.41415906 -1.45796895 -0.02718863
v 0.52546989 -1.44970345 0.08466088
v 0.54960483 -1.45100307 0.06442127
v 0.50759476 -1.45091056 0.01508084
v 0.54825079 -1.43295657 0.1083259
v 0.55198115 -1.4024502 0.10713025
v 0.53312093 -1.38061857 0.08215436
v 0.49607905 -1.36732339 0.04298974
v 0.51289814 -1.37231612 0.02043893
v 0.45454293 -1.34304642 -0.00817914
v 0.46692621 -1.35375928 -0.02410546
v 0.47835552 -1.36534464 -0.04113724
v 0.52678328 -1.38244962 -0.00025862
v 0.48459896 -1.38094854 -0.05875696
v 0.53483372 -1.40167546 -0.01199375
v 0.48610916 -1.40440988 -0.07256284
v 0.53330165 -1.423424 -0.01199887
v 0.47804796 -1.4284687 -0.07414784
v 0.52312022 -1.44153857 -0.00192032
v 0.46008265 -1.44845175 -0.06605887
v 0.43767496 -1.35725915 -0.14131006
v 0.41977062 -1.37232434 -0.15563392
v 0.39206019 -1.38041734 -0.16059681
v 0.40494355 -1.24457228 -0.19714681
v 0.3819215 -1.24853336 -0.19964772
v 0.35886731 -1.25066435 -0.19755281
v 0.36466312 -1.38312697 -0.15292896
v 0.33743009 -1.2501533 -0.18982313
v 0.34756535 -1.13346576 -0.26720574
v 0.31237682 -1.13284754 -0.25190135
v 0.28592202 -1.13148844 -0.227825
v 0.31734767 -1.24554383 -0.17588517
v 0.27234321 -1.12804281 -0.19504742
v 0.30704215 -1.23844361 -0.15681192
v 0.25114268 -1.01714527 -0.25144824
v 0.23447848 -1.0212965 -0.20440903
v 0.23804524 -1.0216434 -0.15305787
v 0.19668361 -0.93069613 -0.19210904
v 0.20288015 -0.9326561 -0.12563717
v 0.22686231 -0.92516505 -0.0622784
v 0.16532971 -0.86102759 -0.10059004
v 0.19075557 -0.84640646 -0.02131693
v 0.23529924 -0.81172114 0.05432887
v 0.14200413 -0.78719258 0.00964342
v 0.18106313 -0.74478381 0.09090164
v 0.23772376 -0.6688205 0.15935334
v 0.09991669 -0.68998724 0.14080788
v 0.12486163 -0.60178905 0.20472277
v 0.07634172 -0.74513739 0.04255671
v 0.06289953 -0.77174758 -0.07071536
v 0.06285567 -0.76809406 -0.17862442
v 0.11901319 -0.80695396 -0.08272971
v 0.11517366 -0.80474847 -0.1819618
v 0.15944528 -0.85959035 -0.18553265
v 0.18830415 -0.83909761 -0.26083701
v 0.242807 -0.80926686 -0.32207438
v 0.22059176 -0.91860002 -0.25304561
v 0.26743382 -0.90105283 -0.30272999
v 0.32298106 -0.88115286 -0.32767233
v 0.30772662 -0.77871418 -0.3540906
v 0.28825432 -1.01039373 -0.29082399
v 0.3349404 -1.00153958 -0.31410637
v 0.38188579 -0.99154728 -0.3175596
v 0.37934148 -0.86052531 -0.32926636
v 0.38258183 -1.13040947 -0.27087104
v 0.4173136 -1.12442994 -0.26468658
v 0.42510414 -0.98088526 -0.30364081
v 0.46270638 -0.96933883 -0.2747499
v 0.48515752 -0.82187086 -0.27026799
v 0.43325939 -0.83976703 -0.30996257
v 0.44838255 -1.11563479 -0.24745117
v 0.47183227 -1.1066147 -0.22127372
v 0.49299624 -0.95955759 -0.23343588
v 0.42791822 -1.23848652 -0.1879066
v 0.44797822 -1.23161637 -0.17240695
v 0.46203887 -1.22466599 -0.15413211
v 0.48485651 -1.10091662 -0.1946419
v 0.44874039 -1.3404994 -0.12491591
v 0.45476266 -1.324216 -0.10683896
v 0.45603942 -1.31093061 -0.08865702
v 0.46858835 -1.21694243 -0.13347277
v 0.46653747 -1.20810794 -0.11063791
v 0.48175442 -1.09637379 -0.13324514
v 0.4880155 -1.09788239 -0.16132155
v 0.45322218 -1.29847276 -0.07030218
v 0.4440068 -1.28833794 -0.05361137
v 0.4540953 -1.20025992 -0.09036816
v 0.43477338 -1.19522297 -0.07430673
v 0.44259995 -1.09496033 -0.08418743
v 0.46575903 -1.09545612 -0.10580446
v 0.46472123 -0.98504054 -0.04402036
v 0.49076488 -0.97653549 -0.06934034
v 0.50887572 -0.96676749 -0.1026733
v 0.53277361 -0.82810425 0.02217229
v 0.55573791 -0.81504952 -0.0244679
v 0.56491398 -0.80605638 -0.08437833
v 0.51560783 -0.96085214 -0.14119625
v 0.55562216 -0.80390089 -0.14828185
v 0.51104331 -0.95693653 -0.18764753
v 0.5271908 -0.8079586 -0.21599373
v 0.61205864 -0.63981747 -0.1444325
v 0.57438784 -0.65727448 -0.22657001
v 0.51926791 -0.68288332 -0.29315319
v 0.60726636 -0.50971239 -0.27840066
v 0.54151099 -0.5547257 -0.34817466
v 0.46072435 -0.60181289 -0.39731466
v 0.44942975 -0.71483349 -0.34030407
v 0.36919423 -0.65038913 -0.41829478
v 0.37705752 -0.74754071 -0.36024528
v 0.43908748 -0.50456309 -0.46819916
v 0.34394797 -0.56846654 -0.48382467
v 0.52189397 -0.43226727 -0.42443826
v 0.58853262 -0.36390003 -0.35501441
v 0.51706636 -0.23776827 -0.43566131
v 0.56071347 -0.16816067 -0.3377735
v 0.47571393 -0.05979611 -0.38677403
v 0.42605704 -0.12940397 -0.50469446
v 0.63330894 -0.30326151 -0.265695
v 0.64811909 -0.25291591 -0.16028407
v 0.57180631 -0.11531831 -0.21663336
v 0.65313416 -0.47111991 -0.19105899
v 0.67363971 -0.43604874 -0.09517947
v 0.66144269 -0.40985369 0.00483839
v 0.622877 -0.22262829 -0.04414663
v 0.62845605 -0.62817966 -0.06014782
v 0.62192565 -0.62414377 0.02092302
v 0.59646803 -0.63087183 0.09114502
v 0.50274121 -0.84180754 0.05448781
v 0.43389868 -0.99110543 -0.02726996
v 0.41748783 -1.09496212 -0.07085582
v 0.39003592 -1.09657359 -0.06551197
v 0.54157465 -0.0906958 -0.08126989
v 0.47519114 -0.00173137 -0.09441547
v 0.49699473 -0.01843128 -0.24346445
v 0.43224173 0.0831955 -0.10196346
v 0.44662016 0.06390555 -0.25543156
v 0.41875836 0.03251491 -0.40644142
v 0.42269903 0.15080426 -0.26246124
v 0.38946101 0.13234415 -0.41675972
v 0.32497477 0.11527662 -0.55753278
v 0.35875731 -0.01513208 -0.54250884
v 0.24245353 0.09773706 -0.67603999
v 0.326148 0.24774229 -0.54897654
v 0.24532084 0.27779233 -0.65530878
v 0.16280137 0.31008198 -0.72505366
v 0.16349373 0.08689686 -0.75064575
v 0.28571584 0.43845027 -0.59794724
v 0.20534962 0.51456487 -0.65050226
v 0.35692414 0.37040522 -0.51270282
v 0.41115394 0.46513015 -0.45978781
v 0.44789618 0.40516614 -0.3690561
v 0.50556606 0.46274432 -0.34391042
v 0.48052179 0.5258845 -0.41479998
v 0.40997704 0.32741391 -0.3952144
v 0.43428206 0.31439754 -0.2614474
v 0.46294608 0.3801043 -0.25469243
v 0.38954827 0.23314948 -0.41287612
v 0.42083978 0.23632147 -0.26442113
v 0.40721491 0.25975939 -0.11278786
v 0.41706207 0.33920902 -0.11973495
v 0.41206884 0.17152869 -0.10714876
v 0.3652063 0.19006367 0.03473338
v 0.36482584 0.28849062 0.02732023
v 0.38073495 0.09231954 0.0384746
v 0.29133904 0.20385319 0.14565837
v 0.37888398 0.37772733 0.01968871
v 0.41196712 0.44610443 0.00512836
v 0.44209292 0.39615705 -0.12822529
v 0.47202241 0.50015264 -0.01996223
v 0.49454841 0.4501602 -0.13592086
v 0.51183825 0.43442168 -0.24804057
v 0.57384926 0.49347296 -0.14387984
v 0.58718538 0.47509381 -0.24336341
v 0.58522278 0.50028955 -0.32402157
v 0.6802777 0.50516784 -0.23784211
v 0.683272 0.52500617 -0.30487769
v 0.67515337 0.57745486 -0.35121554
v 0.57045888 0.55888968 -0.37875655
v 0.66319078 0.6471678 -0.37120351
v 0.54991304 0.64189082 -0.40899419
v 0.65068864 0.73105073 -0.36209335
v 0.5287795 0.74220114 -0.40517026
v 0.64359593 0.81778734 -0.32602074
v 0.51935511 0.84378725 -0.36448249
v 0.6443867 0.88916409 -0.27156287
v 0.76456445 0.78938508 -0.29420524
v 0.76613271 0.84541899 -0.24772425
v 0.76564317 0.87722814 -0.1986733
v 0.88112032 0.81033331 -0.21845491
v 0.88120299 0.83709859 -0.1768611
v 0.87746405 0.84393525 -0.13668789
v 0.99370747 0.80863803 -0.15658079
v 0.99228495 0.81319183 -0.12297298
v 0.98903697 0.8017897 -0.09330702
v 0.87158262 0.83182871 -0.10061736
v 0.98391366 0.77798426 -0.07066013
v 0.86622273 0.80476677 -0.07207978
v 0.97720658 0.74455338 -0.0585502
v 0.86178296 0.76208263 -0.0572494
v 0.97246301 0.70698207 -0.05860666
v 0.85942637 0.71117967 -0.05848632
v 0.97390914 0.66960215 -0.06968514
v 0.86256456 0.65713918 -0.07526216
v 0.75624841 0.64248085 -0.06142484
v 0.87073439 0.61331802 -0.10761657
v 0.76337158 0.58810091 -0.10382519
v 0.65877014 0.56833398 -0.07806837
v 0.77450782 0.55213111 -0.16445803
v 0.66838991 0.5237838 -0.15529863
v 0.55664134 0.54304039 -0.04549207
v 0.7884258 0.539824 -0.22742989
v 0.88350856 0.58715826 -0.15260836
v 0.89839255 0.58184695 -0.19953155
v 0.90831333 0.59649831 -0.24212755
v 0.79465264 0.55614286 -0.28097721
v 0.9097296 0.62759196 -0.27223303
v 0.79178458 0.59663373 -0.31835895
v 0.9033612 0.67064976 -0.28676489
v 0.78313148 0.65248817 -0.33446481
v 0.89236187 0.72002005 -0.28207543
v 0.77125209 0.72073298 -0.32581725
v 0.88324785 0.76887363 -0.257016
v 1.00914752 0.72707742 -0.22738814
v 1.00025773 0.76177012 -0.21237871
v 0.99505996 0.78930854 -0.18792019
v 1.10990834 0.75686597 -0.16759966
v 1.10718154 0.77660399 -0.15269964
v 1.10400974 0.78878992 -0.13177599
v 1.22145617 0.77866178 -0.12849089
v 1.2209531 0.79772508 -0.11258824
v 1.21887862 0.79690027 -0.09284806
v 1.10042977 0.78917455 -0.1120431
v 1.21435892 0.77681613 -0.07823565
v 1.09716975 0.77868831 -0.08964447
v 1.20930457 0.75102943 -0.06911528
v 1.09361934 0.75795465 -0.07142292
v 1.20512938 0.72716045 -0.06294963
v 1.09105885 0.73221248 -0.05988056
v 1.20149779 0.70365291 -0.05965122
v 1.08982336 0.70489376 -0.05609234
v 1.19819283 0.68024969 -0.06059539
v 1.0900321 0.67859178 -0.06122861
v 1.19578659 0.6584568 -0.06892621
v 1.09238469 0.65619856 -0.07742982
v 0.98154205 0.63860988 -0.09254325
v 1.09692013 0.6437506 -0.09957023
v 0.99220866 0.6209467 -0.12367749
v 1.10328757 0.64272016 -0.1273619
v 1.00367569 0.61860704 -0.15920844
v 1.10886979 0.65394175 -0.15079201
v 1.01333272 0.63145601 -0.19215153
v 1.1132853 0.67602515 -0.16857035
v 1.01781904 0.65787279 -0.21649782
v 1.11498451 0.70327127 -0.17718464
v 1.0157082 0.69158768 -0.22845685
v 1.11275637 0.73149532 -0.17678849
v 1.2141993 0.70364457 -0.1421879
v 1.21739149 0.72931027 -0.14144235
v 1.21921134 0.75310599 -0.13712145
v 1.30900585 0.7159087 -0.13016983
v 1.30788338 0.74620062 -0.12749432
v 1.30918681 0.77533817 -0.12118221
v 1.38186514 0.73200511 -0.12277194
v 1.31156873 0.79927063 -0.10501848
v 1.30908036 0.79704117 -0.07859019
v 1.3038969 0.77224636 -0.06547371
v 1.37817728 0.72910255 -0.05507223
v 1.30170536 0.74468183 -0.0601752
v 1.37395429 0.69978255 -0.05323653
v 1.30177915 0.71586233 -0.05721933
v 1.36468708 0.66600096 -0.05332428
v 1.29850971 0.68600529 -0.05578934
v 1.35122513 0.63239961 -0.05496774
v 1.2885555 0.65735101 -0.05628451
v 1.27724218 0.63173514 -0.06118408
v 1.26841926 0.61227816 -0.07961316
v 1.19491267 0.64394903 -0.0875017
v 1.2707225 0.61321908 -0.1057853
v 1.19801294 0.64472878 -0.11044921
v 1.28223919 0.63284266 -0.1240361
v 1.20422768 0.6592279 -0.12821643
v 1.29544127 0.65777212 -0.12999644
v 1.20938718 0.68070805 -0.13823455
v 1.30508339 0.68507558 -0.13091954
v 1.35724616 0.63212323 -0.12508045
v 1.36764395 0.6642037 -0.12633696
v 1.37641823 0.69985473 -0.12521307
v 1.41171407 0.64701587 -0.10950493
v 1.42424631 0.68977081 -0.10753226
v 1.4296602 0.72250115 -0.10319142
v 1.4227947 0.68831008 -0.06549909
v 1.42650687 0.71981161 -0.06453668
v 1.41057312 0.64724755 -0.06728396
v 1.39417481 0.61707049 -0.06779844
v 1.39898276 0.61624729 -0.10820129
v 0.31791332 1.40350842 -0.38713085
v 0.11534289 -0.38687658 -0.83558714
v 0.11048453 -0.32898813 -0.76299262
v 0.14938916 -0.44061258 -0.76699507
v 0.14747397 -0.39502084 -0.70394587
v 0.14976975 -0.50552427 -0.69220346
v 0.14640136 -0.47085025 -0.65325754
v 0.11935851 -0.55863559 -0.63616937
v 0.1152584 -0.5309425 -0.61244374
v 0.13274394 -0.52425432 -0.58627206
v 0.06600552 -0.56813669 -0.58386534
v 0.07407987 -0.56084483 -0.55859118
v 0.08663468 -0.57346934 -0.53661936
v 0.15379861 -0.53440654 -0.56807339
v 0.06987943 -0.59380728 -0.60131996
v 0.08240012 -0.66970264 -0.6372956
v 0.09616871 -0.77870804 -0.69169098
v 0.10798699 -0.88554221 -0.74983435
v 0.11856627 -0.98993241 -0.81034654
v 0.13035555 -1.09030783 -0.87447947
v 0.1388404 -1.1880505 -0.94034349
v 0.13989278 -1.28466188 -1.00655198
v 0.13527648 -1.38027644 -1.07580411
v 0.12190491 -1.47330248 -1.14873516
v 0.11050511 -1.55832147 -1.23278474
v 0.17948107 -1.5261904 -1.29013526
v 0.20156471 -1.43758916 -1.20990109
v 0.24633431 -1.37963736 -1.3004626
v 0.21754856 -1.34246826 -1.13669848
v 0.26432853 -1.28325176 -1.22731137
v 0.25880792 -1.21542584 -1.330289
v 0.22600302 -1.24381446 -1.06681263
v 0.27360704 -1.18471407 -1.15330731
v 0.27045187 -1.11437642 -1.25779891
v 0.21978724 -1.05695688 -1.34700477
v 0.2711659 -1.08390557 -1.07977402
v 0.26991957 -1.01416111 -1.18223559
v 0.21491614 -0.95328927 -1.27979207
v 0.25636088 -0.91363251 -1.10996854
v 0.20128576 -0.85266888 -1.21047437
v 0.23717571 -0.81547737 -1.04088246
v 0.1874099 -0.75650137 -1.13722717
v 0.21566055 -0.71710199 -0.97586798
v 0.17010414 -0.66132283 -1.06526744
v 0.1931833 -0.61888063 -0.9114657
v 0.15052768 -0.56611847 -0.99324703
v 0.17081122 -0.52251666 -0.84427326
v 0.13225124 -0.47332939 -0.91782939
v 0.19606158 -0.6838988 -0.81537622
v 0.17383079 -0.58404672 -0.75571149
v 0.15831437 -0.73842108 -0.73909807
v 0.13971287 -0.63526463 -0.6831243
v 0.21677635 -0.78589499 -0.8740319
v 0.17531497 -0.84333366 -0.79656016
v 0.23725526 -0.88573122 -0.93807542
v 0.19278807 -0.94533175 -0.85990238
v 0.25741189 -0.98420679 -1.00736272
v 0.21062926 -1.04430484 -0.9287675
v 0.22408463 -1.14241719 -0.99981105
v 0.44429984 1.32686924 0.18887861
v 0.36002337 1.30613565 0.26214039
v 0.29025366 1.28275597 0.33396491
v 0.24382224 1.35690343 0.41786003
v 0.19533704 1.31972265 0.49653881
v 0.18702937 1.40758991 0.50233191
v 0.23270535 1.45757722 0.42846489
v 0.14842321 1.47346079 0.50869935
v 0.1541225 1.3748064 0.58041429
v 0.12574541 1.4289546 0.58564448
v 0.07361032 1.46458923 0.58098661
v 0.08238279 1.52385878 0.50820231
v 0.06025919 1.43220973 0.66100865
v 0.09505039 1.40260052 0.66874367
v 0.10899213 1.36710143 0.66940331
v 0.05075834 1.37480592 0.74779337
v 0.11026544 1.32769405 0.66958975
v 0.04964912 1.35181343 0.74767887
v 0.09861884 1.28807902 0.66938185
v 0.15848645 1.30706608 0.57738292
v -0.34681522 1.50725209 0.33522072
v -0.1171635 1.44036793 0.31377282
v -0.16790416 1.44643461 0.38533216
v -0.24619042 1.392174 0.33312827
v -0.22824589 1.38159811 0.28379574
v -0.33326572 1.51233005 0.211068
v -0.31812596 1.47321164 0.20222704
v -0.33816379 1.46124327 0.2445984
v -0.35028478 1.52197682 0.24667279
v -0.24501508 1.51618194 0.15510071
v -0.21208472 1.49431419 0.15542466
v -0.24916756 1.4565432 0.16930228
v -0.27988979 1.49695062 0.16706888
v -0.3559595 1.52084255 0.29557514
v -0.34444132 1.45904302 0.28847977
v -0.33621668 1.46615421 0.33753302
v -0.31889423 1.56107628 0.36579498
v -0.32338115 1.59930217 0.30779436
v -0.30674368 1.50105881 0.38870531
v -0.1045531 1.47846913 0.33160138
v -0.13207173 1.44651484 0.35372376
v -0.13775268 1.41991996 0.32217827
v -0.11824607 1.43388545 0.28696143
v -0.0930565 1.49262404 0.28927379
v -0.14595753 1.40688347 0.29062911
v -0.14300848 1.48856234 0.38793259
v -0.18730239 1.52064716 0.41331747
v -0.19871367 1.45336246 0.40113732
v -0.19967243 1.41321754 0.36860689
v -0.16714811 1.42096912 0.36152333
v -0.12684032 1.46953916 0.20740453
v -0.10332322 1.48361325 0.23997691
v -0.13117627 1.42633187 0.25006476
v -0.1534304 1.43146133 0.20986017
v -0.263251 1.40768849 0.35469201
v -0.2826302 1.40048015 0.32107701
v -0.25103318 1.38664162 0.31044697
v -0.22489711 1.39068996 0.33447593
v -0.23345521 1.41141378 0.36940702
v -0.22451017 1.3829739 0.30581939
v -0.21246825 1.38262629 0.27320909
v -0.20198538 1.38440597 0.3027845
v -0.25251281 1.38483047 0.27911081
v -0.24161216 1.38804137 0.24894046
v -0.27629229 1.40204167 0.23828502
v -0.25052288 1.41319298 0.2042161
v -0.21671564 1.39621412 0.22573618
v -0.18913093 1.38799011 0.26435133
v -0.28691297 1.39758145 0.27998334
v -0.31935697 1.4221158 0.28371736
v -0.30997234 1.4248631 0.23891665
v -0.31353876 1.42793703 0.3320631
v -0.28703808 1.44503426 0.37990242
v -0.24379961 1.45686531 0.4039089
v -0.25027045 1.52619671 0.41542848
v -0.25105923 1.5982629 0.38509663
v -0.17254106 1.58938801 0.38259714
v -0.16193534 1.62848067 0.31305289
v -0.24672393 1.64150321 0.31603086
v -0.11719067 1.54093551 0.36012688
v -0.10400375 1.56909894 0.30065968
v -0.11132454 1.55902969 0.2319799
v -0.16347661 1.61885595 0.23103866
v -0.18131294 1.56367349 0.17052854
v -0.24278801 1.57996881 0.17235705
v -0.24237555 1.6349225 0.23395563
v -0.1393681 1.51663911 0.18384286
v -0.17811313 1.46508264 0.17163686
v -0.21614453 1.43189919 0.182235
v -0.18341453 1.41053438 0.21374721
v -0.1591236 1.4021691 0.25667345
v -0.17592671 1.39097976 0.29719317
v -0.16782511 1.40286505 0.3315173
v -0.19899772 1.39350664 0.33521163
v -0.28596422 1.43865025 0.19637171
v -0.30231455 1.55527174 0.18725343
v -0.31625723 1.59708464 0.23898704
v 0.34681522 1.50725209 0.33522072
v 0.1171635 1.44036793 0.31377282
v 0.16790416 1.44643461 0.38533216
v 0.24619042 1.392174 0.33312827
v 0.22824589 1.38159811 0.28379574
v 0.33326572 1.51233005 0.211068
v 0.31812596 1.47321164 0.20222704
v 0.33816379 1.46124327 0.2445984
v 0.35028478 1.52197682 0.24667279
v 0.24501508 1.51618194 0.15510071
v 0.21208472 1.49431419 0.15542466
v 0.24916756 1.4565432 0.16930228
v 0.27988979 1.49695062 0.16706888
v 0.3559595 1.52084255 0.29557514
v 0.34444132 1.45904302 0.28847977
v 0.33621668 1.46615421 0.33753302
v 0.31889423 1.56107628 0.36579498
v 0.32338115 1.59930217 0.30779436
v 0.30674368 1.50105881 0.38870531
v 0.1045531 1.47846913 0.33160138
v 0.13207173 1.44651484 0.35372376
v 0.13775268 1.41991996 0.32217827
v 0.11824607 1.43388545 0.28696143
v 0.0930565 1.49262404 0.28927379
v 0.14595753 1.40688347 0.29062911
v 0.14300848 1.48856234 0.38793259
v 0.18730239 1.52064716 0.41331747
v 0.19871367 1.45336246 0.40113732
v 0.19967243 1.41321754 0.36860689
v 0.16714811 1.42096912 0.36152333
v 0.12684032 1.46953916 0.20740453
v 0.10332322 1.48361325 0.23997691
v 0.13117627 1.42633187 0.25006476
v 0.1534304 1.43146133 0.20986017
v 0.263251 1.40768849 0.35469201
v 0.2826302 1.40048015 0.32107701
v 0.25103318 1.38664162 0.31044697
v 0.22489711 1.39068996 0.33447593
v 0.23345521 1.41141378 0.36940702
v 0.22451017 1.3829739 0.30581939
v 0.21246825 1.38262629 0.27320909
v 0.20198538 1.38440597 0.3027845
v 0.25251281 1.38483047 0.27911081
v 0.24161216 1.38804137 0.24894046
v 0.27629229 1.40204167 0.23828502
v 0.25052288 1.41319298 0.2042161
v 0.21671564 1.39621412 0.22573618
v 0.18913093 1.38799011 0.26435133
v 0.28691297 1.39758145 0.27998334
v 0.31935697 1.4221158 0.28371736
v 0.30997234 1.4248631 0.23891665
v 0.31353876 1.42793703 0.3320631
v 0.28703808 1.44503426 0.37990242
v 0.24379961 1.45686531 0.4039089
v 0.25027045 1.52619671 0.41542848
v 0.25105923 1.5982629 0.38509663
v 0.17254106 1.58938801 0.38259714
v 0.16193534 1.62848067 0.31305289
v 0.24672393 1.64150321 0.31603086
v 0.11719067 1.54093551 0.36012688
v 0.10400375 1.56909894 0.30065968
v 0.11132454 1.55902969 0.2319799
v 0.16347661 1.61885595 0.23103866
v 0.18131294 1.56367349 0.17052854
v 0.24278801 1.57996881 0.17235705
v 0.24237555 1.6349225 0.23395563
v 0.1393681 1.51663911 0.18384286
v 0.17811313 1.46508264 0.17163686
v 0.21614453 1.43189919 0.182235
v 0.18341453 1.41053438 0.21374721
v 0.1591236 1.4021691 0.25667345
v 0.17592671 1.39097976 0.29719317
v 0.16782511 1.40286505 0.3315173
v 0.19899772 1.39350664 0.33521163
v 0.28596422 1.43865025 0.19637171
v 0.30231455 1.55527174 0.18725343
v 0.31625723 1.59708464 0.23898704
g Group35402
f 1 39 40 38
f 2 41 42 43
f 2 45 46 44
f 3 47 48 49
f 360 909 52 53
f 4 54 55 56
f 4 56 57 58
f 4 59 60 54
f 5 61 62 63
f 5 64 65 66
f 6 67 68 69
f 6 70 71 72
f 7 73 74 75
f 77 78 73 7
f 7 75 76 77
f 8 79 64 80
f 8 81 82 83
f 8 83 84 85
f 8 80 86 81
f 8 85 87 79
f 9 88 89 90
f 9 90 91 92
f 9 92 93 88
f 10 90 89 94
f 10 94 95 96
f 10 96 91 90
f 11 97 98 99
f 11 100 101 97
f 11 99 102 103
f 12 104 105 106
f 12 107 108 104
f 12 106 109 107
f 13 110 105 104
f 13 104 108 111
f 13 111 112 113
f 13 113 93 92
f 14 114 115 22
f 14 106 105 114
f 14 22 109 106
f 15 116 117 118
f 15 118 119 120
f 15 120 121 116
f 16 122 123 124
f 16 125 126 122
f 16 76 75 125
f 16 127 128 76
f 16 124 129 127
f 130 131 116 121
f 17 132 96 95
f 17 95 133 134
f 17 115 114 132
f 17 134 135 136
f 17 136 137 115
f 18 138 139 140
f 18 141 142 138
f 18 140 143 141
f 19 102 144 145
f 19 145 146 147
f 19 148 103 102
f 122 126 149 123
f 20 150 151 152
f 20 142 141 150
f 20 152 153 142
f 21 140 139 154
f 21 155 143 140
f 21 154 156 155
f 157 158 156 159
f 22 115 137 160
f 22 160 161 109
f 23 162 163 164
f 23 165 166 162
f 23 164 167 165
f 24 149 165 167
f 24 168 123 149
f 24 167 169 168
f 25 170 171 27
f 25 172 173 170
f 25 27 174 172
f 26 175 176 28
f 26 177 178 175
f 26 28 179 177
f 27 171 180 174
f 28 176 181 179
f 29 182 183 184
f 186 187 182 29
f 29 184 185 186
f 30 188 189 190
f 30 190 191 192
f 30 193 194 188
f 31 191 190 195
f 197 198 191 31
f 31 195 196 197
f 32 199 200 201
f 32 202 203 199
f 32 204 205 202
f 32 201 206 207
f 33 208 209 210
f 33 210 211 212
f 33 213 214 208
f 34 215 216 217
f 34 217 218 219
f 34 219 220 35
f 34 35 221 222
f 34 222 223 215
f 35 224 225 221
f 36 226 227 228
f 36 229 230 226
f 37 231 232 233
f 37 233 234 235
f 236 231 37 235
f 236 237 238 231
f 238 237 239 240
f 238 240 241 242
f 238 242 232 231
f 242 241 243 244
f 242 244 245 232
f 245 246 233 232
f 245 244 247 248
f 245 248 249 246
f 249 250 251 246
f 249 248 252 253
f 249 253 254 250
f 254 253 255 256
f 256 255 257 258
f 258 257 259 260
f 260 259 261 262
f 262 261 263 264
f 264 263 265 266
f 266 265 267 268
f 268 267 269 270
f 270 269 271 272
f 272 271 225 273
f 274 224 275 276
f 276 275 277 278
f 278 277 279 280
f 280 279 212 281
f 282 211 283 284
f 284 283 198 285
f 286 197 287 288
f 288 287 187 289
f 289 187 186 290
f 290 186 291 292
f 293 294 295 296
f 296 295 63 62
f 295 297 298 63
f 295 294 299 297
f 299 300 301 297
f 299 294 291 302
f 299 302 303 300
f 303 304 305 300
f 303 302 185 306
f 303 306 307 304
f 307 308 158 304
f 307 306 309 310
f 307 310 311 308
f 311 143 155 308
f 311 310 151 150
f 311 150 141 143
f 310 309 312 151
f 312 309 184 313
f 312 313 82 314
f 312 314 152 151
f 314 82 81 315
f 314 315 153 152
f 315 81 86 316
f 315 316 317 153
f 317 138 142 153
f 317 316 318 319
f 317 319 139 138
f 319 318 320 321
f 319 321 154 139
f 321 320 322 159
f 321 159 156 154
f 322 320 323 301
f 322 301 300 305
f 322 305 157 159
f 323 320 318 324
f 323 324 325 298
f 323 298 297 301
f 325 324 86 80
f 325 80 64 5
f 325 5 63 298
f 324 318 316 86
f 313 184 183 326
f 313 326 83 82
f 326 183 327 328
f 326 328 163 83
f 328 327 329 330
f 328 330 164 163
f 330 329 331 169
f 330 169 167 164
f 331 329 196 195
f 331 195 332 333
f 331 333 168 169
f 333 332 129 124
f 333 124 123 168
f 332 195 190 189
f 332 189 334 129
f 334 189 188 335
f 334 335 146 336
f 334 336 127 129
f 336 146 145 337
f 336 337 128 127
f 337 145 144 338
f 337 338 339 128
f 339 338 340 341
f 339 341 342 77
f 339 77 76 128
f 342 341 343 344
f 342 344 345 346
f 342 346 78 77
f 346 345 347 348
f 346 348 349 78
f 349 57 73 78
f 349 348 350 351
f 349 351 58 57
f 351 350 352 353
f 351 353 354 58
f 354 355 4 58
f 354 353 49 356
f 354 356 357 355
f 357 50 51 355
f 357 356 358 359
f 357 359 360 50
f 358 356 49 48
f 353 352 3 49
f 352 350 361 362
f 352 362 47 3
f 361 350 348 347
f 343 341 340 363
f 363 340 364 365
f 365 364 99 98
f 364 144 102 99
f 364 340 338 144
f 335 188 194 366
f 335 366 147 146
f 366 194 367 368
f 366 368 369 147
f 369 368 370 371
f 369 371 372 373
f 369 373 19 147
f 373 372 374 375
f 373 375 148 19
f 375 374 376 377
f 375 377 378 148
f 378 377 379 380
f 378 380 381 382
f 378 382 103 148
f 382 381 383 384
f 382 384 11 103
f 384 383 385 386
f 384 386 100 11
f 386 385 387 388
f 386 388 389 100
f 389 390 101 100
f 389 388 391 392
f 389 392 393 390
f 393 392 394 395
f 395 394 396 397
f 397 396 67 398
f 396 394 399 400
f 396 400 68 67
f 400 399 401 402
f 400 402 403 68
f 403 402 404 405
f 403 405 406 407
f 403 407 69 68
f 407 406 408 409
f 407 409 410 69
f 410 411 6 69
f 410 409 412 413
f 410 413 414 411
f 414 415 416 411
f 414 413 417 418
f 414 418 419 415
f 419 420 421 415
f 419 418 422 423
f 419 423 424 420
f 424 425 426 420
f 424 423 427 428
f 424 428 429 425
f 429 430 431 425
f 429 428 432 433
f 429 433 434 430
f 434 435 436 430
f 434 433 437 161
f 434 161 160 435
f 437 433 432 438
f 437 438 108 107
f 437 107 109 161
f 438 432 439 440
f 438 440 111 108
f 440 439 441 442
f 440 442 112 111
f 442 441 443 444
f 442 444 445 112
f 445 444 446 447
f 445 447 448 449
f 445 449 113 112
f 449 448 450 451
f 449 451 93 113
f 451 450 452 453
f 451 453 88 93
f 453 452 454 455
f 453 455 89 88
f 455 454 456 457
f 455 457 94 89
f 457 456 458 133
f 457 133 95 94
f 458 459 460 461
f 458 461 134 133
f 458 456 462 459
f 462 463 464 459
f 462 456 454 465
f 462 465 117 463
f 465 454 452 466
f 465 466 118 117
f 466 452 450 467
f 466 467 119 118
f 467 450 448 468
f 467 468 469 119
f 469 468 470 471
f 469 471 472 473
f 469 473 120 119
f 473 472 474 475
f 473 475 121 120
f 475 474 476 477
f 475 477 130 121
f 477 476 478 479
f 477 479 131 130
f 479 478 480 464
f 479 464 463 131
f 480 478 481 482
f 480 482 483 460
f 480 460 459 464
f 483 482 484 485
f 483 485 486 487
f 483 487 461 460
f 487 486 488 135
f 487 135 134 461
f 488 486 489 490
f 488 490 491 492
f 488 492 136 135
f 492 491 493 494
f 492 494 137 136
f 494 493 436 435
f 494 435 160 137
f 493 491 495 496
f 493 496 497 436
f 497 496 498 499
f 497 499 500 431
f 497 431 430 436
f 500 499 501 502
f 500 502 503 426
f 500 426 425 431
f 503 502 504 505
f 503 505 506 421
f 503 421 420 426
f 506 505 507 508
f 506 508 70 416
f 506 416 415 421
f 508 507 509 510
f 508 510 71 70
f 509 507 511 512
f 512 511 513 514
f 515 516 202 205
f 516 513 517 518
f 516 518 203 202
f 518 517 501 519
f 518 519 520 203
f 520 521 199 203
f 520 519 498 522
f 520 522 523 521
f 523 524 525 521
f 523 522 495 526
f 523 526 527 524
f 527 528 529 524
f 527 526 490 489
f 527 489 530 528
f 530 531 532 528
f 530 489 486 485
f 530 485 484 531
f 532 533 534 535
f 532 535 529 528
f 532 531 536 533
f 536 537 538 533
f 536 531 484 539
f 536 539 540 537
f 540 541 542 537
f 540 539 481 543
f 540 543 544 541
f 544 545 546 541
f 544 543 476 474
f 544 474 472 545
f 546 547 548 549
f 546 549 542 541
f 546 545 550 547
f 550 551 552 547
f 550 545 472 471
f 550 471 470 551
f 552 553 554 555
f 552 555 548 547
f 552 551 446 553
f 555 554 556 557
f 555 557 558 548
f 558 557 559 560
f 558 560 561 562
f 558 562 549 548
f 562 561 563 564
f 562 564 542 549
f 564 563 565 538
f 564 538 537 542
f 565 563 566 567
f 565 567 568 534
f 565 534 533 538
f 568 567 569 570
f 568 570 571 572
f 568 572 535 534
f 572 571 573 574
f 572 574 529 535
f 574 573 200 525
f 574 525 524 529
f 573 571 575 576
f 573 576 201 200
f 576 575 217 216
f 576 216 206 201
f 575 577 218 217
f 575 571 570 577
f 577 578 579 218
f 577 570 569 578
f 579 580 581 582
f 579 582 219 218
f 579 578 583 580
f 583 584 585 580
f 583 578 569 586
f 583 586 587 584
f 587 588 589 584
f 587 586 566 590
f 587 590 591 588
f 591 592 408 588
f 591 590 561 560
f 591 560 559 592
f 592 412 409 408
f 592 559 593 412
f 593 417 413 412
f 593 559 557 556
f 593 556 594 417
f 594 422 418 417
f 594 556 554 595
f 594 595 596 422
f 596 427 423 422
f 596 595 443 441
f 596 441 439 427
f 595 554 553 443
f 590 566 563 561
f 589 406 405 597
f 589 597 585 584
f 589 588 408 406
f 597 405 404 598
f 597 598 599 585
f 599 598 600 601
f 599 601 602 581
f 599 581 580 585
f 602 601 603 604
f 602 604 605 606
f 602 606 582 581
f 606 605 607 220
f 606 220 219 582
f 607 605 608 609
f 607 609 610 611
f 607 611 35 220
f 611 610 277 275
f 611 275 224 35
f 610 609 612 613
f 610 613 279 277
f 613 612 213 33
f 613 33 212 279
f 612 614 615 213
f 612 609 608 614
f 615 616 617 618
f 615 618 214 213
f 615 614 619 616
f 619 620 621 616
f 619 614 608 622
f 619 622 623 620
f 623 624 625 620
f 623 622 604 603
f 623 603 626 624
f 626 627 628 624
f 626 603 601 600
f 626 600 629 627
f 629 401 630 627
f 629 600 598 404
f 629 404 402 401
f 630 391 388 387
f 630 387 628 627
f 630 401 399 391
f 628 387 385 631
f 628 631 625 624
f 631 385 383 632
f 631 632 633 625
f 633 632 634 635
f 633 635 636 621
f 633 621 620 625
f 636 635 637 638
f 636 638 639 617
f 636 617 616 621
f 639 638 640 641
f 639 641 642 643
f 639 643 618 617
f 643 642 644 645
f 643 645 214 618
f 645 644 646 647
f 645 647 208 214
f 647 646 648 649
f 647 649 209 208
f 649 648 650 193
f 649 193 30 209
f 650 648 651 652
f 650 652 653 367
f 650 367 194 193
f 653 652 654 655
f 653 655 656 370
f 653 370 368 367
f 656 655 657 658
f 656 658 659 660
f 656 660 371 370
f 660 659 661 662
f 660 662 372 371
f 662 661 663 664
f 662 664 374 372
f 664 663 665 666
f 664 666 376 374
f 666 665 667 668
f 666 668 669 376
f 669 668 670 671
f 669 671 672 379
f 669 379 377 376
f 672 671 673 674
f 672 674 637 675
f 672 675 380 379
f 675 637 635 634
f 675 634 381 380
f 674 673 676 640
f 674 640 638 637
f 676 673 677 678
f 676 678 679 680
f 676 680 641 640
f 680 679 681 682
f 680 682 642 641
f 682 681 683 684
f 682 684 644 642
f 684 683 685 686
f 684 686 646 644
f 686 685 687 651
f 686 651 648 646
f 687 685 688 689
f 687 689 690 654
f 687 654 652 651
f 690 689 691 692
f 690 692 693 657
f 690 657 655 654
f 693 692 694 695
f 693 695 696 697
f 693 697 658 657
f 697 696 698 699
f 697 699 659 658
f 699 698 700 701
f 699 701 661 659
f 701 700 702 703
f 701 703 663 661
f 703 702 704 705
f 703 705 665 663
f 705 704 706 707
f 705 707 667 665
f 707 706 708 709
f 707 709 710 667
f 710 709 711 712
f 710 712 677 670
f 710 670 668 667
f 712 711 713 714
f 712 714 678 677
f 714 713 715 716
f 714 716 679 678
f 716 715 717 718
f 716 718 681 679
f 718 717 719 720
f 718 720 683 681
f 720 719 721 688
f 720 688 685 683
f 721 719 722 723
f 721 723 724 691
f 721 691 689 688
f 724 723 725 726
f 724 726 727 694
f 724 694 692 691
f 727 726 728 180
f 727 180 171 729
f 727 729 695 694
f 729 171 170 730
f 729 730 696 695
f 730 170 173 731
f 730 731 698 696
f 731 173 732 733
f 731 733 700 698
f 733 732 734 735
f 733 735 702 700
f 735 734 736 737
f 735 737 704 702
f 737 736 738 739
f 737 739 706 704
f 739 738 178 740
f 739 740 708 706
f 740 178 177 741
f 740 741 742 708
f 742 741 743 744
f 742 744 713 711
f 742 711 709 708
f 744 743 745 746
f 744 746 715 713
f 746 745 747 748
f 746 748 717 715
f 748 747 749 722
f 748 722 719 717
f 749 747 750 751
f 749 751 752 725
f 749 725 723 722
f 752 751 753 754
f 752 754 755 728
f 752 728 726 725
f 755 754 756 757
f 755 757 172 174
f 755 174 180 728
f 757 756 734 732
f 757 732 173 172
f 756 758 736 734
f 756 754 753 758
f 758 759 738 736
f 758 753 760 759
f 760 176 175 759
f 760 753 751 750
f 760 750 181 176
f 759 175 178 738
f 750 747 745 181
f 745 743 179 181
f 743 741 177 179
f 677 673 671 670
f 634 632 383 381
f 622 608 605 604
f 586 569 567 566
f 553 446 444 443
f 551 470 447 446
f 543 481 478 476
f 539 484 482 481
f 526 495 491 490
f 525 200 199 521
f 522 498 496 495
f 519 501 499 498
f 517 513 511 504
f 517 504 502 501
f 511 507 505 504
f 470 468 448 447
f 463 117 116 131
f 439 432 428 427
f 416 70 6 411
f 399 394 392 391
f 329 327 761 196
f 761 182 187 287
f 761 287 197 196
f 761 327 183 182
f 309 306 185 184
f 308 155 156 158
f 305 304 158 157
f 302 291 186 185
f 283 211 210 192
f 283 192 191 198
f 271 269 762 763
f 271 763 221 225
f 763 762 764 765
f 763 765 222 221
f 765 764 766 767
f 765 767 223 222
f 767 766 768 769
f 767 769 770 223
f 770 769 771 772
f 770 772 773 774
f 770 774 215 223
f 774 773 207 206
f 774 206 216 215
f 773 772 775 776
f 773 776 777 207
f 775 772 771 778
f 778 771 779 780
f 780 779 781 782
f 782 781 783 784
f 784 783 785 786
f 786 785 787 788
f 788 787 789 790
f 790 789 791 792
f 792 791 793 794
f 794 793 795 796
f 796 795 797 798
f 798 797 799 800
f 800 799 226 230
f 799 801 227 226
f 799 797 802 801
f 802 803 243 801
f 802 797 795 804
f 802 804 805 803
f 805 806 247 803
f 805 804 807 808
f 805 808 809 806
f 809 810 252 806
f 809 808 811 812
f 809 812 813 810
f 813 257 255 810
f 813 812 814 815
f 813 815 259 257
f 815 814 816 817
f 815 817 261 259
f 817 816 818 819
f 817 819 263 261
f 819 818 820 821
f 819 821 265 263
f 821 820 822 823
f 821 823 267 265
f 823 822 764 762
f 823 762 269 267
f 822 820 824 825
f 822 825 766 764
f 825 824 826 827
f 825 827 768 766
f 827 826 783 781
f 827 781 779 768
f 826 824 828 829
f 826 829 785 783
f 829 828 830 831
f 829 831 787 785
f 831 830 832 833
f 831 833 789 787
f 833 832 811 834
f 833 834 791 789
f 834 811 808 807
f 834 807 793 791
f 832 814 812 811
f 832 830 816 814
f 830 828 818 816
f 828 824 820 818
f 810 255 253 252
f 807 804 795 793
f 806 252 248 247
f 803 247 244 243
f 801 243 241 227
f 779 771 769 768
f 251 234 233 246
f 241 240 228 227
f 240 239 835 228
f 210 209 30 192
f 166 165 149 126
f 166 126 125 836
f 166 836 84 162
f 836 125 75 837
f 836 837 85 84
f 837 75 74 838
f 837 838 87 85
f 838 74 56 55
f 838 55 839 87
f 839 55 54 840
f 839 840 841 842
f 839 842 79 87
f 842 841 843 65
f 842 65 64 79
f 843 841 844 845
f 843 845 846 847
f 843 847 66 65
f 847 846 848 849
f 847 849 850 66
f 848 846 851 852
f 852 851 1 38
f 851 846 845 853
f 851 853 39 1
f 853 845 844 854
f 853 854 855 39
f 855 854 856 857
f 855 857 858 859
f 855 859 40 39
f 858 857 43 42
f 857 856 860 43
f 860 60 59 45
f 860 45 2 43
f 860 856 861 60
f 861 840 54 60
f 861 856 854 844
f 861 844 841 840
f 163 162 84 83
f 132 114 105 110
f 132 110 91 96
f 110 13 92 91
f 74 73 57 56
f 398 67 6 72
f 52 862 46 53
f 862 863 44 46
f 863 41 2 44
f 59 53 46 45
f 273 225 224 274
f 281 212 211 282
f 292 291 294 293
f 229 36 228 835
f 204 32 207 777
f 61 5 66 850
f 285 198 197 286
f 514 513 516 515
f 360 53 51 50
f 59 4 355
f 59 355 51 53
f 864 38 40 901
f 865 902 42 41
f 865 903 905 904
f 866 906 48 47
f 867 912 911 910
f 867 914 913 912
f 867 910 916 915
f 868 917 62 61
f 868 920 919 918
f 869 923 922 921
f 869 72 71 924
f 870 927 926 925
f 929 870 925 930
f 870 929 928 927
f 871 932 918 931
f 871 935 934 933
f 871 937 936 935
f 871 933 938 932
f 871 931 939 937
f 872 942 941 940
f 872 944 943 942
f 872 940 945 944
f 873 946 941 942
f 873 948 947 946
f 873 942 943 948
f 874 949 98 97
f 874 97 101 950
f 874 952 951 949
f 875 955 954 953
f 875 953 957 956
f 875 956 958 955
f 876 953 954 959
f 876 960 957 953
f 876 962 961 960
f 876 944 945 962
f 877 885 964 963
f 877 963 954 955
f 877 955 958 885
f 878 967 966 965
f 878 969 968 967
f 878 965 970 969
f 879 973 972 971
f 879 971 975 974
f 879 974 927 928
f 879 928 977 976
f 879 976 978 973
f 979 970 965 980
f 880 947 948 981
f 880 983 982 947
f 880 981 963 964
f 880 985 984 983
f 880 964 986 985
f 881 989 988 987
f 881 987 991 990
f 881 990 992 989
f 882 994 993 951
f 882 996 995 994
f 882 951 952 997
f 971 972 998 975
f 883 1001 1000 999
f 883 999 990 991
f 883 991 1002 1001
f 884 1003 988 989
f 884 989 992 1004
f 884 1004 1005 1003
f 1006 1008 1005 1007
f 885 1009 986 964
f 885 958 1010 1009
f 886 1013 1012 1011
f 886 1011 1015 1014
f 886 1014 1016 1013
f 887 1016 1014 998
f 887 998 972 1017
f 887 1017 1018 1016
f 888 890 1020 1019
f 888 1019 1022 1021
f 888 1021 1023 890
f 889 891 1025 1024
f 889 1024 1027 1026
f 889 1026 1028 891
f 890 1023 1029 1020
f 891 1028 1030 1025
f 892 1033 1032 1031
f 1035 892 1031 1036
f 892 1035 1034 1033
f 893 1039 1038 1037
f 893 1041 1040 1039
f 893 1037 1043 1042
f 894 1044 1039 1040
f 1046 894 1040 1047
f 894 1046 1045 1044
f 895 1050 1049 1048
f 895 1048 1052 1051
f 895 1051 205 204
f 895 1054 1053 1050
f 896 1057 1056 1055
f 896 1059 1058 1057
f 896 1055 1061 1060
f 897 1064 1063 1062
f 897 1066 1065 1064
f 897 898 1067 1066
f 897 1069 1068 898
f 897 1062 1070 1069
f 898 1068 1072 1071
f 899 1075 1074 1073
f 899 1073 230 229
f 900 1078 1077 1076
f 900 235 234 1078
f 236 235 900 1076
f 236 1076 1079 237
f 1079 1080 239 237
f 1079 1082 1081 1080
f 1079 1076 1077 1082
f 1082 1084 1083 1081
f 1082 1077 1085 1084
f 1085 1077 1078 1086
f 1085 1088 1087 1084
f 1085 1086 1089 1088
f 1089 1086 251 250
f 1089 1091 1090 1088
f 1089 250 254 1091
f 254 256 1092 1091
f 256 258 1093 1092
f 258 260 1094 1093
f 260 262 1095 1094
f 262 264 1096 1095
f 264 266 1097 1096
f 266 268 1098 1097
f 268 270 1099 1098
f 270 272 1100 1099
f 272 273 1072 1100
f 274 276 1101 1071
f 276 278 1102 1101
f 278 280 1103 1102
f 280 281 1059 1103
f 282 284 1104 1058
f 284 285 1047 1104
f 286 288 1105 1046
f 288 289 1036 1105
f 289 290 1035 1036
f 290 292 1106 1035
f 293 296 1108 1107
f 296 62 917 1108
f 1108 917 1110 1109
f 1108 1109 1111 1107
f 1111 1109 1113 1112
f 1111 1114 1106 1107
f 1111 1112 1115 1114
f 1115 1112 1117 1116
f 1115 1118 1034 1114
f 1115 1116 1119 1118
f 1119 1116 1007 1120
f 1119 1122 1121 1118
f 1119 1120 1123 1122
f 1123 1120 1004 992
f 1123 999 1000 1122
f 1123 992 990 999
f 1122 1000 1124 1121
f 1124 1125 1033 1121
f 1124 1126 934 1125
f 1124 1000 1001 1126
f 1126 1127 933 934
f 1126 1001 1002 1127
f 1127 1128 938 933
f 1127 1002 1129 1128
f 1129 1002 991 987
f 1129 1131 1130 1128
f 1129 987 988 1131
f 1131 1133 1132 1130
f 1131 988 1003 1133
f 1133 1008 1134 1132
f 1133 1003 1005 1008
f 1134 1113 1135 1132
f 1134 1117 1112 1113
f 1134 1008 1006 1117
f 1135 1136 1130 1132
f 1135 1110 1137 1136
f 1135 1113 1109 1110
f 1137 932 938 1136
f 1137 868 918 932
f 1137 1110 917 868
f 1136 938 1128 1130
f 1125 1138 1032 1033
f 1125 934 935 1138
f 1138 1140 1139 1032
f 1138 935 1012 1140
f 1140 1142 1141 1139
f 1140 1012 1013 1142
f 1142 1018 1143 1141
f 1142 1013 1016 1018
f 1143 1044 1045 1141
f 1143 1145 1144 1044
f 1143 1018 1017 1145
f 1145 973 978 1144
f 1145 1017 972 973
f 1144 1038 1039 1044
f 1144 978 1146 1038
f 1146 1147 1037 1038
f 1146 1148 995 1147
f 1146 978 976 1148
f 1148 1149 994 995
f 1148 976 977 1149
f 1149 1150 993 994
f 1149 977 1151 1150
f 1151 1153 1152 1150
f 1151 929 1154 1153
f 1151 977 928 929
f 1154 344 343 1153
f 1154 1155 345 344
f 1154 929 930 1155
f 1155 1156 347 345
f 1155 930 1157 1156
f 1157 930 925 913
f 1157 1159 1158 1156
f 1157 913 914 1159
f 1159 1161 1160 1158
f 1159 914 1162 1161
f 1162 914 867 1163
f 1162 1164 906 1161
f 1162 1163 1165 1164
f 1165 1163 908 907
f 1165 359 358 1164
f 1165 907 360 359
f 358 48 906 1164
f 1161 906 866 1160
f 1160 362 361 1158
f 1160 866 47 362
f 361 347 1156 1158
f 343 363 1152 1153
f 363 365 1166 1152
f 365 98 949 1166
f 1166 949 951 993
f 1166 993 1150 1152
f 1147 1167 1043 1037
f 1147 995 996 1167
f 1167 1169 1168 1043
f 1167 996 1170 1169
f 1170 1172 1171 1169
f 1170 1174 1173 1172
f 1170 996 882 1174
f 1174 1176 1175 1173
f 1174 882 997 1176
f 1176 1178 1177 1175
f 1176 997 1179 1178
f 1179 1181 1180 1178
f 1179 1183 1182 1181
f 1179 997 952 1183
f 1183 1185 1184 1182
f 1183 952 874 1185
f 1185 1187 1186 1184
f 1185 874 950 1187
f 1187 1189 1188 1186
f 1187 950 1190 1189
f 1190 950 101 390
f 1190 1192 1191 1189
f 1190 390 393 1192
f 393 395 1193 1192
f 395 397 1194 1193
f 397 398 921 1194
f 1194 1196 1195 1193
f 1194 921 922 1196
f 1196 1198 1197 1195
f 1196 922 1199 1198
f 1199 1201 1200 1198
f 1199 1203 1202 1201
f 1199 922 923 1203
f 1203 1205 1204 1202
f 1203 923 1206 1205
f 1206 923 869 1207
f 1206 1209 1208 1205
f 1206 1207 1210 1209
f 1210 1207 1212 1211
f 1210 1214 1213 1209
f 1210 1211 1215 1214
f 1215 1211 1217 1216
f 1215 1219 1218 1214
f 1215 1216 1220 1219
f 1220 1216 1222 1221
f 1220 1224 1223 1219
f 1220 1221 1225 1224
f 1225 1221 1227 1226
f 1225 1229 1228 1224
f 1225 1226 1230 1229
f 1230 1226 1232 1231
f 1230 1010 1233 1229
f 1230 1231 1009 1010
f 1233 1234 1228 1229
f 1233 956 957 1234
f 1233 1010 958 956
f 1234 1236 1235 1228
f 1234 957 960 1236
f 1236 1238 1237 1235
f 1236 960 961 1238
f 1238 1240 1239 1237
f 1238 961 1241 1240
f 1241 1243 1242 1240
f 1241 1245 1244 1243
f 1241 961 962 1245
f 1245 1247 1246 1244
f 1245 962 945 1247
f 1247 1249 1248 1246
f 1247 945 940 1249
f 1249 1251 1250 1248
f 1249 940 941 1251
f 1251 1253 1252 1250
f 1251 941 946 1253
f 1253 982 1254 1252
f 1253 946 947 982
f 1254 1257 1256 1255
f 1254 982 983 1257
f 1254 1255 1258 1252
f 1258 1255 1260 1259
f 1258 1261 1250 1252
f 1258 1259 966 1261
f 1261 1262 1248 1250
f 1261 966 967 1262
f 1262 1263 1246 1248
f 1262 967 968 1263
f 1263 1264 1244 1246
f 1263 968 1265 1264
f 1265 1267 1266 1264
f 1265 1269 1268 1267
f 1265 968 969 1269
f 1269 1271 1270 1268
f 1269 969 970 1271
f 1271 1273 1272 1270
f 1271 970 979 1273
f 1273 1275 1274 1272
f 1273 979 980 1275
f 1275 1260 1276 1274
f 1275 980 1259 1260
f 1276 1278 1277 1274
f 1276 1256 1279 1278
f 1276 1260 1255 1256
f 1279 1281 1280 1278
f 1279 1283 1282 1281
f 1279 1256 1257 1283
f 1283 984 1284 1282
f 1283 1257 983 984
f 1284 1286 1285 1282
f 1284 1288 1287 1286
f 1284 984 985 1288
f 1288 1290 1289 1287
f 1288 985 986 1290
f 1290 1231 1232 1289
f 1290 986 1009 1231
f 1289 1292 1291 1287
f 1289 1232 1293 1292
f 1293 1295 1294 1292
f 1293 1227 1296 1295
f 1293 1232 1226 1227
f 1296 1298 1297 1295
f 1296 1222 1299 1298
f 1296 1227 1221 1222
f 1299 1301 1300 1298
f 1299 1217 1302 1301
f 1299 1222 1216 1217
f 1302 1304 1303 1301
f 1302 1212 924 1304
f 1302 1217 1211 1212
f 1304 510 509 1303
f 1304 924 71 510
f 509 512 1305 1303
f 512 514 1306 1305
f 515 205 1051 1307
f 1307 1309 1308 1306
f 1307 1051 1052 1309
f 1309 1310 1297 1308
f 1309 1052 1311 1310
f 1311 1052 1048 1312
f 1311 1313 1294 1310
f 1311 1312 1314 1313
f 1314 1312 1316 1315
f 1314 1317 1291 1313
f 1314 1315 1318 1317
f 1318 1315 1320 1319
f 1318 1285 1286 1317
f 1318 1319 1321 1285
f 1321 1319 1323 1322
f 1321 1281 1282 1285
f 1321 1322 1280 1281
f 1323 1326 1325 1324
f 1323 1319 1320 1326
f 1323 1324 1327 1322
f 1327 1324 1329 1328
f 1327 1330 1280 1322
f 1327 1328 1331 1330
f 1331 1328 1333 1332
f 1331 1334 1277 1330
f 1331 1332 1335 1334
f 1335 1332 1337 1336
f 1335 1270 1272 1334
f 1335 1336 1268 1270
f 1337 1340 1339 1338
f 1337 1332 1333 1340
f 1337 1338 1341 1336
f 1341 1338 1343 1342
f 1341 1267 1268 1336
f 1341 1342 1266 1267
f 1343 1346 1345 1344
f 1343 1338 1339 1346
f 1343 1344 1242 1342
f 1346 1348 1347 1345
f 1346 1339 1349 1348
f 1349 1351 1350 1348
f 1349 1353 1352 1351
f 1349 1339 1340 1353
f 1353 1355 1354 1352
f 1353 1340 1333 1355
f 1355 1329 1356 1354
f 1355 1333 1328 1329
f 1356 1358 1357 1354
f 1356 1325 1359 1358
f 1356 1329 1324 1325
f 1359 1361 1360 1358
f 1359 1363 1362 1361
f 1359 1325 1326 1363
f 1363 1365 1364 1362
f 1363 1326 1320 1365
f 1365 1316 1049 1364
f 1365 1320 1315 1316
f 1364 1367 1366 1362
f 1364 1049 1050 1367
f 1367 1063 1064 1366
f 1367 1050 1053 1063
f 1366 1064 1065 1368
f 1366 1368 1361 1362
f 1368 1065 1370 1369
f 1368 1369 1360 1361
f 1370 1373 1372 1371
f 1370 1065 1066 1373
f 1370 1371 1374 1369
f 1374 1371 1376 1375
f 1374 1377 1360 1369
f 1374 1375 1378 1377
f 1378 1375 1380 1379
f 1378 1381 1357 1377
f 1378 1379 1382 1381
f 1382 1379 1204 1383
f 1382 1351 1352 1381
f 1382 1383 1350 1351
f 1383 1204 1205 1208
f 1383 1208 1384 1350
f 1384 1208 1209 1213
f 1384 1347 1348 1350
f 1384 1213 1385 1347
f 1385 1213 1214 1218
f 1385 1386 1345 1347
f 1385 1218 1387 1386
f 1387 1218 1219 1223
f 1387 1237 1239 1386
f 1387 1223 1235 1237
f 1386 1239 1344 1345
f 1381 1352 1354 1357
f 1380 1388 1201 1202
f 1380 1375 1376 1388
f 1380 1202 1204 1379
f 1388 1389 1200 1201
f 1388 1376 1390 1389
f 1390 1392 1391 1389
f 1390 1372 1393 1392
f 1390 1376 1371 1372
f 1393 1395 1394 1392
f 1393 1397 1396 1395
f 1393 1372 1373 1397
f 1397 1067 1398 1396
f 1397 1373 1066 1067
f 1398 1400 1399 1396
f 1398 1402 1401 1400
f 1398 1067 898 1402
f 1402 1101 1102 1401
f 1402 898 1071 1101
f 1401 1404 1403 1400
f 1401 1102 1103 1404
f 1404 896 1060 1403
f 1404 1103 1059 896
f 1403 1060 1406 1405
f 1403 1405 1399 1400
f 1406 1409 1408 1407
f 1406 1060 1061 1409
f 1406 1407 1410 1405
f 1410 1407 1412 1411
f 1410 1413 1399 1405
f 1410 1411 1414 1413
f 1414 1411 1416 1415
f 1414 1394 1395 1413
f 1414 1415 1417 1394
f 1417 1415 1419 1418
f 1417 1391 1392 1394
f 1417 1418 1420 1391
f 1420 1418 1421 1197
f 1420 1200 1389 1391
f 1420 1197 1198 1200
f 1421 1188 1189 1191
f 1421 1418 1419 1188
f 1421 1191 1195 1197
f 1419 1422 1186 1188
f 1419 1415 1416 1422
f 1422 1423 1184 1186
f 1422 1416 1424 1423
f 1424 1426 1425 1423
f 1424 1412 1427 1426
f 1424 1416 1411 1412
f 1427 1429 1428 1426
f 1427 1408 1430 1429
f 1427 1412 1407 1408
f 1430 1432 1431 1429
f 1430 1434 1433 1432
f 1430 1408 1409 1434
f 1434 1436 1435 1433
f 1434 1409 1061 1436
f 1436 1438 1437 1435
f 1436 1061 1055 1438
f 1438 1440 1439 1437
f 1438 1055 1056 1440
f 1440 1042 1441 1439
f 1440 1056 893 1042
f 1441 1443 1442 1439
f 1441 1168 1444 1443
f 1441 1042 1043 1168
f 1444 1446 1445 1443
f 1444 1171 1447 1446
f 1444 1168 1169 1171
f 1447 1449 1448 1446
f 1447 1451 1450 1449
f 1447 1171 1172 1451
f 1451 1453 1452 1450
f 1451 1172 1173 1453
f 1453 1455 1454 1452
f 1453 1173 1175 1455
f 1455 1457 1456 1454
f 1455 1175 1177 1457
f 1457 1459 1458 1456
f 1457 1177 1460 1459
f 1460 1462 1461 1459
f 1460 1180 1463 1462
f 1460 1177 1178 1180
f 1463 1465 1464 1462
f 1463 1466 1428 1465
f 1463 1180 1181 1466
f 1466 1425 1426 1428
f 1466 1181 1182 1425
f 1465 1431 1467 1464
f 1465 1428 1429 1431
f 1467 1469 1468 1464
f 1467 1471 1470 1469
f 1467 1431 1432 1471
f 1471 1473 1472 1470
f 1471 1432 1433 1473
f 1473 1475 1474 1472
f 1473 1433 1435 1475
f 1475 1477 1476 1474
f 1475 1435 1437 1477
f 1477 1442 1478 1476
f 1477 1437 1439 1442
f 1478 1480 1479 1476
f 1478 1445 1481 1480
f 1478 1442 1443 1445
f 1481 1483 1482 1480
f 1481 1448 1484 1483
f 1481 1445 1446 1448
f 1484 1486 1485 1483
f 1484 1488 1487 1486
f 1484 1448 1449 1488
f 1488 1490 1489 1487
f 1488 1449 1450 1490
f 1490 1492 1491 1489
f 1490 1450 1452 1492
f 1492 1494 1493 1491
f 1492 1452 1454 1494
f 1494 1496 1495 1493
f 1494 1454 1456 1496
f 1496 1498 1497 1495
f 1496 1456 1458 1498
f 1498 1500 1499 1497
f 1498 1458 1501 1500
f 1501 1503 1502 1500
f 1501 1461 1468 1503
f 1501 1458 1459 1461
f 1503 1505 1504 1502
f 1503 1468 1469 1505
f 1505 1507 1506 1504
f 1505 1469 1470 1507
f 1507 1509 1508 1506
f 1507 1470 1472 1509
f 1509 1511 1510 1508
f 1509 1472 1474 1511
f 1511 1479 1512 1510
f 1511 1474 1476 1479
f 1512 1514 1513 1510
f 1512 1482 1515 1514
f 1512 1479 1480 1482
f 1515 1517 1516 1514
f 1515 1485 1518 1517
f 1515 1482 1483 1485
f 1518 1029 1519 1517
f 1518 1520 1020 1029
f 1518 1485 1486 1520
f 1520 1521 1019 1020
f 1520 1486 1487 1521
f 1521 1522 1022 1019
f 1521 1487 1489 1522
f 1522 1524 1523 1022
f 1522 1489 1491 1524
f 1524 1526 1525 1523
f 1524 1491 1493 1526
f 1526 1528 1527 1525
f 1526 1493 1495 1528
f 1528 1530 1529 1527
f 1528 1495 1497 1530
f 1530 1531 1027 1529
f 1530 1497 1499 1531
f 1531 1532 1026 1027
f 1531 1499 1533 1532
f 1533 1535 1534 1532
f 1533 1502 1504 1535
f 1533 1499 1500 1502
f 1535 1537 1536 1534
f 1535 1504 1506 1537
f 1537 1539 1538 1536
f 1537 1506 1508 1539
f 1539 1513 1540 1538
f 1539 1508 1510 1513
f 1540 1542 1541 1538
f 1540 1516 1543 1542
f 1540 1513 1514 1516
f 1543 1545 1544 1542
f 1543 1519 1546 1545
f 1543 1516 1517 1519
f 1546 1548 1547 1545
f 1546 1023 1021 1548
f 1546 1519 1029 1023
f 1548 1523 1525 1547
f 1548 1021 1022 1523
f 1547 1525 1527 1549
f 1547 1549 1544 1545
f 1549 1527 1529 1550
f 1549 1550 1551 1544
f 1551 1550 1024 1025
f 1551 1541 1542 1544
f 1551 1025 1030 1541
f 1550 1529 1027 1024
f 1541 1030 1536 1538
f 1536 1030 1028 1534
f 1534 1028 1026 1532
f 1468 1461 1462 1464
f 1425 1182 1184 1423
f 1413 1395 1396 1399
f 1377 1357 1358 1360
f 1344 1239 1240 1242
f 1342 1242 1243 1266
f 1334 1272 1274 1277
f 1330 1277 1278 1280
f 1317 1286 1287 1291
f 1316 1312 1048 1049
f 1313 1291 1292 1294
f 1310 1294 1295 1297
f 1308 1300 1305 1306
f 1308 1297 1298 1300
f 1305 1300 1301 1303
f 1266 1243 1244 1264
f 1259 980 965 966
f 1235 1223 1224 1228
f 1212 1207 869 924
f 1195 1191 1192 1193
f 1141 1045 1552 1139
f 1552 1105 1036 1031
f 1552 1045 1046 1105
f 1552 1031 1032 1139
f 1121 1033 1034 1118
f 1120 1007 1005 1004
f 1117 1006 1007 1116
f 1114 1034 1035 1106
f 1104 1041 1057 1058
f 1104 1047 1040 1041
f 1100 1554 1553 1099
f 1100 1072 1068 1554
f 1554 1556 1555 1553
f 1554 1068 1069 1556
f 1556 1558 1557 1555
f 1556 1069 1070 1558
f 1558 1560 1559 1557
f 1558 1070 1561 1560
f 1561 1563 1562 1560
f 1561 1565 1564 1563
f 1561 1070 1062 1565
f 1565 1053 1054 1564
f 1565 1062 1063 1053
f 1564 776 775 1563
f 1564 1054 777 776
f 775 778 1562 1563
f 778 780 1566 1562
f 780 782 1567 1566
f 782 784 1568 1567
f 784 786 1569 1568
f 786 788 1570 1569
f 788 790 1571 1570
f 790 792 1572 1571
f 792 794 1573 1572
f 794 796 1574 1573
f 796 798 1575 1574
f 798 800 1576 1575
f 800 230 1073 1576
f 1576 1073 1074 1577
f 1576 1577 1578 1575
f 1578 1577 1083 1579
f 1578 1580 1574 1575
f 1578 1579 1581 1580
f 1581 1579 1087 1582
f 1581 1584 1583 1580
f 1581 1582 1585 1584
f 1585 1582 1090 1586
f 1585 1588 1587 1584
f 1585 1586 1589 1588
f 1589 1586 1092 1093
f 1589 1591 1590 1588
f 1589 1093 1094 1591
f 1591 1593 1592 1590
f 1591 1094 1095 1593
f 1593 1595 1594 1592
f 1593 1095 1096 1595
f 1595 1597 1596 1594
f 1595 1096 1097 1597
f 1597 1599 1598 1596
f 1597 1097 1098 1599
f 1599 1553 1555 1598
f 1599 1098 1099 1553
f 1598 1601 1600 1596
f 1598 1555 1557 1601
f 1601 1603 1602 1600
f 1601 1557 1559 1603
f 1603 1567 1568 1602
f 1603 1559 1566 1567
f 1602 1605 1604 1600
f 1602 1568 1569 1605
f 1605 1607 1606 1604
f 1605 1569 1570 1607
f 1607 1609 1608 1606
f 1607 1570 1571 1609
f 1609 1610 1587 1608
f 1609 1571 1572 1610
f 1610 1583 1584 1587
f 1610 1572 1573 1583
f 1608 1587 1588 1590
f 1608 1590 1592 1606
f 1606 1592 1594 1604
f 1604 1594 1596 1600
f 1586 1090 1091 1092
f 1583 1573 1574 1580
f 1582 1087 1088 1090
f 1579 1083 1084 1087
f 1577 1074 1081 1083
f 1566 1559 1560 1562
f 251 1086 1078 234
f 1081 1074 1075 1080
f 1080 1075 835 239
f 1057 1041 893 1056
f 1015 975 998 1014
f 1015 1611 974 975
f 1015 1011 936 1611
f 1611 1612 927 974
f 1611 936 937 1612
f 1612 1613 926 927
f 1612 937 939 1613
f 1613 911 912 926
f 1613 939 1614 911
f 1614 1615 910 911
f 1614 1617 1616 1615
f 1614 939 931 1617
f 1617 919 1618 1616
f 1617 931 918 919
f 1618 1620 1619 1616
f 1618 1622 1621 1620
f 1618 919 920 1622
f 1622 849 848 1621
f 1622 920 850 849
f 848 852 1623 1621
f 852 38 864 1623
f 1623 1624 1620 1621
f 1623 864 901 1624
f 1624 1625 1619 1620
f 1624 901 1626 1625
f 1626 1628 1627 1625
f 1626 859 858 1628
f 1626 901 40 859
f 858 42 902 1628
f 1628 902 1629 1627
f 1629 904 915 916
f 1629 902 865 904
f 1629 916 1630 1627
f 1630 916 910 1615
f 1630 1619 1625 1627
f 1630 1615 1616 1619
f 1012 935 936 1011
f 981 959 954 963
f 981 948 943 959
f 959 943 944 876
f 926 912 913 925
f 398 72 869 921
f 52 909 905 862
f 862 905 903 863
f 863 903 865 41
f 915 904 905 909
f 273 274 1071 1072
f 281 282 1058 1059
f 292 293 1107 1106
f 229 835 1075 899
f 204 777 1054 895
f 61 850 920 868
f 285 286 1046 1047
f 514 515 1307 1306
f 907 908 909 360
f 1163 867 915
f 908 1163 915 909
g Group50183
f 1636 1637 1638 1639
f 1640 1641 1642 1643
f 1631 1644 1645 1646
f 1631 1647 1648 1644
f 1631 1646 1649 1647
f 1632 1650 1651 1652
f 1632 1653 1654 1650
f 1632 1652 1655 1653
f 1633 1656 1657 1658
f 1633 1658 1659 1660
f 1633 1660 1651 1656
f 1661 1662 1663 1664
f 1634 1665 1666 1667
f 1634 1668 1669 1665
f 1634 1667 1670 1668
f 1635 1671 1672 1670
f 1635 1673 1674 1671
f 1635 1670 1667 1673
f 1674 1675 1676 1677
f 1674 1677 1678 1671
f 1674 1673 1679 1675
f 1679 1680 1681 1675
f 1679 1673 1667 1666
f 1679 1666 1682 1680
f 1682 1646 1645 1680
f 1682 1666 1665 1683
f 1682 1683 1649 1646
f 1683 1665 1669 1684
f 1683 1684 1685 1649
f 1685 1686 1647 1649
f 1685 1684 1658 1657
f 1685 1657 1687 1686
f 1687 1688 1689 1686
f 1687 1657 1656 1690
f 1687 1690 1691 1688
f 1691 1692 1693 1688
f 1691 1690 1650 1654
f 1691 1654 1662 1692
f 1693 1694 1695 1696
f 1693 1696 1689 1688
f 1693 1692 1697 1694
f 1697 1698 1641 1694
f 1697 1692 1662 1661
f 1697 1661 1664 1698
f 1698 1699 1642 1641
f 1698 1664 1700 1699
f 1700 1664 1663 1701
f 1700 1701 1678 1677
f 1700 1677 1676 1699
f 1701 1663 1653 1655
f 1701 1655 1702 1678
f 1702 1655 1652 1703
f 1702 1703 1704 1672
f 1702 1672 1671 1678
f 1704 1659 1669 1668
f 1704 1668 1670 1672
f 1704 1703 1660 1659
f 1703 1652 1651 1660
f 1699 1676 1705 1642
f 1705 1637 1643 1642
f 1705 1676 1675 1681
f 1705 1681 1638 1637
f 1696 1695 1706 1707
f 1696 1707 1648 1689
f 1707 1706 1636 1639
f 1707 1639 1644 1648
f 1706 1643 1637 1636
f 1706 1695 1640 1643
f 1695 1694 1641 1640
f 1690 1656 1651 1650
f 1689 1648 1647 1686
f 1684 1669 1659 1658
f 1681 1680 1645 1638
f 1663 1662 1654 1653
f 1645 1644 1639 1638
f 1713 1716 1715 1714
f 1717 1720 1719 1718
f 1708 1723 1722 1721
f 1708 1721 1725 1724
f 1708 1724 1726 1723
f 1709 1729 1728 1727
f 1709 1727 1731 1730
f 1709 1730 1732 1729
f 1710 1735 1734 1733
f 1710 1737 1736 1735
f 1710 1733 1728 1737
f 1738 1741 1740 1739
f 1711 1744 1743 1742
f 1711 1742 1746 1745
f 1711 1745 1747 1744
f 1712 1747 1749 1748
f 1712 1748 1751 1750
f 1712 1750 1744 1747
f 1751 1754 1753 1752
f 1751 1748 1755 1754
f 1751 1752 1756 1750
f 1756 1752 1758 1757
f 1756 1743 1744 1750
f 1756 1757 1759 1743
f 1759 1757 1722 1723
f 1759 1760 1742 1743
f 1759 1723 1726 1760
f 1760 1761 1746 1742
f 1760 1726 1762 1761
f 1762 1726 1724 1763
f 1762 1734 1735 1761
f 1762 1763 1764 1734
f 1764 1763 1766 1765
f 1764 1767 1733 1734
f 1764 1765 1768 1767
f 1768 1765 1770 1769
f 1768 1731 1727 1767
f 1768 1769 1739 1731
f 1770 1773 1772 1771
f 1770 1765 1766 1773
f 1770 1771 1774 1769
f 1774 1771 1718 1775
f 1774 1738 1739 1769
f 1774 1775 1741 1738
f 1775 1718 1719 1776
f 1775 1776 1777 1741
f 1777 1778 1740 1741
f 1777 1754 1755 1778
f 1777 1776 1753 1754
f 1778 1732 1730 1740
f 1778 1755 1779 1732
f 1779 1780 1729 1732
f 1779 1749 1781 1780
f 1779 1755 1748 1749
f 1781 1745 1746 1736
f 1781 1749 1747 1745
f 1781 1736 1737 1780
f 1780 1737 1728 1729
f 1776 1719 1782 1753
f 1782 1719 1720 1714
f 1782 1758 1752 1753
f 1782 1714 1715 1758
f 1773 1784 1783 1772
f 1773 1766 1725 1784
f 1784 1716 1713 1783
f 1784 1725 1721 1716
f 1783 1713 1714 1720
f 1783 1720 1717 1772
f 1772 1717 1718 1771
f 1767 1727 1728 1733
f 1766 1763 1724 1725
f 1761 1735 1736 1746
f 1758 1715 1722 1757
f 1740 1730 1731 1739
f 1722 1715 1716 1721

 