# 3ds Max Wavefront OBJ Exporter v0.99 - (c)2007 guruware
# File Created: 04.10.2024 23:56:22

mtllib GiraffePLACEHOLDER.mtl

#
# object Box033
#

v  -7.6671 0.0000 34.9748
v  -7.6671 0.0000 25.7576
v  -4.4145 0.0000 25.7576
v  -4.4145 0.0000 34.9748
v  -7.6671 8.7613 34.9748
v  -4.4145 8.7613 34.9748
v  -4.4145 8.7613 25.7576
v  -7.6671 8.7613 25.7576
v  7.6671 0.0000 34.9748
v  7.6671 0.0000 25.7576
v  7.6671 8.7613 25.7576
v  7.6671 8.7613 34.9748
v  7.6671 0.0000 -34.9748
v  4.5755 0.0000 -34.9748
v  4.5755 8.7613 -34.9748
v  7.6671 8.7613 -34.9748
v  -7.6671 0.0000 -34.9748
v  -7.6671 0.0000 -27.4034
v  -7.6671 8.7613 -27.4034
v  -7.6671 8.7613 -34.9748
v  -4.4145 0.0000 -34.9748
v  0.0766 0.0000 -34.9748
v  0.0766 0.0000 -27.4034
v  -4.4145 0.0000 -27.4034
v  -5.1609 84.4663 55.9848
v  -3.2879 84.4663 55.9848
v  -3.2879 84.4663 52.1407
v  -5.1609 84.4663 52.1407
v  0.0766 0.0000 34.9748
v  0.0766 8.7613 34.9748
v  -4.4145 8.7613 -34.9748
v  0.0766 8.7613 -34.9748
v  7.6671 0.0000 -27.4034
v  4.5755 0.0000 -27.4034
v  4.5755 8.7613 34.9748
v  4.5755 8.7613 25.7576
v  4.5755 0.0000 34.9748
v  -7.6671 -52.9915 -22.4773
v  -7.6671 -52.9915 -27.4034
v  -4.4145 -52.9915 -27.4034
v  -4.4145 -52.9915 -22.4773
v  -4.4145 8.7613 -22.4773
v  -4.4145 8.7613 -27.4034
v  -7.6671 8.7613 -22.4773
v  7.6671 0.0000 -22.4773
v  7.6671 8.7613 -27.4034
v  7.6671 8.7613 -22.4773
v  -7.6671 0.0000 -22.4773
v  -7.6671 0.0000 21.5327
v  -7.6671 8.7613 21.5327
v  4.5755 0.0000 -22.4773
v  4.5755 0.0000 21.5327
v  0.0766 0.0000 21.5327
v  0.0766 0.0000 -22.4773
v  4.5755 8.7613 -22.4773
v  4.5755 8.7613 -27.4034
v  0.0766 8.7613 -27.4034
v  0.0766 8.7613 -22.4773
v  7.6671 0.0000 21.5327
v  7.6671 -52.9915 -27.4034
v  7.6671 -52.9915 -22.4773
v  4.5755 -52.9915 -22.4773
v  4.5755 -52.9915 -27.4034
v  -7.6671 -52.9915 25.7576
v  -7.6671 -52.9915 21.5327
v  -4.4145 -52.9915 21.5327
v  -4.4145 -52.9915 25.7576
v  -4.4145 8.7613 21.5327
v  7.6671 8.7613 21.5327
v  4.5755 8.7613 21.5327
v  0.0766 8.7613 21.5327
v  0.0766 8.7613 25.7576
v  4.5755 0.0000 25.7576
v  0.0766 0.0000 25.7576
v  7.6671 -52.9915 21.5327
v  7.6671 -52.9915 25.7576
v  4.5755 -52.9915 25.7576
v  4.5755 -52.9915 21.5327
v  -4.4145 0.0000 -22.4773
v  -4.4145 0.0000 21.5327
v  0.0768 20.3895 37.2355
v  -4.1016 20.3895 37.2355
v  0.0768 24.0137 29.4633
v  4.2626 24.0137 29.4633
v  1.6883 69.0783 75.7874
v  1.5691 73.9139 75.8157
v  0.0792 73.9139 75.8157
v  0.0791 69.0783 75.7874
v  14.7665 73.9252 52.4112
v  14.5481 78.1715 52.6507
v  14.5481 78.1715 55.3312
v  14.7665 73.9252 55.3063
v  -2.8651 71.6188 50.7670
v  -2.6467 80.4779 51.2666
v  0.0781 80.4779 51.2666
v  0.0779 71.6188 50.7670
v  -12.9494 73.9252 55.3063
v  -12.7310 78.1715 55.3312
v  -12.7310 78.1715 52.6507
v  -12.9494 73.9252 52.4112
v  2.8076 80.4779 56.8588
v  0.0781 80.4779 56.8588
v  -2.6467 80.4779 56.8588
v  -2.8651 71.6188 56.8070
v  -1.5273 69.0783 75.7874
v  -1.4081 73.9139 75.8157
v  0.0779 71.6188 56.8070
v  3.0260 71.6188 56.8070
v  2.8076 80.4779 51.2666
v  2.8076 78.1715 55.3312
v  2.8076 78.1715 52.6507
v  3.0260 71.6188 50.7670
v  3.0260 73.9252 52.4112
v  3.0260 73.9252 55.3063
v  -2.6467 78.1715 52.6507
v  -2.6467 78.1715 55.3312
v  -2.8651 73.9252 55.3063
v  -2.8651 73.9252 52.4112
v  3.9330 33.5134 51.3385
v  0.0771 33.5134 51.3385
v  3.9330 33.5134 43.4387
v  -3.7720 33.5134 43.4387
v  0.0771 33.5134 43.4387
v  -3.7720 33.5134 51.3385
v  4.2626 20.3895 37.2355
v  -4.1016 24.0137 29.4633
v  2.5564 84.8335 55.6837
v  4.1388 84.8335 55.6837
v  4.1388 84.8335 52.4417
v  2.5564 84.8335 52.4417
# 130 vertices

vn -0.5774 -0.5774 0.5774
vn -0.9045 -0.3015 0.3015
vn 0.3015 -0.9045 0.3015
vn 0.0000 -0.7071 0.7071
vn -0.5774 0.5774 0.5774
vn -0.3420 0.2569 0.9039
vn -0.2428 0.9304 -0.2746
vn -0.7071 0.7071 -0.0000
vn 0.5774 -0.5774 0.5774
vn 0.9045 -0.3015 0.3015
vn 0.7071 0.7071 -0.0000
vn 0.5774 0.5774 0.5774
vn 0.5774 -0.5774 -0.5774
vn 0.0000 -0.7071 -0.7071
vn 0.0000 0.7071 -0.7071
vn 0.5774 0.5774 -0.5774
vn -0.5774 -0.5774 -0.5774
vn -0.9045 -0.3015 -0.3015
vn -0.5774 0.5774 -0.5774
vn 0.0000 -1.0000 -0.0000
vn 0.3015 -0.9045 -0.3015
vn -0.7494 0.4310 0.5026
vn 0.3246 0.7765 0.5400
vn 0.3246 0.7765 -0.5400
vn -0.7494 0.4310 -0.5026
vn 0.0000 -0.0959 0.9954
vn 0.9045 -0.3015 -0.3015
vn -0.3015 -0.9045 -0.3015
vn 0.3420 0.2569 0.9039
vn 0.2428 0.9304 -0.2746
vn 0.0000 1.0000 -0.0000
vn -0.3015 -0.9045 0.3015
vn 0.0000 0.7862 -0.6180
vn 0.0000 -0.4853 0.8744
vn -0.7833 -0.2836 0.5532
vn 0.0000 0.5696 -0.8219
vn 0.6332 0.4488 -0.6306
vn 0.5570 -0.6184 0.5544
vn 0.5645 0.4715 0.6775
vn 0.0000 0.5776 0.8163
vn 0.0000 -0.7545 0.6563
vn 0.5901 -0.5491 -0.5919
vn 0.5637 0.6056 -0.5618
vn 0.5607 0.5890 0.5820
vn 0.5937 -0.5651 0.5729
vn -0.7194 0.0978 -0.6877
vn -0.6089 -0.0396 -0.7922
vn -0.0166 0.4027 -0.9152
vn 0.0000 0.1229 -0.9924
vn -0.5937 -0.5651 0.5729
vn -0.5607 0.5890 0.5820
vn -0.5637 0.6056 -0.5618
vn -0.5901 -0.5491 -0.5919
vn 0.8207 0.3166 0.4756
vn -0.0158 0.8636 0.5039
vn -0.8091 0.2409 0.5360
vn -0.9034 -0.3127 0.2935
vn -0.5570 -0.6184 0.5544
vn -0.5645 0.4715 0.6775
vn 0.0000 -0.7975 0.6033
vn 0.9034 -0.3127 0.2935
vn 0.6507 0.0455 -0.7580
vn 0.9097 0.3276 0.2552
vn 0.9028 0.3452 -0.2564
vn 0.7194 0.0978 -0.6877
vn 0.9033 -0.2539 -0.3458
vn 0.8958 -0.2769 0.3477
vn -0.9028 0.3452 -0.2564
vn -0.9097 0.3276 0.2552
vn -0.8958 -0.2769 0.3477
vn -0.9033 -0.2539 -0.3458
vn 0.6435 -0.3457 0.6830
vn 0.0000 -0.4635 0.8861
vn 0.7974 0.3513 -0.4906
vn -0.7974 0.3513 -0.4906
vn 0.0000 0.5496 -0.8354
vn -0.6435 -0.3457 0.6830
vn 0.7833 -0.2836 0.5532
vn -0.6332 0.4488 -0.6306
vn -0.3981 0.7632 0.5090
vn 0.6860 0.5399 0.4877
vn 0.6860 0.5399 -0.4877
vn -0.3981 0.7632 -0.5090
# 83 vertex normals

vt 1.0000 0.0000 0.0000
vt 1.0000 0.1318 0.0000
vt 0.7879 0.1318 0.0000
vt 0.7879 0.0000 0.0000
vt 0.0000 0.0000 0.0000
vt 0.2121 0.0000 0.0000
vt 0.2121 0.1318 0.0000
vt 0.0000 0.1318 0.0000
vt 0.2121 1.0000 0.0000
vt 0.0000 1.0000 0.0000
vt 0.1318 0.0000 0.0000
vt 0.1318 1.0000 0.0000
vt 0.2016 0.0000 0.0000
vt 0.2016 1.0000 0.0000
vt 0.1082 0.0000 0.0000
vt 0.1082 1.0000 0.0000
vt 0.7879 1.0000 0.0000
vt 0.4950 1.0000 0.0000
vt 0.4950 0.8918 0.0000
vt 0.7879 0.8918 0.0000
vt 0.5050 0.0000 0.0000
vt 0.5050 0.1318 0.0000
vt 0.5050 1.0000 0.0000
vt 1.0000 1.0000 0.0000
vt 0.4950 0.0000 0.0000
vt 0.0000 0.8918 0.0000
vt 0.2016 0.8918 0.0000
vt 0.7984 0.0000 0.0000
vt 0.7984 0.1318 0.0000
vt 0.7984 1.0000 0.0000
vt 1.0000 0.8213 0.0000
vt 1.0000 0.8918 0.0000
vt 0.7879 0.8213 0.0000
vt 0.2121 0.8213 0.0000
vt 0.2121 0.8918 0.0000
vt 0.0000 0.8213 0.0000
vt 0.8213 0.0000 0.0000
vt 0.8918 0.0000 0.0000
vt 0.8918 1.0000 0.0000
vt 0.8213 1.0000 0.0000
vt 0.1787 0.0000 0.0000
vt 0.8078 0.0000 0.0000
vt 0.8078 1.0000 0.0000
vt 0.1787 1.0000 0.0000
vt 0.2016 0.8213 0.0000
vt 0.2016 0.1922 0.0000
vt 0.4950 0.1922 0.0000
vt 0.4950 0.8213 0.0000
vt 0.7984 0.8213 0.0000
vt 0.7984 0.8918 0.0000
vt 0.5050 0.8918 0.0000
vt 0.5050 0.8213 0.0000
vt 0.0000 0.1922 0.0000
vt 1.0000 0.1922 0.0000
vt 0.7879 0.1922 0.0000
vt 0.2121 0.1922 0.0000
vt 0.1922 0.0000 0.0000
vt 0.1922 1.0000 0.0000
vt 0.7984 0.1922 0.0000
vt 0.5050 0.1922 0.0000
vt 0.8682 0.0000 0.0000
vt 0.8682 1.0000 0.0000
vt 0.2016 0.1318 0.0000
vt 0.4950 0.1318 0.0000
# 64 texture coords

o Box033
g Box033
usemtl wire_103064016
s 2
f 1/1/1 2/2/2 3/3/3 4/4/4 
s 4
f 5/5/5 6/6/6 7/7/7 8/8/8 
s 8
f 1/5/1 4/6/4 6/9/6 5/10/5 
s 16
f 9/5/9 10/11/10 11/12/11 12/10/12 
s 32
f 13/5/13 14/13/14 15/14/15 16/10/16 
s 64
f 17/5/17 18/15/18 19/16/8 20/10/19 
s 2
f 21/17/14 22/18/14 23/19/20 24/20/21 
s 4
f 25/6/22 26/21/23 27/22/24 28/7/25 
s 8
f 4/6/4 29/21/4 30/23/26 6/9/6 
s 32
f 21/4/14 17/1/17 20/24/19 31/17/15 
f 14/13/14 22/25/14 32/18/15 15/14/15 
s 2
f 14/14/14 13/10/13 33/26/27 34/27/28 
s 4
f 35/28/29 12/1/12 11/2/11 36/29/30 
s 8
f 37/28/4 9/1/9 12/24/12 35/30/29 
s 2
f 38/31/1 39/32/17 40/20/13 41/33/9 
s 4
f 42/34/31 43/35/31 19/26/8 44/36/8 
s 16
f 45/37/10 33/38/27 46/39/11 47/40/11 
s 64
f 48/41/2 49/42/18 50/43/8 44/44/8 
s 2
f 51/45/32 52/46/28 53/47/20 54/48/20 
s 4
f 55/49/31 56/50/31 57/51/31 58/52/31 
s 2
f 45/36/10 59/53/27 52/46/28 51/45/32 
s 4
f 47/31/11 46/32/11 56/50/31 55/49/31 
s 64
f 18/15/18 48/41/2 44/44/8 19/16/8 
s 2
f 34/27/28 51/45/32 54/48/20 23/19/20 
f 60/26/13 61/36/9 62/45/1 63/27/17 
f 18/32/18 17/24/17 21/17/14 24/20/21 
s 4
f 43/35/31 31/9/15 20/10/19 19/26/8 
s 16
f 33/38/27 13/1/13 16/24/16 46/39/11 
s 4
f 56/50/31 15/30/15 32/23/15 57/51/31 
f 46/32/11 16/24/16 15/30/15 56/50/31 
s 2
f 64/2/1 65/54/17 66/55/13 67/3/9 
s 4
f 7/7/7 68/56/31 50/53/8 8/8/8 
s 16
f 10/11/10 59/57/27 69/58/11 11/12/11 
s 4
f 36/29/30 70/59/31 71/60/31 72/22/33 
f 11/2/11 69/54/11 70/59/31 36/29/30 
s 64
f 2/61/2 1/1/1 5/24/5 8/62/8 
s 2
f 73/63/32 37/13/4 29/25/4 74/64/20 
f 10/8/10 9/5/9 37/13/4 73/63/32 
s 64
f 49/42/18 2/61/2 8/62/8 50/43/8 
s 2
f 52/46/28 73/63/32 74/64/20 53/47/20 
f 75/53/13 76/8/9 77/63/1 78/46/17 
f 49/54/18 48/31/2 79/33/3 80/55/21 
s 4
f 68/56/31 42/34/31 44/36/8 50/53/8 
s 16
f 59/57/27 45/37/10 47/40/11 69/58/11 
s 4
f 70/59/31 55/49/31 58/52/31 71/60/31 
f 69/54/11 47/31/11 55/49/31 70/59/31 
s 64
f 48/31/2 18/32/18 39/32/17 38/31/1 
s off
f 18/32/18 24/20/21 40/20/13 39/32/17 
f 24/20/21 79/33/3 41/33/9 40/20/13 
f 79/33/3 48/31/2 38/31/1 41/33/9 
f 45/36/10 51/45/32 62/45/1 61/36/9 
f 51/45/32 34/27/28 63/27/17 62/45/1 
f 34/27/28 33/26/27 60/26/13 63/27/17 
s 16
f 33/26/27 45/36/10 61/36/9 60/26/13 
s 64
f 2/2/2 49/54/18 65/54/17 64/2/1 
s off
f 49/54/18 80/55/21 66/55/13 65/54/17 
f 80/55/21 3/3/3 67/3/9 66/55/13 
f 3/3/3 2/2/2 64/2/1 67/3/9 
f 10/8/10 73/63/32 77/63/1 76/8/9 
f 73/63/32 52/46/28 78/46/17 77/63/1 
f 52/46/28 59/53/27 75/53/13 78/46/17 
s 16
f 59/53/27 10/8/10 76/8/9 75/53/13 
s 8
f 6/6/6 30/21/26 81/21/34 82/6/35 
s off
f 36/29/30 72/22/33 83/22/36 84/29/37 
s 8
f 85/28/38 86/28/39 87/21/40 88/21/41 
s off
f 89/29/42 90/29/43 91/28/44 92/28/45 
f 93/7/46 94/7/47 95/22/48 96/22/49 
f 97/6/50 98/6/51 99/7/52 100/7/53 
s 4
f 101/28/54 102/21/55 87/21/40 86/28/39 
s off
f 103/6/56 104/6/57 105/6/58 106/6/59 
f 104/6/57 107/21/60 88/21/41 105/6/58 
f 108/28/61 101/28/54 86/28/39 85/28/38 
s 1
f 109/29/62 101/28/54 110/28/63 111/29/64 
f 108/28/61 112/29/65 113/29/66 114/28/67 
f 103/6/56 94/7/47 115/7/68 116/6/69 
f 93/7/46 104/6/57 117/6/70 118/7/71 
s off
f 116/6/69 115/7/68 99/7/52 98/6/51 
f 115/7/68 118/7/71 100/7/53 99/7/52 
f 118/7/71 117/6/70 97/6/50 100/7/53 
f 117/6/70 116/6/69 98/6/51 97/6/50 
f 111/29/64 110/28/63 91/28/44 90/29/43 
f 110/28/63 114/28/67 92/28/45 91/28/44 
f 114/28/67 113/29/66 89/29/42 92/28/45 
f 113/29/66 111/29/64 90/29/43 89/29/42 
s 8
f 119/28/72 108/28/61 107/21/60 120/21/73 
s off
f 121/29/74 112/29/65 108/28/61 119/28/72 
f 122/7/75 93/7/46 96/22/49 123/22/76 
f 124/6/77 104/6/57 93/7/46 122/7/75 
s 8
f 125/28/78 119/28/72 120/21/73 81/21/34 
s off
f 126/7/79 122/7/75 123/22/76 83/22/36 
s 2
f 22/18/14 14/14/14 34/27/28 23/19/20 
s 4
f 127/21/80 128/28/81 129/29/82 130/22/83 
s 8
f 29/21/4 37/28/4 35/30/29 30/23/26 
s 32
f 22/25/14 21/4/14 31/17/15 32/18/15 
s 2
f 53/47/20 80/55/21 79/33/3 54/48/20 
s 4
f 57/51/31 43/35/31 42/34/31 58/52/31 
s 2
f 54/48/20 79/33/3 24/20/21 23/19/20 
s 4
f 32/23/15 31/9/15 43/35/31 57/51/31 
f 71/60/31 68/56/31 7/7/7 72/22/33 
s 2
f 29/25/4 4/4/4 3/3/3 74/64/20 
f 74/64/20 3/3/3 80/55/21 53/47/20 
s 4
f 58/52/31 42/34/31 68/56/31 71/60/31 
s 8
f 30/21/26 35/28/29 125/28/78 81/21/34 
s off
f 72/22/33 7/7/7 126/7/79 83/22/36 
s 8
f 87/21/40 106/6/59 105/6/58 88/21/41 
s off
f 95/22/48 109/29/62 112/29/65 96/22/49 
s 4
f 102/21/55 103/6/56 106/6/59 87/21/40 
s off
f 107/21/60 108/28/61 85/28/38 88/21/41 
s 8
f 107/21/60 104/6/57 124/6/77 120/21/73 
s off
f 96/22/49 112/29/65 121/29/74 123/22/76 
s 8
f 120/21/73 124/6/77 82/6/35 81/21/34 
s off
f 123/22/76 121/29/74 84/29/37 83/22/36 
f 94/7/47 103/6/56 25/6/22 28/7/25 
f 103/6/56 102/21/55 26/21/23 25/6/22 
f 102/21/55 95/22/48 27/22/24 26/21/23 
f 95/22/48 94/7/47 28/7/25 27/22/24 
f 35/28/29 36/29/30 84/29/37 125/28/78 
f 6/6/6 82/6/35 126/7/79 7/7/7 
s 1
f 101/28/54 108/28/61 114/28/67 110/28/63 
f 112/29/65 109/29/62 111/29/64 113/29/66 
f 94/7/47 93/7/46 118/7/71 115/7/68 
f 104/6/57 103/6/56 116/6/69 117/6/70 
s off
f 121/29/74 119/28/72 125/28/78 84/29/37 
f 82/6/35 124/6/77 122/7/75 126/7/79 
f 102/21/55 101/28/54 128/28/81 127/21/80 
f 101/28/54 109/29/62 129/29/82 128/28/81 
f 109/29/62 95/22/48 130/22/83 129/29/82 
f 95/22/48 102/21/55 127/21/80 130/22/83 
# 128 polygons

