# 3ds Max Wavefront OBJ Exporter v0.99 - (c)2007 guruware
# File Created: 25.09.2024 13:39:12

mtllib GorillaEnclosure_Placeholder.mtl

#
# object Gorilla_Enclosure
#

v  14.6259 1.4700 -6.5532
v  14.9455 1.4700 -8.7740
v  14.4132 1.4700 -8.7255
v  14.1147 1.4700 -6.6519
v  14.4132 -1.4700 -8.7255
v  14.1147 -1.4700 -6.6519
v  14.9455 -1.4700 -8.7740
v  14.6259 -1.4700 -6.5532
v  14.2967 1.4700 -10.7036
v  13.8395 1.4700 -10.4316
v  13.8395 -1.4700 -10.4316
v  14.2967 -1.4700 -10.7036
v  12.8503 1.4700 -12.2592
v  12.5230 1.4700 -11.8475
v  12.5230 -1.4700 -11.8475
v  12.8503 -1.4700 -12.2592
v  10.7918 1.4700 -13.4429
v  10.5787 1.4700 -12.9656
v  10.5787 -1.4700 -12.9656
v  10.7918 -1.4700 -13.4429
v  8.2766 1.4700 -14.2706
v  8.1512 1.4700 -13.7645
v  8.1512 -1.4700 -13.7645
v  8.2766 -1.4700 -14.2706
v  5.4502 1.4700 -14.7495
v  5.3952 1.4700 -14.2314
v  5.3952 -1.4700 -14.2314
v  5.4502 -1.4700 -14.7495
v  2.4582 1.4700 -14.8806
v  2.4656 1.4700 -14.3598
v  2.4656 -1.4700 -14.3598
v  2.4582 -1.4700 -14.8806
v  -0.5533 1.4700 -14.6622
v  -0.4837 1.4700 -14.1459
v  -0.4837 -1.4700 -14.1459
v  -0.5533 -1.4700 -14.6622
v  -3.4377 1.4700 -14.0905
v  -3.2990 1.4700 -13.5879
v  -3.2990 -1.4700 -13.5879
v  -3.4377 -1.4700 -14.0905
v  -6.0414 1.4700 -13.1619
v  -5.8337 1.4700 -12.6838
v  -5.8337 -1.4700 -12.6838
v  -6.0414 -1.4700 -13.1619
v  -8.2190 1.4700 -12.0364
v  -7.9520 1.4700 -11.5891
v  -7.9520 -1.4700 -11.5891
v  -8.2190 -1.4700 -12.0364
v  -9.9705 1.4700 -10.8404
v  -9.6420 1.4700 -10.4350
v  -9.6420 -1.4700 -10.4350
v  -9.9705 -1.4700 -10.8404
v  -11.3489 1.4700 -9.5225
v  -10.9534 1.4700 -9.1813
v  -10.9534 -1.4700 -9.1813
v  -11.3489 -1.4700 -9.5225
v  -12.3983 1.4700 -8.0395
v  -11.9454 1.4700 -7.7794
v  -11.9454 -1.4700 -7.7794
v  -12.3983 -1.4700 -8.0395
v  -13.1648 1.4700 -6.3537
v  -12.6747 1.4700 -6.1754
v  -12.6747 -1.4700 -6.1754
v  -13.1648 -1.4700 -6.3537
v  -13.7007 1.4700 -4.4272
v  -13.1921 1.4700 -4.3153
v  -13.1921 -1.4700 -4.3153
v  -13.7007 -1.4700 -4.4272
v  -14.0613 1.4700 -2.2170
v  -13.5452 1.4700 -2.1506
v  -13.5452 -1.4700 -2.1506
v  -14.0613 -1.4700 -2.2170
v  -14.3011 1.4700 0.3239
v  -13.7826 1.4700 0.3637
v  -13.7826 -1.4700 0.3637
v  -14.3011 -1.4700 0.3239
v  -14.4733 1.4700 3.2435
v  -13.9540 1.4700 3.2710
v  -13.9540 -1.4700 3.2710
v  -14.4733 -1.4700 3.2435
v  -14.6307 1.4700 6.6044
v  -14.1099 1.4700 6.6007
v  -14.1099 -1.4700 6.6007
v  -14.6307 -1.4700 6.6044
v  -14.4380 1.4700 9.7632
v  -13.9237 1.4700 9.6537
v  -13.9237 -1.4700 9.6537
v  -14.4380 -1.4700 9.7632
v  -13.5622 1.4700 12.0990
v  -13.1112 1.4700 11.8207
v  -13.1112 -1.4700 11.8207
v  -13.5622 -1.4700 12.0990
v  -12.0808 1.4700 13.6990
v  -11.7648 1.4700 13.2748
v  -11.7648 -1.4700 13.2748
v  -12.0808 -1.4700 13.6990
v  -10.1084 1.4700 14.6676
v  -9.9392 1.4700 14.1714
v  -9.9392 -1.4700 14.1714
v  -10.1084 -1.4700 14.6676
v  -7.7573 1.4700 15.1464
v  -7.6918 1.4700 14.6291
v  -7.6918 -1.4700 14.6291
v  -7.7573 -1.4700 15.1464
v  -5.1133 1.4700 15.2820
v  -5.1064 1.4700 14.7616
v  -5.1064 -1.4700 14.7616
v  -5.1133 -1.4700 15.2820
v  -2.2550 1.4700 15.2115
v  -2.2740 1.4700 14.6918
v  -2.2740 -1.4700 14.6918
v  -2.2550 -1.4700 15.2115
v  0.7367 1.4700 15.0671
v  0.7167 1.4700 14.5474
v  0.7167 -1.4700 14.5474
v  0.7367 -1.4700 15.0671
v  3.7785 1.4700 14.9789
v  3.7794 1.4700 14.4587
v  3.7794 -1.4700 14.4587
v  3.7785 -1.4700 14.9789
v  6.8136 1.4700 15.0766
v  6.8014 1.4700 14.5559
v  6.8014 -1.4700 14.5559
v  6.8136 -1.4700 15.0766
v  9.4424 1.4700 14.8686
v  9.2897 1.4700 14.3591
v  9.2897 -1.4700 14.3591
v  9.4424 -1.4700 14.8686
v  11.3346 1.4700 13.8264
v  10.9793 1.4700 13.4284
v  10.9793 -1.4700 13.4284
v  11.3346 -1.4700 13.8264
v  12.5539 1.4700 12.1058
v  12.0818 1.4700 11.8727
v  12.0818 -1.4700 11.8727
v  12.5539 -1.4700 12.1058
v  13.2416 1.4700 9.8868
v  12.7312 1.4700 9.7771
v  12.7312 -1.4700 9.7771
v  13.2416 -1.4700 9.8868
v  13.5598 1.4700 7.3081
v  13.0409 1.4700 7.2672
v  13.0409 -1.4700 7.2672
v  13.5598 -1.4700 7.3081
v  13.6573 1.4700 4.4943
v  13.1374 1.4700 4.4837
v  13.1374 -1.4700 4.4837
v  13.6573 -1.4700 4.4943
v  13.6751 1.4700 1.5724
v  13.1552 1.4700 1.5640
v  13.1552 -1.4700 1.5640
v  13.6751 -1.4700 1.5724
v  13.7511 1.4700 -1.3261
v  13.2318 1.4700 -1.3584
v  13.2318 -1.4700 -1.3584
v  13.7511 -1.4700 -1.3261
v  14.0209 1.4700 -4.0663
v  13.5070 1.4700 -4.1536
v  13.5070 -1.4700 -4.1536
v  14.0209 -1.4700 -4.0663
# 160 vertices

vn 0.7046 0.6965 0.1361
vn 0.7495 0.6585 -0.0682
vn -0.6436 0.7631 0.0585
vn -0.6834 0.7180 -0.1320
vn -0.6436 -0.7631 0.0585
vn -0.6834 -0.7180 -0.1320
vn 0.7495 -0.6585 -0.0682
vn 0.7045 -0.6965 0.1361
vn 0.6437 0.6626 -0.3829
vn -0.5608 0.7578 0.3336
vn -0.5608 -0.7578 0.3336
vn 0.6437 -0.6626 -0.3829
vn 0.4592 0.6750 -0.5775
vn -0.4170 0.7423 0.5244
vn -0.4170 -0.7423 0.5244
vn 0.4592 -0.6750 -0.5775
vn 0.2970 0.6849 -0.6653
vn -0.2783 0.7308 0.6233
vn -0.2783 -0.7308 0.6233
vn 0.2970 -0.6849 -0.6653
vn 0.1739 0.6906 -0.7020
vn -0.1658 0.7244 0.6692
vn -0.1658 -0.7244 0.6692
vn 0.1739 -0.6906 -0.7020
vn 0.0761 0.6934 -0.7165
vn -0.0731 0.7213 0.6887
vn -0.0731 -0.7213 0.6887
vn 0.0761 -0.6934 -0.7165
vn -0.0103 0.6943 -0.7196
vn 0.0099 0.7204 0.6935
vn 0.0099 -0.7204 0.6935
vn -0.0103 -0.6943 -0.7196
vn -0.0963 0.6935 -0.7140
vn 0.0926 0.7212 0.6865
vn 0.0926 -0.7212 0.6865
vn -0.0963 -0.6935 -0.7140
vn -0.1922 0.6910 -0.6969
vn 0.1834 0.7240 0.6650
vn 0.1834 -0.7240 0.6650
vn -0.1922 -0.6910 -0.6969
vn -0.2875 0.6923 -0.6619
vn 0.2754 0.7225 0.6341
vn 0.2754 -0.7225 0.6341
vn -0.2875 -0.6923 -0.6619
vn -0.3692 0.6936 -0.6185
vn 0.3551 0.7211 0.5949
vn 0.3551 -0.7211 0.5949
vn -0.3692 -0.6936 -0.6186
vn -0.4562 0.6892 -0.5630
vn 0.4330 0.7260 0.5343
vn 0.4330 -0.7260 0.5343
vn -0.4562 -0.6892 -0.5629
vn -0.5508 0.6862 -0.4752
vn 0.5180 0.7294 0.4469
vn 0.5180 -0.7294 0.4469
vn -0.5508 -0.6862 -0.4752
vn -0.6306 0.6865 -0.3621
vn 0.5936 0.7290 0.3409
vn 0.5936 -0.7290 0.3409
vn -0.6306 -0.6865 -0.3621
vn -0.6801 0.6900 -0.2475
vn 0.6472 0.7250 0.2355
vn 0.6472 -0.7250 0.2355
vn -0.6801 -0.6900 -0.2475
vn -0.7022 0.6950 -0.1545
vn 0.6781 0.7196 0.1492
vn 0.6781 -0.7196 0.1492
vn -0.7022 -0.6950 -0.1545
vn -0.7087 0.6996 -0.0912
vn 0.6936 0.7148 0.0892
vn 0.6936 -0.7148 0.0892
vn -0.7087 -0.6996 -0.0912
vn -0.7089 0.7032 -0.0544
vn 0.7010 0.7111 0.0537
vn 0.7010 -0.7111 0.0537
vn -0.7089 -0.7032 -0.0544
vn -0.7075 0.7057 -0.0374
vn 0.7047 0.7085 0.0373
vn 0.7047 -0.7085 0.0373
vn -0.7074 -0.7058 -0.0374
vn -0.7188 0.6952 0.0051
vn 0.6946 0.7194 -0.0049
vn 0.6946 -0.7194 -0.0049
vn -0.7188 -0.6952 0.0051
vn -0.7215 0.6752 0.1536
vn 0.6556 0.7421 -0.1396
vn 0.6556 -0.7421 -0.1396
vn -0.7215 -0.6752 0.1536
vn -0.6347 0.6662 0.3916
vn 0.5598 0.7532 -0.3454
vn 0.5598 -0.7532 -0.3454
vn -0.6347 -0.6662 0.3916
vn -0.4444 0.6683 0.5966
vn 0.3947 0.7506 -0.5299
vn 0.3947 -0.7506 -0.5299
vn -0.4444 -0.6682 0.5967
vn -0.2368 0.6795 0.6944
vn 0.2182 0.7369 -0.6398
vn 0.2182 -0.7369 -0.6398
vn -0.2368 -0.6795 0.6944
vn -0.0909 0.6907 0.7174
vn 0.0867 0.7244 -0.6839
vn 0.0867 -0.7243 -0.6840
vn -0.0909 -0.6907 0.7174
vn -0.0095 0.6987 0.7154
vn 0.0093 0.7158 -0.6983
vn 0.0093 -0.7157 -0.6983
vn -0.0095 -0.6987 0.7154
vn 0.0259 0.7045 0.7093
vn -0.0257 0.7098 -0.7040
vn -0.0257 -0.7098 -0.7040
vn 0.0259 -0.7045 0.7093
vn 0.0272 0.7093 0.7044
vn -0.0274 0.7049 -0.7087
vn -0.0274 -0.7049 -0.7087
vn 0.0272 -0.7093 0.7044
vn -0.0011 0.7141 0.7001
vn 0.0011 0.7003 -0.7139
vn 0.0011 -0.7003 -0.7139
vn -0.0011 -0.7141 0.7001
vn 0.0168 0.6948 0.7190
vn -0.0162 0.7198 -0.6940
vn -0.0162 -0.7198 -0.6940
vn 0.0168 -0.6948 0.7190
vn 0.2150 0.6626 0.7174
vn -0.1874 0.7577 -0.6251
vn -0.1874 -0.7577 -0.6251
vn 0.2150 -0.6626 0.7174
vn 0.5003 0.6601 0.5603
vn -0.4321 0.7610 -0.4839
vn -0.4321 -0.7610 -0.4839
vn 0.5003 -0.6601 0.5603
vn 0.6630 0.6733 0.3272
vn -0.5989 0.7443 -0.2956
vn -0.5989 -0.7443 -0.2956
vn 0.6630 -0.6733 0.3272
vn 0.7098 0.6877 0.1525
vn -0.6707 0.7276 -0.1441
vn -0.6707 -0.7276 -0.1441
vn 0.7098 -0.6877 0.1525
vn 0.7145 0.6973 0.0564
vn -0.6948 0.7172 -0.0548
vn -0.6948 -0.7172 -0.0548
vn 0.7145 -0.6973 0.0564
vn 0.7101 0.7039 0.0145
vn -0.7037 0.7103 -0.0143
vn -0.7037 -0.7103 -0.0143
vn 0.7101 -0.7039 0.0145
vn 0.7047 0.7094 0.0114
vn -0.7093 0.7049 -0.0115
vn -0.7093 -0.7049 -0.0115
vn 0.7047 -0.7094 0.0114
vn 0.6975 0.7153 0.0434
vn -0.7136 0.6991 -0.0444
vn -0.7136 -0.6991 -0.0444
vn 0.6975 -0.7153 0.0434
vn 0.6808 0.7233 0.1157
vn -0.7120 0.6916 -0.1210
vn -0.7120 -0.6916 -0.1210
vn 0.6808 -0.7233 0.1157
# 160 vertex normals

o Gorilla_Enclosure
g Gorilla_Enclosure
usemtl wire_012012012
s 1
f 1//1 2//2 3//3 4//4 
s 2
f 4//4 3//3 5//5 6//6 
s 1
f 6//6 5//5 7//7 8//8 
s 2
f 8//8 7//7 2//2 1//1 
s 1
f 2//2 9//9 10//10 3//3 
s 2
f 3//3 10//10 11//11 5//5 
s 1
f 5//5 11//11 12//12 7//7 
s 2
f 7//7 12//12 9//9 2//2 
s 1
f 9//9 13//13 14//14 10//10 
s 2
f 10//10 14//14 15//15 11//11 
s 1
f 11//11 15//15 16//16 12//12 
s 2
f 12//12 16//16 13//13 9//9 
s 1
f 13//13 17//17 18//18 14//14 
s 2
f 14//14 18//18 19//19 15//15 
s 1
f 15//15 19//19 20//20 16//16 
s 2
f 16//16 20//20 17//17 13//13 
s 1
f 17//17 21//21 22//22 18//18 
s 2
f 18//18 22//22 23//23 19//19 
s 1
f 19//19 23//23 24//24 20//20 
s 2
f 20//20 24//24 21//21 17//17 
s 1
f 21//21 25//25 26//26 22//22 
s 2
f 22//22 26//26 27//27 23//23 
s 1
f 23//23 27//27 28//28 24//24 
s 2
f 24//24 28//28 25//25 21//21 
s 1
f 25//25 29//29 30//30 26//26 
s 2
f 26//26 30//30 31//31 27//27 
s 1
f 27//27 31//31 32//32 28//28 
s 2
f 28//28 32//32 29//29 25//25 
s 1
f 29//29 33//33 34//34 30//30 
s 2
f 30//30 34//34 35//35 31//31 
s 1
f 31//31 35//35 36//36 32//32 
s 2
f 32//32 36//36 33//33 29//29 
s 1
f 33//33 37//37 38//38 34//34 
s 2
f 34//34 38//38 39//39 35//35 
s 1
f 35//35 39//39 40//40 36//36 
s 2
f 36//36 40//40 37//37 33//33 
s 1
f 37//37 41//41 42//42 38//38 
s 2
f 38//38 42//42 43//43 39//39 
s 1
f 39//39 43//43 44//44 40//40 
s 2
f 40//40 44//44 41//41 37//37 
s 1
f 41//41 45//45 46//46 42//42 
s 2
f 42//42 46//46 47//47 43//43 
s 1
f 43//43 47//47 48//48 44//44 
s 2
f 44//44 48//48 45//45 41//41 
s 1
f 45//45 49//49 50//50 46//46 
s 2
f 46//46 50//50 51//51 47//47 
s 1
f 47//47 51//51 52//52 48//48 
s 2
f 48//48 52//52 49//49 45//45 
s 1
f 49//49 53//53 54//54 50//50 
s 2
f 50//50 54//54 55//55 51//51 
s 1
f 51//51 55//55 56//56 52//52 
s 2
f 52//52 56//56 53//53 49//49 
s 1
f 53//53 57//57 58//58 54//54 
s 2
f 54//54 58//58 59//59 55//55 
s 1
f 55//55 59//59 60//60 56//56 
s 2
f 56//56 60//60 57//57 53//53 
s 1
f 57//57 61//61 62//62 58//58 
s 2
f 58//58 62//62 63//63 59//59 
s 1
f 59//59 63//63 64//64 60//60 
s 2
f 60//60 64//64 61//61 57//57 
s 1
f 61//61 65//65 66//66 62//62 
s 2
f 62//62 66//66 67//67 63//63 
s 1
f 63//63 67//67 68//68 64//64 
s 2
f 64//64 68//68 65//65 61//61 
s 1
f 65//65 69//69 70//70 66//66 
s 2
f 66//66 70//70 71//71 67//67 
s 1
f 67//67 71//71 72//72 68//68 
s 2
f 68//68 72//72 69//69 65//65 
s 1
f 69//69 73//73 74//74 70//70 
s 2
f 70//70 74//74 75//75 71//71 
s 1
f 71//71 75//75 76//76 72//72 
s 2
f 72//72 76//76 73//73 69//69 
s 1
f 73//73 77//77 78//78 74//74 
s 2
f 74//74 78//78 79//79 75//75 
s 1
f 75//75 79//79 80//80 76//76 
s 2
f 76//76 80//80 77//77 73//73 
s 1
f 77//77 81//81 82//82 78//78 
s 2
f 78//78 82//82 83//83 79//79 
s 1
f 79//79 83//83 84//84 80//80 
s 2
f 80//80 84//84 81//81 77//77 
s 1
f 81//81 85//85 86//86 82//82 
s 2
f 82//82 86//86 87//87 83//83 
s 1
f 83//83 87//87 88//88 84//84 
s 2
f 84//84 88//88 85//85 81//81 
s 1
f 85//85 89//89 90//90 86//86 
s 2
f 86//86 90//90 91//91 87//87 
s 1
f 87//87 91//91 92//92 88//88 
s 2
f 88//88 92//92 89//89 85//85 
s 1
f 89//89 93//93 94//94 90//90 
s 2
f 90//90 94//94 95//95 91//91 
s 1
f 91//91 95//95 96//96 92//92 
s 2
f 92//92 96//96 93//93 89//89 
s 1
f 93//93 97//97 98//98 94//94 
s 2
f 94//94 98//98 99//99 95//95 
s 1
f 95//95 99//99 100//100 96//96 
s 2
f 96//96 100//100 97//97 93//93 
s 1
f 97//97 101//101 102//102 98//98 
s 2
f 98//98 102//102 103//103 99//99 
s 1
f 99//99 103//103 104//104 100//100 
s 2
f 100//100 104//104 101//101 97//97 
s 1
f 101//101 105//105 106//106 102//102 
s 2
f 102//102 106//106 107//107 103//103 
s 1
f 103//103 107//107 108//108 104//104 
s 2
f 104//104 108//108 105//105 101//101 
s 1
f 105//105 109//109 110//110 106//106 
s 2
f 106//106 110//110 111//111 107//107 
s 1
f 107//107 111//111 112//112 108//108 
s 2
f 108//108 112//112 109//109 105//105 
s 1
f 109//109 113//113 114//114 110//110 
s 2
f 110//110 114//114 115//115 111//111 
s 1
f 111//111 115//115 116//116 112//112 
s 2
f 112//112 116//116 113//113 109//109 
s 1
f 113//113 117//117 118//118 114//114 
s 2
f 114//114 118//118 119//119 115//115 
s 1
f 115//115 119//119 120//120 116//116 
s 2
f 116//116 120//120 117//117 113//113 
s 1
f 117//117 121//121 122//122 118//118 
s 2
f 118//118 122//122 123//123 119//119 
s 1
f 119//119 123//123 124//124 120//120 
s 2
f 120//120 124//124 121//121 117//117 
s 1
f 121//121 125//125 126//126 122//122 
s 2
f 122//122 126//126 127//127 123//123 
s 1
f 123//123 127//127 128//128 124//124 
s 2
f 124//124 128//128 125//125 121//121 
s 1
f 125//125 129//129 130//130 126//126 
s 2
f 126//126 130//130 131//131 127//127 
s 1
f 127//127 131//131 132//132 128//128 
s 2
f 128//128 132//132 129//129 125//125 
s 1
f 129//129 133//133 134//134 130//130 
s 2
f 130//130 134//134 135//135 131//131 
s 1
f 131//131 135//135 136//136 132//132 
s 2
f 132//132 136//136 133//133 129//129 
s 1
f 133//133 137//137 138//138 134//134 
s 2
f 134//134 138//138 139//139 135//135 
s 1
f 135//135 139//139 140//140 136//136 
s 2
f 136//136 140//140 137//137 133//133 
s 1
f 137//137 141//141 142//142 138//138 
s 2
f 138//138 142//142 143//143 139//139 
s 1
f 139//139 143//143 144//144 140//140 
s 2
f 140//140 144//144 141//141 137//137 
s 1
f 141//141 145//145 146//146 142//142 
s 2
f 142//142 146//146 147//147 143//143 
s 1
f 143//143 147//147 148//148 144//144 
s 2
f 144//144 148//148 145//145 141//141 
s 1
f 145//145 149//149 150//150 146//146 
s 2
f 146//146 150//150 151//151 147//147 
s 1
f 147//147 151//151 152//152 148//148 
s 2
f 148//148 152//152 149//149 145//145 
s 1
f 149//149 153//153 154//154 150//150 
s 2
f 150//150 154//154 155//155 151//151 
s 1
f 151//151 155//155 156//156 152//152 
s 2
f 152//152 156//156 153//153 149//149 
s 1
f 153//153 157//157 158//158 154//154 
s 2
f 154//154 158//158 159//159 155//155 
s 1
f 155//155 159//159 160//160 156//156 
s 2
f 156//156 160//160 157//157 153//153 
s 1
f 157//157 1//1 4//4 158//158 
s 2
f 158//158 4//4 6//6 159//159 
s 1
f 159//159 6//6 8//8 160//160 
s 2
f 160//160 8//8 1//1 157//157 
# 160 polygons

