# 3ds Max Wavefront OBJ Exporter v0.99 - (c)2007 guruware
# File Created: 05.10.2024 00:08:31

mtllib KangarooPLACEHOLDER.mtl

#
# object Box034
#

v  4.7204 30.0963 -25.1884
v  -6.6406 30.0963 -25.1884
v  -6.6406 44.0319 -22.1285
v  4.7204 44.0319 -22.1285
v  9.0071 23.8318 -25.1884
v  9.0071 46.8065 -19.9484
v  9.0071 42.0607 -18.3578
v  9.0071 24.8697 -21.4177
v  -10.9273 46.8065 -19.9484
v  -10.9273 23.8318 -25.1884
v  -10.9273 24.8697 -21.4177
v  -10.9273 42.0607 -18.3578
v  11.9030 21.9013 -1.0359
v  15.0893 24.8697 -18.8963
v  20.9289 21.9013 -1.0359
v  15.0893 42.0607 -15.8364
v  16.9219 2.3541 -2.9621
v  16.9219 2.3541 -5.1735
v  17.8547 2.3541 -5.1735
v  17.8547 2.3541 -2.9621
v  -14.2032 21.9013 -1.0359
v  -23.7853 21.9013 -1.0359
v  -17.6490 24.8697 -18.8963
v  -20.2203 2.3000 -5.2188
v  -20.2203 2.3000 -3.0278
v  -21.3274 2.3000 -3.0278
v  -21.3274 2.3000 -5.2188
v  -17.6490 42.0607 -15.8364
v  -14.2032 40.6728 0.1839
v  -14.2032 41.2218 3.9022
v  -6.6851 51.4910 8.6774
v  -14.2032 20.5421 -0.0320
v  -19.2240 18.5245 5.4566
v  -19.2240 18.5245 11.5909
v  -20.0555 4.9837 -2.7017
v  -20.0555 4.9837 -5.5449
v  -22.3238 18.5245 11.5909
v  -21.4922 4.9837 -2.7017
v  -22.3238 18.5245 5.4566
v  -21.4922 4.9837 -5.5449
v  -21.4922 4.9837 11.7465
v  -21.3274 2.3000 11.4204
v  -20.2203 2.3000 11.4204
v  -20.0555 4.9837 11.7465
v  3.5945 -0.4837 -65.7260
v  -5.8946 -0.4837 -65.7260
v  -3.8541 2.4983 -65.7260
v  1.5539 2.4983 -65.7260
v  -5.8946 -0.4837 -48.7719
v  3.5945 -0.4837 -48.7719
v  -3.8541 2.4983 -48.7719
v  1.5539 2.4983 -48.7719
v  11.9030 20.5421 0.6727
v  16.1231 18.5358 11.5784
v  16.1231 18.5358 5.5801
v  16.7934 4.9568 -5.4781
v  16.7934 4.9568 -2.6576
v  18.6535 18.5358 5.5801
v  17.9832 4.9568 -5.4781
v  18.6535 18.5358 11.5784
v  17.9832 4.9568 -2.6576
v  16.7934 4.9568 11.7420
v  16.9219 2.3541 11.4374
v  17.8547 2.3541 11.4374
v  17.9832 4.9568 11.7420
v  -4.4173 73.7709 17.1083
v  2.1172 73.7709 17.1083
v  2.1172 75.9961 11.1591
v  -4.4173 75.9961 11.1591
v  -4.9871 52.9494 -15.6665
v  2.6869 52.9494 -15.6665
v  4.3596 51.4910 8.6774
v  5.0570 64.8453 12.5576
v  -7.3571 64.8453 12.5576
v  5.0570 66.7480 6.9425
v  -7.3571 66.7480 6.9425
v  -7.3571 72.0046 9.3201
v  5.0570 72.0046 9.3201
v  -3.9718 61.0039 21.2368
v  1.6717 61.0039 21.2368
v  0.3352 65.0615 23.3056
v  -2.6354 65.0615 23.3056
v  -4.8231 63.4421 5.7304
v  2.4604 63.5030 5.8978
v  8.1014 49.0054 3.9871
v  11.1546 48.6568 -7.7256
v  11.9030 40.6728 0.1839
v  11.1546 44.6266 0.5493
v  11.1546 46.1412 -6.8824
v  -12.7115 49.1134 -6.6763
v  -9.6685 49.4621 5.0364
v  -12.7115 46.5978 -5.8331
v  -12.7115 45.0833 1.5986
v  11.5371 49.3083 3.9871
v  14.5903 48.9597 -7.7256
v  9.7195 26.4658 23.9068
v  11.8212 26.6061 21.3473
v  10.7506 28.5233 11.9098
v  12.0845 26.5458 24.0210
v  14.5903 46.4441 -6.8824
v  14.5903 44.9296 0.5493
v  -16.2110 49.5780 -6.6763
v  -13.1680 49.9266 5.0364
v  -16.2110 47.0624 -5.8331
v  -16.2110 45.5478 1.5986
v  -13.6781 25.5979 23.2998
v  -11.5835 25.4576 25.8593
v  -13.9924 25.5803 26.0345
v  -16.0870 25.7205 23.4750
v  -11.9792 31.6492 23.6061
v  -13.3803 29.6330 22.0231
v  -13.5905 31.8631 23.6061
v  -14.9916 29.8469 22.0231
v  11.6277 30.6862 20.1046
v  10.2218 32.7024 21.6875
v  13.2096 30.8257 20.1046
v  11.8038 32.8419 21.6875
v  4.5003 71.7162 10.4525
v  4.5003 67.2682 12.4639
v  2.6738 74.1962 11.5951
v  2.6738 72.8136 15.2913
v  -6.8005 67.2682 12.4639
v  -6.8005 71.7162 10.4525
v  -4.9740 72.8136 15.2913
v  -4.9740 74.1962 11.5951
v  20.9289 40.6728 0.1839
v  -23.7853 40.6728 0.1839
v  11.9030 20.5421 3.9022
v  -14.2032 20.5421 3.9022
v  11.9030 43.9790 3.9022
v  8.4521 80.3757 13.7318
v  8.4521 84.0431 12.0733
v  6.9461 86.0879 13.0154
v  6.9461 84.9480 16.0629
v  -10.7522 80.3757 13.7318
v  -9.2463 84.9480 16.0629
v  -9.2463 86.0879 13.0154
v  -10.7522 84.0431 12.0733
v  11.1546 44.6266 4.2662
v  11.2447 44.6346 4.3189
v  10.9320 44.9459 4.5168
v  11.1546 44.6266 4.3198
# 142 vertices

vn 0.2228 0.3632 -0.9047
vn -0.2227 0.3642 -0.9043
vn -0.1230 0.3837 -0.9152
vn 0.1230 0.3837 -0.9152
vn 0.8556 -0.4155 -0.3088
vn 0.6742 0.4721 -0.5679
vn 0.9268 0.2104 -0.3111
vn 0.9468 0.0142 -0.3215
vn -0.6829 0.4649 -0.5635
vn -0.8574 -0.4133 -0.3066
vn -0.9416 0.0300 -0.3353
vn -0.9244 0.2292 -0.3050
vn 0.5454 -0.7561 -0.3617
vn 0.6005 -0.4929 -0.6297
vn 0.7976 -0.5839 -0.1515
vn 0.5426 0.7069 -0.4538
vn -0.6895 -0.7243 -0.0000
vn -0.5673 -0.6203 -0.5417
vn 0.5673 -0.6203 -0.5417
vn 0.6895 -0.7243 -0.0000
vn -0.5442 -0.7026 -0.4586
vn -0.7881 -0.5782 -0.2112
vn -0.5855 -0.4920 -0.6442
vn 0.5635 -0.6246 -0.5406
vn 0.6851 -0.7285 -0.0000
vn -0.6851 -0.7285 -0.0000
vn -0.5635 -0.6246 -0.5406
vn -0.5315 0.7058 -0.4684
vn -0.5003 0.8651 -0.0363
vn -0.8562 0.3232 0.4031
vn -0.5975 -0.1054 0.7949
vn 0.0848 -0.9224 -0.3768
vn 0.6138 -0.6886 -0.3862
vn 0.5684 -0.2458 0.7852
vn 0.9803 0.0109 0.1972
vn 0.6349 0.1890 -0.7491
vn -0.5882 -0.1532 0.7941
vn -0.9803 0.0109 0.1972
vn -0.8666 -0.3329 -0.3717
vn -0.6349 0.1890 -0.7491
vn -0.5894 0.5293 0.6103
vn -0.5635 -0.6246 0.5406
vn 0.5635 -0.6246 0.5406
vn 0.5894 0.5293 0.6103
vn 0.7374 -0.3889 -0.5522
vn -0.7374 -0.3889 -0.5522
vn -0.3676 0.6970 -0.6156
vn 0.3676 0.6970 -0.6156
vn -0.7910 -0.5626 0.2405
vn 0.7902 -0.5646 0.2385
vn -0.4660 0.7684 -0.4386
vn 0.4637 0.7680 -0.4417
vn -0.2463 -0.9204 -0.3035
vn -0.5796 -0.2461 0.7769
vn -0.6392 -0.6581 -0.3979
vn -0.6342 0.1962 -0.7479
vn -0.9801 0.0244 0.1969
vn 0.8225 -0.4226 -0.3807
vn 0.6342 0.1962 -0.7479
vn 0.5823 -0.1575 0.7976
vn 0.9801 0.0244 0.1969
vn -0.5861 0.5335 0.6098
vn -0.5673 -0.6203 0.5417
vn 0.5673 -0.6203 0.5417
vn 0.5861 0.5335 0.6098
vn -0.5549 0.6363 0.5359
vn 0.5549 0.6363 0.5359
vn 0.4306 0.8573 -0.2823
vn -0.4306 0.8573 -0.2823
vn -0.2128 0.7783 -0.5907
vn 0.2011 0.7801 -0.5925
vn 0.5907 -0.1740 0.7879
vn 0.9095 -0.2537 0.3292
vn -0.9092 -0.2531 0.3306
vn 0.7230 0.1833 -0.6660
vn -0.7262 0.1935 -0.6597
vn -0.7763 0.5023 -0.3809
vn 0.7763 0.5023 -0.3809
vn -0.5445 -0.7542 0.3671
vn 0.5445 -0.7542 0.3671
vn 0.4215 0.0831 0.9030
vn -0.4215 0.0831 0.9030
vn -0.4399 0.3775 -0.8148
vn 0.4296 0.3449 -0.8345
vn 0.4600 0.7424 0.4870
vn 0.1971 0.8457 -0.4959
vn 0.4969 0.8308 -0.2506
vn 0.6651 -0.7463 -0.0264
vn 0.7547 -0.5284 -0.3889
vn -0.1378 0.8478 -0.5121
vn -0.4447 0.7364 0.5099
vn -0.7898 -0.4920 -0.3662
vn -0.6819 -0.7312 0.0163
vn 0.3951 0.8477 0.3539
vn 0.6151 0.4992 -0.6103
vn -0.7474 -0.4817 0.4575
vn -0.7283 0.6522 -0.2104
vn 0.1706 -0.0313 0.9848
vn 0.5889 -0.4997 0.6352
vn 0.6343 -0.5692 -0.5232
vn 0.9307 -0.3395 -0.1360
vn -0.6056 0.5131 -0.6083
vn -0.3744 0.8546 0.3599
vn -0.6460 -0.5568 -0.5222
vn -0.9395 -0.3156 -0.1329
vn 0.2560 -0.7321 -0.6313
vn 0.7440 -0.4911 0.4531
vn -0.3432 -0.4712 0.8125
vn -0.8745 -0.4513 -0.1778
vn 0.8147 0.2721 0.5120
vn 0.5263 -0.4911 -0.6942
vn -0.4400 0.5208 0.7316
vn -0.9229 -0.1443 -0.3569
vn -0.5347 -0.4873 -0.6904
vn -0.8045 0.2917 0.5173
vn 0.1541 -0.9870 0.0463
vn 0.4492 0.5164 0.7291
vn 0.9874 0.1576 -0.0160
vn 0.9328 0.1453 0.3299
vn 0.5317 0.8396 -0.1111
vn 0.8359 0.2068 0.5084
vn -0.9328 0.1453 0.3299
vn -0.9874 0.1576 -0.0160
vn -0.8359 0.2068 0.5084
vn -0.5317 0.8396 -0.1111
vn 0.6861 0.6490 0.3287
vn -0.6866 0.6529 0.3198
vn 0.5774 -0.5774 0.5774
vn -0.5774 -0.5774 0.5774
vn 0.8262 0.5485 0.1285
vn 0.9471 -0.2161 0.2374
vn 0.7323 0.4510 -0.5102
vn -0.1224 0.9537 -0.2748
vn 0.0486 0.6388 0.7678
vn -0.9471 -0.2161 0.2374
vn -0.0486 0.6388 0.7678
vn 0.1224 0.9537 -0.2748
vn -0.7323 0.4510 -0.5102
vn -0.3079 -0.7110 0.6322
vn 0.6741 0.2310 0.7016
vn 0.7466 0.4236 0.5130
vn -0.0525 0.4976 -0.8658
# 142 vertex normals

vt 0.0000 0.0000 0.0000
vt 1.0000 0.0000 0.0000
vt 1.0000 1.0000 0.0000
vt 0.0000 1.0000 0.0000
vt 1.0000 0.5421 0.0000
vt 0.8732 0.0000 0.0000
vt 0.1041 0.0000 0.0000
vt 0.0000 0.3571 0.0000
vt 1.0000 0.3443 0.0000
vt 1.0000 0.1268 0.0000
vt 0.0000 0.1041 0.0000
vt 1.0000 0.2048 0.0000
vt 0.0000 0.0988 0.0000
vt 0.0000 0.6640 0.0000
vt 0.0000 0.6480 0.0000
vt 0.0000 0.6143 0.0000
vt 0.9966 0.6478 0.0000
vt 1.0000 0.6640 0.0000
vt 0.0000 0.5421 0.0000
vt 1.0000 0.6143 0.0000
vt 1.0000 0.6480 0.0000
# 21 texture coords

o Box034
g Box034
usemtl wire_160148043
s 32
f 1/1/1 2/2/2 3/3/3 4/4/4 
s 16
f 5/2/5 6/3/6 7/3/7 8/2/8 
s 64
f 9/4/9 10/1/10 11/1/11 12/4/12 
s off
f 13/1/13 8/2/8 14/2/14 15/1/15 
f 8/2/8 7/3/7 16/3/16 14/2/14 
f 17/4/17 18/1/18 19/1/19 20/4/20 
f 11/1/11 21/2/21 22/2/22 23/1/23 
f 24/2/24 25/3/25 26/3/26 27/2/27 
f 12/4/12 11/1/11 23/1/23 28/4/28 
s 64
f 29/3/29 30/5/30 31/3/31 
f 32/6/32 21/2/21 11/1/11 10/1/10 
s off
f 33/2/33 34/3/34 35/3/35 36/2/36 
f 34/3/34 37/3/37 38/3/38 35/3/35 
f 37/3/37 39/2/39 40/2/40 38/3/38 
f 39/2/39 33/2/33 36/2/36 40/2/40 
f 35/3/35 25/3/25 24/2/24 36/2/36 
f 41/3/41 42/3/42 43/3/43 44/3/44 
f 40/2/40 27/2/27 26/3/26 38/3/38 
f 36/2/36 24/2/24 27/2/27 40/2/40 
f 26/3/26 25/3/25 43/3/43 42/3/42 
f 25/3/25 35/3/35 44/3/44 43/3/43 
f 35/3/35 38/3/38 41/3/41 44/3/44 
f 38/3/38 26/3/26 42/3/42 41/3/41 
s 32
f 45/1/45 46/2/46 47/2/47 48/1/48 
f 9/3/9 6/4/6 4/4/4 3/3/3 
s 2
f 5/1/5 10/2/10 49/2/49 50/1/50 
s off
f 10/2/10 2/2/2 51/2/51 49/2/49 
f 2/2/2 1/1/1 52/1/52 51/2/51 
f 1/1/1 5/1/5 50/1/50 52/1/52 
f 50/1/50 49/2/49 46/2/46 45/1/45 
f 49/2/49 51/2/51 47/2/47 46/2/46 
f 51/2/51 52/1/52 48/1/48 47/2/47 
f 52/1/52 50/1/50 45/1/45 48/1/48 
s 16
f 13/1/13 53/7/53 5/2/5 8/2/8 
s off
f 54/4/54 55/1/55 56/1/56 57/4/57 
f 55/1/55 58/1/58 59/1/59 56/1/56 
f 58/1/58 60/4/60 61/4/61 59/1/59 
f 60/4/60 54/4/54 57/4/57 61/4/61 
f 56/1/56 18/1/18 17/4/17 57/4/57 
f 59/1/59 19/1/19 18/1/18 56/1/56 
f 61/4/61 20/4/20 19/1/19 59/1/59 
f 62/4/62 63/4/63 64/4/64 65/4/65 
f 17/4/17 20/4/20 64/4/64 63/4/63 
f 20/4/20 61/4/61 65/4/65 64/4/64 
f 61/4/61 57/4/57 62/4/62 65/4/65 
f 57/4/57 17/4/17 63/4/63 62/4/62 
s 8
f 66/1/66 67/2/67 68/2/68 69/1/69 
s 32
f 6/3/6 9/4/9 70/4/70 71/3/71 
s off
f 31/1/31 72/2/72 73/2/73 74/1/74 
s 4
f 75/2/75 76/1/76 77/1/77 78/2/78 
s off
f 79/1/79 80/2/80 81/2/81 82/1/82 
f 78/2/78 77/1/77 69/1/69 68/2/68 
s 1
f 74/1/74 73/2/73 80/2/80 79/1/79 
f 73/2/73 67/2/67 81/2/81 80/2/80 
f 67/2/67 66/1/66 82/1/82 81/2/81 
f 66/1/66 74/1/74 79/1/79 82/1/82 
s 64
f 31/1/31 76/1/76 83/8/83 
s 16
f 84/9/84 75/2/75 72/2/72 
s 17
f 6/3/6 72/4/72 85/4/85 86/3/86 
f 72/4/72 87/4/87 88/4/88 85/4/85 
s 1
f 87/4/87 7/3/7 89/3/89 88/4/88 
f 7/3/7 6/3/6 86/3/86 89/3/89 
s 64
f 31/3/31 9/4/9 90/4/90 91/3/91 
f 9/4/9 12/4/12 92/4/92 90/4/90 
f 12/4/12 29/3/29 93/3/93 92/4/92 
f 29/3/29 31/3/31 91/3/91 93/3/93 
s off
f 86/3/86 85/4/85 94/4/94 95/3/95 
f 96/4/96 97/4/97 98/4/98 99/4/99 
f 88/4/88 89/3/89 100/3/100 101/4/101 
f 89/3/89 86/3/86 95/3/95 100/3/100 
f 91/3/91 90/4/90 102/4/102 103/3/103 
f 90/4/90 92/4/92 104/4/104 102/4/102 
f 92/4/92 93/3/93 105/3/105 104/4/104 
f 106/3/106 107/3/107 108/3/108 109/3/109 
f 93/3/93 91/3/91 110/3/110 111/3/111 
f 91/3/91 103/3/103 112/3/112 110/3/110 
f 103/3/103 105/3/105 113/3/113 112/3/112 
f 105/3/105 93/3/93 111/3/111 113/3/113 
f 85/4/85 88/4/88 114/4/114 115/4/115 
f 88/4/88 101/4/101 116/4/116 114/4/114 
f 101/4/101 94/4/94 117/4/117 116/4/116 
f 94/4/94 85/4/85 115/4/115 117/4/117 
s 2
f 73/2/73 78/2/78 118/2/118 119/2/119 
f 78/2/78 68/2/68 120/2/120 118/2/118 
s 18
f 68/2/68 67/2/67 121/2/121 120/2/120 
f 67/2/67 73/2/73 119/2/119 121/2/121 
s 2
f 77/1/77 74/1/74 122/1/122 123/1/123 
s 66
f 74/1/74 66/1/66 124/1/124 122/1/122 
f 66/1/66 69/1/69 125/1/125 124/1/124 
s 2
f 69/1/69 77/1/77 123/1/123 125/1/125 
s 4
f 71/3/71 70/4/70 83/8/83 84/9/84 
s 16
f 15/1/15 14/2/14 16/3/16 126/4/126 
s 64
f 23/1/23 22/2/22 127/3/127 28/4/28 
s 16
f 95/3/95 94/4/94 101/4/101 100/3/100 
s 64
f 103/3/103 102/4/102 104/4/104 105/3/105 
s off
f 7/3/7 87/4/87 126/4/126 16/3/16 
f 29/3/29 12/4/12 28/4/28 127/3/127 
s 32
f 10/2/10 9/3/9 3/3/3 2/2/2 
f 6/4/6 5/1/5 1/1/1 4/4/4 
s 16
f 6/3/6 71/3/71 84/9/84 72/2/72 
s 64
f 83/8/83 70/4/70 9/4/9 31/1/31 
s 16
f 75/2/75 78/2/78 73/2/73 72/2/72 
s 64
f 76/1/76 31/1/31 74/1/74 77/1/77 
s 2
f 32/10/32 10/3/10 5/4/5 53/11/53 128/1/128 129/2/129 
s off
f 34/3/34 30/3/30 29/3/29 127/3/127 37/3/37 
s 64
f 22/2/22 39/2/39 37/3/37 127/3/127 
s off
f 22/2/22 21/2/21 32/2/32 33/2/33 39/2/39 
f 34/3/34 33/2/33 32/2/32 129/12/129 30/3/30 
f 15/1/15 58/1/58 55/1/55 53/1/53 13/1/13 
s 16
f 58/1/58 15/1/15 126/4/126 60/4/60 
s off
f 87/4/87 130/4/130 54/4/54 60/4/60 126/4/126 
f 128/13/128 53/1/53 55/1/55 54/4/54 130/4/130 
s 16
f 131/2/131 132/2/132 133/2/133 134/2/134 
s 64
f 135/1/135 136/1/136 137/1/137 138/1/138 
s 4
f 76/1/76 75/2/75 84/9/84 83/8/83 
s 16
f 139/14/139 140/15/140 130/16/130 87/4/87 72/4/72 141/14/141 
s 8
f 142/17/142 141/18/141 72/3/72 31/4/31 30/19/30 129/1/129 128/2/128 130/20/130 140/21/140 
s off
f 115/4/115 114/4/114 97/4/97 96/4/96 
f 114/4/114 116/4/116 98/4/98 97/4/97 
f 116/4/116 117/4/117 99/4/99 98/4/98 
f 117/4/117 115/4/115 96/4/96 99/4/99 
f 111/3/111 110/3/110 107/3/107 106/3/106 
f 110/3/110 112/3/112 108/3/108 107/3/107 
f 112/3/112 113/3/113 109/3/109 108/3/108 
f 113/3/113 111/3/111 106/3/106 109/3/109 
f 119/2/119 118/2/118 132/2/132 131/2/131 
f 118/2/118 120/2/120 133/2/133 132/2/132 
f 120/2/120 121/2/121 134/2/134 133/2/133 
f 121/2/121 119/2/119 131/2/131 134/2/134 
f 123/1/123 122/1/122 135/1/135 138/1/138 
f 122/1/122 124/1/124 136/1/136 135/1/135 
f 124/1/124 125/1/125 137/1/137 136/1/136 
f 125/1/125 123/1/123 138/1/138 137/1/137 
# 130 polygons - 3 triangles

