# 3ds Max Wavefront OBJ Exporter v0.99 - (c)2007 guruware
# File Created: 05.10.2024 00:12:45

mtllib LionPLACEHOLDER.mtl

#
# object GorillaPLACEHOLDER
#

v  0.7194 0.0000 0.7653
v  -3.2635 -0.3529 0.9478
v  -3.3536 -0.3529 -0.6585
v  0.6292 0.0000 -0.8410
v  0.1533 2.3196 2.0686
v  -0.0082 2.3196 -2.1395
v  -2.4224 2.3196 -1.9412
v  -2.2609 2.3196 2.2669
v  1.4442 -0.1085 0.3434
v  1.3967 -0.1085 -0.5029
v  1.3967 0.5350 -0.5029
v  1.4442 0.5350 0.3434
v  -0.0082 -0.8801 -2.1395
v  -2.4224 -0.8801 -1.9412
v  -3.2635 0.8685 0.9478
v  -3.3536 0.8685 -0.6585
v  -2.2609 -0.8801 2.2669
v  0.1533 -0.8801 2.0686
v  -4.7382 -3.8487 -1.5192
v  -4.3099 -3.8487 -1.5471
v  -4.2432 -3.8487 -0.5228
v  -4.6716 -3.8487 -0.4949
v  -4.2551 -1.5141 -0.7053
v  -4.2980 -1.5141 -1.3646
v  -4.7263 -1.5141 -1.3367
v  -4.6834 -1.5141 -0.6774
v  -4.2432 -3.2766 -0.5228
v  -4.6716 -3.2766 -0.4949
v  -3.6811 -3.8487 -0.5594
v  -3.7478 -3.8487 -1.5836
v  -3.7478 -3.2766 -1.5836
v  -3.6811 -3.2766 -0.5594
v  -4.3099 -3.2766 -1.5471
v  -4.7382 -3.2766 -1.5192
v  -4.2551 -3.2766 -0.7053
v  -4.6834 -3.2766 -0.6774
v  -4.7263 -3.2766 -1.3367
v  -4.2980 -3.2766 -1.3646
v  -4.2551 -1.9632 -0.7053
v  -4.6834 -1.9632 -0.6774
v  -4.2980 -1.9632 -1.3646
v  -4.7263 -1.9632 -1.3367
v  -4.5686 -3.8487 0.9340
v  -4.1402 -3.8487 0.9062
v  -4.0735 -3.8487 1.9304
v  -4.5019 -3.8487 1.9583
v  -4.0854 -1.5447 1.7479
v  -4.1283 -1.5447 1.0886
v  -4.5567 -1.5447 1.1165
v  -4.5138 -1.5447 1.7758
v  -4.0735 -3.2766 1.9304
v  -4.5019 -3.2766 1.9583
v  -3.5115 -3.8487 1.8938
v  -3.5781 -3.8487 0.8696
v  -3.5781 -3.2766 0.8696
v  -3.5115 -3.2766 1.8938
v  -4.1402 -3.2766 0.9062
v  -4.5686 -3.2766 0.9340
v  -4.0854 -3.2766 1.7479
v  -4.5138 -3.2766 1.7758
v  -4.5567 -3.2766 1.1165
v  -4.1283 -3.2766 1.0886
v  -4.0854 -1.9937 1.7479
v  -4.5138 -1.9937 1.7758
v  -4.1283 -1.9937 1.0886
v  -4.5567 -1.9937 1.1165
v  0.0291 -3.8487 0.8554
v  0.4574 -3.8487 0.8275
v  0.5241 -3.8487 1.8518
v  0.0958 -3.8487 1.8797
v  0.5122 0.0724 1.6693
v  0.4693 0.0724 1.0100
v  0.0410 0.0724 1.0379
v  0.0839 0.0724 1.6972
v  0.5241 -3.2766 1.8518
v  0.0958 -3.2766 1.8797
v  1.0862 -3.8487 1.8152
v  1.0195 -3.8487 0.7909
v  1.0195 -3.2766 0.7909
v  1.0862 -3.2766 1.8152
v  0.4574 -3.2766 0.8275
v  0.0291 -3.2766 0.8554
v  0.5122 -3.2766 1.6693
v  0.0839 -3.2766 1.6972
v  0.0410 -3.2766 1.0379
v  0.4693 -3.2766 1.0100
v  0.5122 -0.3766 1.6693
v  0.0839 -0.3766 1.6972
v  0.4693 -0.3766 1.0100
v  0.0410 -0.3766 1.0379
v  -1.6685 -1.9559 1.3040
v  -1.8011 -1.9559 -1.0582
v  0.2640 -1.3317 -1.1741
v  0.3966 -1.3317 1.1881
v  0.2351 0.0280 -1.1725
v  -2.3806 -0.4760 -1.0256
v  -2.2480 -0.4760 1.3366
v  0.3677 0.0280 1.1897
v  -7.3182 -3.7000 0.0546
v  -7.2755 -3.7000 0.8159
v  -7.3083 -3.2548 0.8177
v  -7.3510 -3.2548 0.0564
v  -4.7475 -0.4831 1.4769
v  -4.6457 -1.8645 1.4712
v  -4.7783 -1.8645 -0.8910
v  -4.8801 -0.4831 -0.8853
v  -0.2088 -3.8487 -1.9010
v  0.2195 -3.8487 -1.9289
v  0.2862 -3.8487 -0.9047
v  -0.1422 -3.8487 -0.8768
v  0.2743 0.0849 -1.0871
v  0.2314 0.0849 -1.7464
v  -0.1970 0.0849 -1.7186
v  -0.1541 0.0849 -1.0593
v  0.2862 -3.2766 -0.9047
v  -0.1422 -3.2766 -0.8768
v  0.8482 -3.8487 -0.9412
v  0.7816 -3.8487 -1.9655
v  0.7816 -3.2766 -1.9655
v  0.8482 -3.2766 -0.9412
v  0.2195 -3.2766 -1.9289
v  -0.2088 -3.2766 -1.9010
v  0.2743 -3.2766 -1.0871
v  -0.1541 -3.2766 -1.0593
v  -0.1970 -3.2766 -1.7186
v  0.2314 -3.2766 -1.7464
v  0.2743 -0.3641 -1.0871
v  -0.1541 -0.3641 -1.0593
v  0.2314 -0.3641 -1.7464
v  -0.1970 -0.3641 -1.7186
v  0.7194 1.2214 0.7653
v  0.7194 1.8488 1.1199
v  0.7194 0.0615 1.1199
v  0.6292 1.2214 -0.8410
v  0.6292 0.0615 -1.2307
v  0.6292 1.8488 -1.2307
v  -3.0574 1.4959 -1.0297
v  -3.0574 -0.2913 -1.0297
v  -2.9672 -0.2913 1.3209
v  -2.9672 1.4959 1.3209
v  -4.7504 -1.0537 0.6741
v  -4.7931 -1.0537 -0.0872
v  -4.7832 -0.6085 0.6759
v  -4.8259 -0.6085 -0.0854
# 144 vertices

vn 0.4670 -0.8163 0.3400
vn -0.6722 -0.6817 0.2889
vn -0.6970 -0.6710 -0.2528
vn 0.4302 -0.8314 -0.3518
vn 0.4551 0.6311 0.6281
vn 0.3787 0.6258 -0.6819
vn -0.4645 0.6399 -0.6122
vn -0.3957 0.6314 0.6669
vn 0.6510 -0.6559 0.3821
vn 0.6041 -0.6559 -0.4526
vn 0.8198 0.3081 -0.4827
vn 0.8687 0.3081 0.3879
vn 0.4060 -0.8200 -0.4034
vn -0.4119 -0.8026 -0.4314
vn -0.9419 0.1453 0.3028
vn -0.9556 0.1645 -0.2447
vn -0.3676 -0.7743 0.5152
vn 0.4469 -0.8335 0.3250
vn -0.6136 -0.5774 -0.5386
vn -0.0459 -0.7071 -0.7056
vn 0.0459 -0.7071 0.7056
vn -0.5386 -0.5774 0.6136
vn 0.6136 0.5774 0.5386
vn 0.5386 0.5774 -0.6136
vn -0.6136 0.5774 -0.5386
vn -0.5386 0.5774 0.6136
vn 0.0459 0.7071 0.7056
vn 0.6136 -0.5774 0.5386
vn 0.5386 -0.5774 -0.6136
vn -0.0459 0.7071 -0.7056
vn 0.3205 0.9045 0.2813
vn -0.8830 0.3015 0.3596
vn -0.9222 0.3015 -0.2421
vn 0.2813 0.9045 -0.3205
vn 0.7515 0.0000 0.6597
vn -0.6597 0.0000 0.7515
vn 0.6597 0.0000 -0.7515
vn -0.7515 0.0000 -0.6597
vn -0.6135 0.5775 -0.5386
vn 0.2813 0.9045 -0.3204
vn 0.1344 -0.7337 0.6661
vn 0.0590 -0.7337 -0.6769
vn 0.6172 -0.4732 -0.6286
vn 0.6837 -0.4732 0.5556
vn 0.4843 0.6395 -0.5971
vn -0.1067 0.6815 -0.7240
vn -0.0250 0.6815 0.7313
vn 0.5481 0.6395 0.5392
vn -0.3126 -0.7872 -0.5316
vn -0.2511 -0.7872 0.5633
vn -0.6977 0.2634 0.6662
vn -0.7679 0.2634 -0.5839
vn -0.5678 0.5566 0.6065
vn -0.5284 -0.5867 0.6136
vn -0.5938 -0.5867 -0.5506
vn -0.6321 0.5566 -0.5391
vn -0.6135 -0.5774 -0.5387
vn -0.5386 -0.5773 0.6137
vn -0.5386 0.5773 0.6137
vn -0.6136 0.5773 -0.5386
vn -0.2813 0.9045 0.3204
vn -0.6136 -0.5773 -0.5386
vn 0.9825 0.1577 0.0991
vn 0.9113 0.3730 0.1743
vn 0.8472 -0.5090 0.1523
vn 0.9774 0.1360 -0.1620
vn 0.8469 -0.5015 -0.1767
vn 0.9002 0.3661 -0.2356
vn -0.8985 0.3402 -0.2774
vn -0.5973 -0.6922 -0.4051
vn -0.5980 -0.6880 0.4111
vn -0.8862 0.3345 0.3205
vn -0.7655 -0.3197 0.5584
vn -0.8232 -0.3197 -0.4692
vn -0.9728 0.1243 0.1956
vn -0.9886 0.1243 -0.0855
# 76 vertex normals

vt 1.0000 0.0000 0.0000
vt 1.0000 1.0000 0.0000
vt 0.0000 1.0000 0.0000
vt 0.0000 0.0000 0.0000
vt 0.6685 1.0000 0.0000
vt 0.6685 0.0000 0.0000
vt 0.3315 0.0000 0.0000
vt 0.3315 1.0000 0.0000
vt 1.0000 0.4912 0.0000
vt 0.0000 0.4912 0.0000
vt 0.4912 0.0000 0.0000
vt 0.4912 1.0000 0.0000
vt 0.5088 0.0000 0.0000
vt 0.5088 1.0000 0.0000
vt 0.8728 1.0000 0.0000
vt 0.1272 1.0000 0.0000
vt 0.3315 0.8728 0.0000
vt 0.3315 0.1272 0.0000
# 18 texture coords

o GorillaPLACEHOLDER
g GorillaPLACEHOLDER
usemtl wire_103064016
s 2
f 1/1/1 2/2/2 3/3/3 4/4/4 
s 4
f 5/4/5 6/1/6 7/2/7 8/3/8 
s 8
f 9/4/9 10/1/10 11/2/11 12/3/12 
s 16
f 13/4/13 14/1/14 7/2/7 6/3/6 
s 32
f 3/4/3 2/1/2 15/2/15 16/3/16 
s 64
f 17/4/17 18/1/18 5/2/5 8/3/8 
s 2
f 19/2/19 20/5/20 21/6/21 22/1/22 
s 4
f 23/7/23 24/8/24 25/3/25 26/4/26 
s 8
f 21/7/21 27/8/27 28/3/26 22/4/22 
s 16
f 29/4/28 30/1/29 31/2/24 32/3/23 
s 32
f 20/6/20 33/5/30 31/3/24 30/4/29 
s 2
f 30/3/29 29/4/28 21/6/21 20/5/20 
s 8
f 29/1/28 32/2/23 27/8/27 21/7/21 
s 32
f 19/1/19 34/2/25 33/5/30 20/6/20 
s 4
f 28/4/26 27/7/27 35/7/31 36/4/32 
f 33/8/30 34/3/25 37/3/33 38/8/34 
s off
f 35/7/31 39/7/35 40/4/36 36/4/32 
f 38/8/34 41/8/37 39/7/35 35/7/31 
f 37/3/33 42/3/38 41/8/37 38/8/34 
s 64
f 36/4/32 40/4/36 42/3/38 37/3/33 
s off
f 23/7/23 26/4/26 40/4/36 39/7/35 
f 24/8/24 23/7/23 39/7/35 41/8/37 
f 25/3/25 24/8/24 41/8/37 42/3/38 
s 64
f 26/4/26 25/3/25 42/3/38 40/4/36 
s 2
f 43/2/19 44/5/20 45/6/21 46/1/22 
s 4
f 47/7/23 48/8/24 49/3/25 50/4/26 
s 8
f 45/7/21 51/8/27 52/3/26 46/4/22 
s 16
f 53/4/28 54/1/29 55/2/24 56/3/23 
s 32
f 44/6/20 57/5/30 55/3/24 54/4/29 
s 2
f 54/3/29 53/4/28 45/6/21 44/5/20 
s 8
f 53/1/28 56/2/23 51/8/27 45/7/21 
s 32
f 43/1/19 58/2/25 57/5/30 44/6/20 
s 4
f 52/4/26 51/7/27 59/7/31 60/4/32 
f 57/8/30 58/3/25 61/3/33 62/8/34 
s off
f 59/7/31 63/7/35 64/4/36 60/4/32 
f 62/8/34 65/8/37 63/7/35 59/7/31 
f 61/3/33 66/3/38 65/8/37 62/8/34 
s 64
f 60/4/32 64/4/36 66/3/38 61/3/33 
s off
f 47/7/23 50/4/26 64/4/36 63/7/35 
f 48/8/24 47/7/23 63/7/35 65/8/37 
f 49/3/25 48/8/24 65/8/37 66/3/38 
s 64
f 50/4/26 49/3/25 66/3/38 64/4/36 
s 2
f 67/2/19 68/5/20 69/6/21 70/1/22 
s 4
f 71/7/23 72/8/24 73/3/25 74/4/26 
s 8
f 69/7/21 75/8/27 76/3/26 70/4/22 
s 16
f 77/4/28 78/1/29 79/2/24 80/3/23 
s 32
f 68/6/20 81/5/30 79/3/24 78/4/29 
s 2
f 78/3/29 77/4/28 69/6/21 68/5/20 
s 8
f 77/1/28 80/2/23 75/8/27 69/7/21 
s 32
f 67/1/19 82/2/39 81/5/30 68/6/20 
s 4
f 76/4/26 75/7/27 83/7/31 84/4/32 
f 81/8/30 82/3/39 85/3/19 86/8/40 
s off
f 83/7/31 87/7/35 88/4/36 84/4/32 
f 86/8/40 89/8/37 87/7/35 83/7/31 
f 85/3/19 90/3/38 89/8/37 86/8/40 
s 64
f 84/4/32 88/4/36 90/3/38 85/3/19 
s off
f 71/7/23 74/4/26 88/4/36 87/7/35 
f 72/8/24 71/7/23 87/7/35 89/8/37 
f 73/3/25 72/8/24 89/8/37 90/3/38 
s 64
f 74/4/26 73/3/25 90/3/38 88/4/36 
s 2
f 91/9/41 92/10/42 93/4/43 94/1/44 
s 4
f 95/1/45 96/9/46 97/10/47 98/4/48 
s 8
f 94/4/44 93/1/43 95/2/45 98/3/48 
s 16
f 92/11/42 96/12/46 95/3/45 93/4/43 
s 32
f 99/4/49 100/1/50 101/2/51 102/3/52 
s 64
f 91/13/41 97/14/47 103/3/53 104/4/54 
s 2
f 104/2/54 105/3/55 92/10/42 91/9/41 
s 4
f 106/2/56 103/3/53 97/10/47 96/9/46 
s 16
f 105/1/55 106/2/56 96/12/46 92/11/42 
s 64
f 94/1/44 98/2/48 97/14/47 91/13/41 
s 2
f 107/2/57 108/5/20 109/6/21 110/1/58 
s 4
f 111/7/23 112/8/24 113/3/25 114/4/26 
s 8
f 109/7/21 115/8/27 116/3/59 110/4/58 
s 16
f 117/4/28 118/1/29 119/2/24 120/3/23 
s 32
f 108/6/20 121/5/30 119/3/24 118/4/29 
s 2
f 118/3/29 117/4/28 109/6/21 108/5/20 
s 8
f 117/1/28 120/2/23 115/8/27 109/7/21 
s 32
f 107/1/57 122/2/60 121/5/30 108/6/20 
s 4
f 116/4/59 115/7/27 123/7/28 124/4/61 
f 121/8/30 122/3/60 125/3/62 126/8/40 
s off
f 123/7/28 127/7/35 128/4/36 124/4/61 
f 126/8/40 129/8/37 127/7/35 123/7/28 
f 125/3/62 130/3/38 129/8/37 126/8/40 
s 64
f 124/4/61 128/4/36 130/3/38 125/3/62 
s off
f 111/7/23 114/4/26 128/4/36 127/7/35 
f 112/8/24 111/7/23 127/7/35 129/8/37 
f 113/3/25 112/8/24 129/8/37 130/3/38 
s 64
f 114/4/26 113/3/25 130/3/38 128/4/36 
s 8
f 1/1/1 131/2/63 132/2/64 133/1/65 
f 134/3/66 4/4/4 135/4/67 136/3/68 
s 32
f 3/1/3 16/2/16 137/2/69 138/1/70 
f 15/3/15 2/4/2 139/4/71 140/3/72 
s 2
f 1/4/1 4/1/4 10/1/10 9/4/9 
s off
f 4/1/4 134/2/66 11/2/11 10/1/10 
f 134/2/66 131/3/63 12/3/12 11/2/11 
f 131/3/63 1/4/1 9/4/9 12/3/12 
s 32
f 105/4/55 104/1/54 141/1/73 142/4/74 
f 104/1/54 103/2/53 143/2/75 141/1/73 
f 103/2/53 106/3/56 144/3/76 143/2/75 
f 106/3/56 105/4/55 142/4/74 144/3/76 
s off
f 142/4/74 141/1/73 100/1/50 99/4/49 
f 141/1/73 143/2/75 101/2/51 100/1/50 
f 143/2/75 144/3/76 102/3/52 101/2/51 
f 144/3/76 142/4/74 99/4/49 102/3/52 
s 64
f 36/15/32 37/16/33 34/3/25 19/4/19 22/1/22 28/2/26 
s 4
f 38/17/34 35/18/31 27/7/27 32/1/23 31/2/24 33/8/30 
s 64
f 60/15/32 61/16/33 58/3/25 43/4/19 46/1/22 52/2/26 
s 4
f 62/17/34 59/18/31 51/7/27 56/1/23 55/2/24 57/8/30 
s 64
f 84/15/32 85/16/19 82/3/39 67/4/19 70/1/22 76/2/26 
s 4
f 86/17/40 83/18/31 75/7/27 80/1/23 79/2/24 81/8/30 
s 64
f 124/15/61 125/16/62 122/3/60 107/4/57 110/1/58 116/2/59 
s 4
f 126/17/40 123/18/28 115/7/27 120/1/23 119/2/24 121/8/30 
s off
f 2/4/2 1/1/1 133/1/65 139/4/71 
s 8
f 131/4/63 134/1/66 136/1/68 132/4/64 
s off
f 4/4/4 3/1/3 138/1/70 135/4/67 
s 32
f 16/2/16 15/3/15 140/3/72 137/2/69 
s off
f 139/4/71 133/1/65 18/1/18 17/4/17 
f 133/1/65 132/2/64 5/2/5 18/1/18 
f 132/4/64 136/1/68 6/1/6 5/4/5 
f 136/3/68 135/4/67 13/4/13 6/3/6 
f 135/4/67 138/1/70 14/1/14 13/4/13 
f 138/1/70 137/2/69 7/2/7 14/1/14 
f 137/2/69 140/3/72 8/3/8 7/2/7 
f 140/3/72 139/4/71 17/4/17 8/3/8 
# 124 polygons

