# 3ds Max Wavefront OBJ Exporter v0.99 - (c)2007 guruware
# File Created: 25.09.2024 13:41:30

mtllib Path_Placeholder.mtl

#
# object Line001
#

v  35.0012 0.1470 5.5082
v  30.2338 0.1470 5.1966
v  30.0247 0.1470 7.6482
v  34.8408 0.1470 7.9630
v  30.0247 -0.1470 7.6482
v  34.8408 -0.1470 7.9630
v  30.2338 -0.1470 5.1966
v  35.0012 -0.1470 5.5082
v  20.0551 0.1470 4.1248
v  23.2666 0.1470 6.9365
v  23.2666 -0.1470 6.9365
v  20.0551 -0.1470 4.1248
v  21.7242 0.1470 11.0216
v  24.2468 0.1470 10.9868
v  24.2468 -0.1470 10.9868
v  21.7242 -0.1470 11.0216
v  20.8965 0.1470 14.9074
v  23.1914 0.1470 15.9416
v  23.1914 -0.1470 15.9416
v  20.8965 -0.1470 14.9074
v  18.4074 0.1470 18.2724
v  20.2019 0.1470 19.9830
v  20.2019 -0.1470 19.9830
v  18.4074 -0.1470 18.2724
v  14.5048 0.1470 21.4589
v  15.9673 0.1470 23.4407
v  15.9673 -0.1470 23.4407
v  14.5048 -0.1470 21.4589
v  9.6235 0.1470 24.7041
v  10.9895 0.1470 26.7500
v  10.9895 -0.1470 26.7500
v  9.6235 -0.1470 24.7041
v  4.2565 0.1470 28.3028
v  5.7123 0.1470 30.2884
v  5.7123 -0.1470 30.2884
v  4.2565 -0.1470 28.3028
v  -0.9948 0.1470 32.5026
v  0.4709 0.1470 34.4804
v  0.4709 -0.1470 34.4804
v  -0.9948 -0.1470 32.5026
v  -6.2932 0.1470 36.1344
v  -5.1705 0.1470 38.3473
v  -5.1705 -0.1470 38.3473
v  -6.2932 -0.1470 36.1344
v  -12.0997 0.1470 38.1758
v  -11.5437 0.1470 40.5880
v  -11.5437 -0.1470 40.5880
v  -12.0997 -0.1470 38.1758
v  -18.2342 0.1470 38.8841
v  -18.1816 0.1470 41.3544
v  -18.1816 -0.1470 41.3544
v  -18.2342 -0.1470 38.8841
v  -24.3766 0.1470 38.4382
v  -24.7579 0.1470 40.8770
v  -24.7579 -0.1470 40.8770
v  -24.3766 -0.1470 38.4382
v  -30.1904 0.1470 37.0295
v  -30.9622 0.1470 39.3736
v  -30.9622 -0.1470 39.3736
v  -30.1904 -0.1470 37.0295
v  -35.3324 0.1470 34.8651
v  -36.4910 0.1470 37.0464
v  -36.4910 -0.1470 37.0464
v  -35.3324 -0.1470 34.8651
v  -39.3233 0.1470 32.2608
v  -41.1768 0.1470 33.9888
v  -41.1768 -0.1470 33.9888
v  -39.3233 -0.1470 32.2608
v  -41.6558 0.1470 28.0719
v  -44.0565 0.1470 28.8171
v  -44.0565 -0.1470 28.8171
v  -41.6558 -0.1470 28.0719
v  -42.2953 0.1470 21.2774
v  -44.7659 0.1470 21.2808
v  -44.7659 -0.1470 21.2808
v  -42.2953 -0.1470 21.2774
v  -41.5349 0.1470 12.9536
v  -43.9727 0.1470 12.5983
v  -43.9727 -0.1470 12.5983
v  -41.5349 -0.1470 12.9536
v  -39.8103 0.1470 4.3749
v  -42.2019 0.1470 3.7897
v  -42.2019 -0.1470 3.7897
v  -39.8103 -0.1470 4.3749
v  -37.6032 0.1470 -3.2547
v  -39.9327 0.1470 -4.0544
v  -39.9327 -0.1470 -4.0544
v  -37.6032 -0.1470 -3.2547
v  -35.4374 0.1470 -8.6809
v  -37.6021 0.1470 -9.8934
v  -37.6021 -0.1470 -9.8934
v  -35.4374 -0.1470 -8.6809
v  -34.0337 0.1470 -10.5608
v  -35.4500 0.1470 -12.7757
v  -35.4500 -0.1470 -12.7757
v  -34.0337 -0.1470 -10.5608
v  -32.5787 0.1470 -10.8686
v  -33.0304 0.1470 -13.2875
v  -33.0304 -0.1470 -13.2875
v  -32.5787 -0.1470 -10.8686
v  -29.6843 0.1470 -11.3382
v  -30.0532 0.1470 -13.7705
v  -30.0532 -0.1470 -13.7705
v  -29.6843 -0.1470 -11.3382
v  -25.9357 0.1470 -11.8671
v  -26.2660 0.1470 -14.3049
v  -26.2660 -0.1470 -14.3049
v  -25.9357 -0.1470 -11.8671
v  -21.5127 0.1470 -12.4418
v  -21.8219 0.1470 -14.8823
v  -21.8219 -0.1470 -14.8823
v  -21.5127 -0.1470 -12.4418
v  -16.5859 0.1470 -13.0503
v  -16.8831 0.1470 -15.4923
v  -16.8831 -0.1470 -15.4923
v  -16.5859 -0.1470 -13.0503
v  -11.3234 0.1470 -13.6814
v  -11.6143 0.1470 -16.1241
v  -11.6143 -0.1470 -16.1241
v  -11.3234 -0.1470 -13.6814
v  -6.2061 0.1470 -14.2867
v  -5.8674 0.1470 -16.8039
v  -5.8674 -0.1470 -16.8039
v  -6.2061 -0.1470 -14.2867
v  -3.0587 0.1470 -13.0106
v  -2.2560 0.1470 -15.3396
v  -2.2560 -0.1470 -15.3396
v  -3.0587 -0.1470 -13.0106
v  0.6527 0.1470 -11.9490
v  1.0873 0.1470 -14.3834
v  1.0873 -0.1470 -14.3834
v  0.6527 -0.1470 -11.9490
v  4.7616 0.1470 -11.6415
v  4.6251 0.1470 -14.1186
v  4.6251 -0.1470 -14.1186
v  4.7616 -0.1470 -11.6415
v  9.3371 0.1470 -12.4970
v  8.5840 0.1470 -14.8588
v  8.5840 -0.1470 -14.8588
v  9.3371 -0.1470 -12.4970
v  14.4436 0.1470 -14.8545
v  13.1955 0.1470 -16.9878
v  13.1955 -0.1470 -16.9878
v  14.4436 -0.1470 -14.8545
v  20.2081 0.1470 -19.0243
v  18.6285 0.1470 -20.9179
v  18.6285 -0.1470 -20.9179
v  20.2081 -0.1470 -19.0243
v  24.5148 0.1470 -23.1528
v  27.2950 0.1470 -29.2255
v  27.2950 -0.1470 -29.2255
v  24.5148 -0.1470 -23.1528
v  23.0605 0.1470 4.7296
v  25.5171 0.1470 4.8578
v  25.5171 -0.1470 4.8578
v  23.0605 -0.1470 4.7296
v  10.0150 0.1470 24.6988
v  13.0555 0.1470 32.6689
v  15.3539 0.1470 31.7921
v  12.3134 0.1470 23.8220
v  15.3539 -0.1470 31.7921
v  12.3134 -0.1470 23.8220
v  13.0555 -0.1470 32.6689
v  10.0150 -0.1470 24.6988
v  -30.6453 0.1470 -12.0622
v  -37.5139 0.1470 -19.8294
v  -39.3567 0.1470 -18.1998
v  -32.4881 0.1470 -10.4326
v  -39.3567 -0.1470 -18.1998
v  -32.4881 -0.1470 -10.4326
v  -37.5139 -0.1470 -19.8294
v  -30.6453 -0.1470 -12.0622
v  -2.8766 0.1470 14.4922
v  -31.7355 0.1470 20.8125
v  -30.5840 0.1470 23.0787
v  -2.3503 0.1470 16.8953
v  -30.5840 -0.1470 23.0787
v  -2.3503 -0.1470 16.8953
v  -31.7355 -0.1470 20.8125
v  -2.8766 -0.1470 14.4922
v  -38.1041 0.1470 26.4511
v  -36.0675 0.1470 27.9336
v  -36.0675 -0.1470 27.9336
v  -38.1041 -0.1470 26.4511
v  -42.4611 0.1470 36.4136
v  -40.2072 0.1470 37.3994
v  -40.2072 -0.1470 37.3994
v  -42.4611 -0.1470 36.4136
v  0.4958 0.1470 33.6927
v  -4.7666 0.1470 -15.5674
v  -7.2127 0.1470 -15.3061
v  -1.9503 0.1470 33.9540
v  -7.2127 -0.1470 -15.3061
v  -1.9503 -0.1470 33.9540
v  -4.7666 -0.1470 -15.5674
v  0.4958 -0.1470 33.6927
v  -31.6423 0.1470 -10.1364
v  -4.8551 0.1470 -2.7450
v  -4.2007 0.1470 -5.1164
v  -30.9880 0.1470 -12.5078
v  -4.2007 -0.1470 -5.1164
v  -30.9880 -0.1470 -12.5078
v  -4.8551 -0.1470 -2.7450
v  -31.6423 -0.1470 -10.1364
v  25.8317 0.1470 4.2774
v  -3.4504 0.1470 3.5364
v  -3.5126 0.1470 5.9956
v  25.7695 0.1470 6.7366
v  -3.5126 -0.1470 5.9956
v  25.7695 -0.1470 6.7366
v  -3.4504 -0.1470 3.5364
v  25.8317 -0.1470 4.2774
# 212 vertices

vn 0.6138 0.5774 -0.5384
vn 0.0597 0.7116 -0.7000
vn -0.0605 0.7027 0.7089
vn 0.5385 0.5774 0.6138
vn -0.0605 -0.7027 0.7089
vn 0.5385 -0.5774 0.6138
vn 0.0597 -0.7116 -0.7000
vn 0.6138 -0.5774 -0.5384
vn -0.6226 0.5615 -0.5451
vn 0.2537 0.9414 0.2221
vn 0.2537 -0.9414 0.2221
vn -0.6226 -0.5615 -0.5451
vn -0.6492 0.7606 0.0089
vn 0.7508 0.6605 -0.0104
vn 0.7508 -0.6605 -0.0104
vn -0.6492 -0.7606 0.0089
vn -0.5946 0.7581 -0.2679
vn 0.6830 0.6624 0.3078
vn 0.6830 -0.6624 0.3078
vn -0.5946 -0.7581 -0.2679
vn -0.4899 0.7362 -0.4670
vn 0.5306 0.6802 0.5058
vn 0.5306 -0.6802 0.5058
vn -0.4899 -0.7362 -0.4670
vn -0.4131 0.7183 -0.5598
vn 0.4262 0.6963 0.5775
vn 0.4262 -0.6963 0.5775
vn -0.4131 -0.7183 -0.5598
vn -0.3929 0.7067 -0.5884
vn 0.3924 0.7075 0.5877
vn 0.3924 -0.7075 0.5877
vn -0.3929 -0.7067 -0.5884
vn -0.4235 0.6978 -0.5777
vn 0.4124 0.7167 0.5624
vn 0.4124 -0.7167 0.5624
vn -0.4235 -0.6978 -0.5777
vn -0.4159 0.7155 -0.5613
vn 0.4258 0.6989 0.5746
vn 0.4258 -0.6989 0.5746
vn -0.4159 -0.7155 -0.5613
vn -0.3054 0.7378 -0.6020
vn 0.3322 0.6788 0.6549
vn 0.3322 -0.6788 0.6549
vn -0.3054 -0.7378 -0.6020
vn -0.1528 0.7330 -0.6628
vn 0.1641 0.6829 0.7119
vn 0.1641 -0.6829 0.7119
vn -0.1528 -0.7330 -0.6628
vn -0.0145 0.7288 -0.6846
vn 0.0154 0.6866 0.7268
vn 0.0154 -0.6866 0.7268
vn -0.0145 -0.7288 -0.6846
vn 0.1062 0.7262 -0.6793
vn -0.1120 0.6890 0.7161
vn -0.1120 -0.6890 0.7161
vn 0.1062 -0.7262 -0.6793
vn 0.2152 0.7256 -0.6536
vn -0.2265 0.6895 0.6880
vn -0.2265 -0.6895 0.6880
vn 0.2152 -0.7256 -0.6536
vn 0.3217 0.7279 -0.6056
vn -0.3407 0.6875 0.6414
vn -0.3407 -0.6875 0.6414
vn 0.3217 -0.7279 -0.6056
vn 0.4708 0.7653 -0.4389
vn -0.5515 0.6569 0.5141
vn -0.5515 -0.6569 0.5141
vn 0.4708 -0.7653 -0.4389
vn 0.6246 0.7565 -0.1939
vn -0.7144 0.6636 0.2218
vn -0.7144 -0.6636 0.2218
vn 0.6246 -0.7565 -0.1939
vn 0.6850 0.7285 -0.0009
vn -0.7268 0.6869 0.0010
vn -0.7268 -0.6869 0.0010
vn 0.6850 -0.7285 -0.0009
vn 0.6873 0.7194 0.1002
vn -0.7113 0.6952 -0.1037
vn -0.7113 -0.6952 -0.1037
vn 0.6873 -0.7194 0.1002
vn 0.6775 0.7166 0.1658
vn -0.6957 0.6979 -0.1702
vn -0.6957 -0.6979 -0.1702
vn 0.6775 -0.7166 0.1658
vn 0.6580 0.7184 0.2259
vn -0.6789 0.6962 -0.2331
vn -0.6789 -0.6962 -0.2331
vn 0.6580 -0.7184 0.2259
vn 0.5890 0.7377 0.3299
vn -0.6406 0.6789 -0.3588
vn -0.6406 -0.6789 -0.3588
vn 0.5890 -0.7377 0.3299
vn 0.3263 0.7958 0.5102
vn -0.4159 0.6357 -0.6504
vn -0.4159 -0.6357 -0.6504
vn 0.3263 -0.7958 0.5102
vn 0.1288 0.7125 0.6897
vn -0.1308 0.7018 -0.7003
vn -0.1308 -0.7018 -0.7003
vn 0.1288 -0.7125 0.6897
vn 0.1057 0.7094 0.6968
vn -0.1064 0.7048 -0.7014
vn -0.1064 -0.7048 -0.7014
vn 0.1057 -0.7094 0.6968
vn 0.0948 0.7083 0.6995
vn -0.0951 0.7059 -0.7019
vn -0.0951 -0.7059 -0.7019
vn 0.0948 -0.7083 0.6995
vn 0.0888 0.7078 0.7008
vn -0.0890 0.7064 -0.7022
vn -0.0890 -0.7064 -0.7022
vn 0.0888 -0.7078 0.7008
vn 0.0854 0.7075 0.7015
vn -0.0855 0.7067 -0.7023
vn -0.0855 -0.7067 -0.7023
vn 0.0854 -0.7075 0.7015
vn 0.0836 0.7073 0.7019
vn -0.0836 0.7069 -0.7023
vn -0.0836 -0.7069 -0.7023
vn 0.0836 -0.7073 0.7019
vn -0.0855 0.7676 0.6352
vn 0.1007 0.6552 -0.7487
vn 0.1007 -0.6552 -0.7487
vn -0.0855 -0.7676 0.6352
vn -0.2342 0.6953 0.6795
vn 0.2264 0.7193 -0.6568
vn 0.2264 -0.7193 -0.6568
vn -0.2342 -0.6953 0.6795
vn -0.1280 0.6849 0.7173
vn 0.1200 0.7307 -0.6720
vn 0.1200 -0.7307 -0.6720
vn -0.1280 -0.6849 0.7173
vn 0.0404 0.6791 0.7329
vn -0.0372 0.7374 -0.6744
vn -0.0372 -0.7374 -0.6744
vn 0.0404 -0.6791 0.7329
vn 0.2227 0.6803 0.6983
vn -0.2056 0.7360 -0.6450
vn -0.2056 -0.7360 -0.6450
vn 0.2227 -0.6803 0.6983
vn 0.3674 0.6860 0.6280
vn -0.3454 0.7296 -0.5903
vn -0.3454 -0.7296 -0.5903
vn 0.3674 -0.6860 0.6280
vn 0.4625 0.6919 0.5544
vn -0.4426 0.7230 -0.5305
vn -0.4426 -0.7230 -0.5305
vn 0.4625 -0.6919 0.5544
vn -0.0853 0.9788 0.1862
vn 0.3487 0.5461 -0.7617
vn 0.3487 -0.5461 -0.7617
vn -0.0853 -0.9788 0.1863
vn -0.6067 0.5774 0.5463
vn 0.5465 0.5774 0.6066
vn 0.5465 -0.5774 0.6066
vn -0.6066 -0.5775 0.5464
vn -0.7452 0.5774 -0.3336
vn -0.3336 0.5774 0.7452
vn 0.7452 0.5774 0.3336
vn 0.3336 0.5774 -0.7452
vn 0.7452 -0.5774 0.3336
vn 0.3336 -0.5774 -0.7452
vn -0.3336 -0.5774 0.7452
vn -0.7452 -0.5774 -0.3336
vn 0.8149 0.5775 0.0499
vn 0.0500 0.5774 -0.8150
vn -0.8150 0.5774 -0.0500
vn -0.0501 0.5774 0.8149
vn -0.8150 -0.5774 -0.0500
vn -0.0501 -0.5774 0.8149
vn 0.0500 -0.5774 -0.8150
vn 0.8149 -0.5775 0.0499
vn 0.4405 0.5774 -0.6875
vn -0.3425 0.6546 -0.6740
vn 0.2899 0.7685 0.5704
vn 0.6875 0.5774 0.4404
vn 0.2899 -0.7685 0.5704
vn 0.6875 -0.5774 0.4404
vn -0.3425 -0.6546 -0.6740
vn 0.4405 -0.5774 -0.6875
vn -0.6062 0.6617 -0.4412
vn 0.5264 0.7590 0.3832
vn 0.5264 -0.7590 0.3832
vn -0.6062 -0.6617 -0.4412
vn -0.7603 0.5774 0.2976
vn 0.2975 0.5774 0.7603
vn 0.2975 -0.5774 0.7603
vn -0.7603 -0.5774 0.2976
vn 0.6354 0.5774 0.5128
vn 0.5128 0.5774 -0.6353
vn -0.6354 0.5774 -0.5127
vn -0.5128 0.5774 0.6354
vn -0.6354 -0.5774 -0.5127
vn -0.5128 -0.5774 0.6354
vn 0.5128 -0.5774 -0.6353
vn 0.6354 -0.5774 0.5128
vn -0.7102 0.5773 0.4030
vn 0.4030 0.5774 0.7101
vn 0.7101 0.5774 -0.4029
vn -0.4030 0.5775 -0.7100
vn 0.7101 -0.5774 -0.4029
vn -0.4030 -0.5775 -0.7100
vn 0.4030 -0.5774 0.7101
vn -0.7102 -0.5773 0.4030
vn 0.5918 0.5774 -0.5626
vn -0.5626 0.5774 -0.5918
vn -0.5918 0.5774 0.5626
vn 0.5626 0.5774 0.5918
vn -0.5918 -0.5774 0.5626
vn 0.5626 -0.5774 0.5918
vn -0.5626 -0.5774 -0.5918
vn 0.5918 -0.5774 -0.5626
# 212 vertex normals

o Line001
g Line001
usemtl wire_103064016
s 1
f 1//1 2//2 3//3 4//4 
s 2
f 4//4 3//3 5//5 6//6 
s 1
f 6//6 5//5 7//7 8//8 
s 2
f 8//8 7//7 2//2 1//1 
s 1
f 2//2 9//9 10//10 3//3 
s 2
f 3//3 10//10 11//11 5//5 
s 1
f 5//5 11//11 12//12 7//7 
s 2
f 7//7 12//12 9//9 2//2 
s 1
f 9//9 13//13 14//14 10//10 
s 4
f 10//10 14//14 15//15 11//11 
s 1
f 11//11 15//15 16//16 12//12 
s 4
f 12//12 16//16 13//13 9//9 
s 1
f 13//13 17//17 18//18 14//14 
s 4
f 14//14 18//18 19//19 15//15 
s 1
f 15//15 19//19 20//20 16//16 
s 4
f 16//16 20//20 17//17 13//13 
s 1
f 17//17 21//21 22//22 18//18 
s 4
f 18//18 22//22 23//23 19//19 
s 1
f 19//19 23//23 24//24 20//20 
s 4
f 20//20 24//24 21//21 17//17 
s 1
f 21//21 25//25 26//26 22//22 
s 4
f 22//22 26//26 27//27 23//23 
s 1
f 23//23 27//27 28//28 24//24 
s 4
f 24//24 28//28 25//25 21//21 
s 1
f 25//25 29//29 30//30 26//26 
s 4
f 26//26 30//30 31//31 27//27 
s 1
f 27//27 31//31 32//32 28//28 
s 4
f 28//28 32//32 29//29 25//25 
s 1
f 29//29 33//33 34//34 30//30 
s 4
f 30//30 34//34 35//35 31//31 
s 1
f 31//31 35//35 36//36 32//32 
s 4
f 32//32 36//36 33//33 29//29 
s 1
f 33//33 37//37 38//38 34//34 
s 4
f 34//34 38//38 39//39 35//35 
s 1
f 35//35 39//39 40//40 36//36 
s 4
f 36//36 40//40 37//37 33//33 
s 1
f 37//37 41//41 42//42 38//38 
s 4
f 38//38 42//42 43//43 39//39 
s 1
f 39//39 43//43 44//44 40//40 
s 4
f 40//40 44//44 41//41 37//37 
s 1
f 41//41 45//45 46//46 42//42 
s 4
f 42//42 46//46 47//47 43//43 
s 1
f 43//43 47//47 48//48 44//44 
s 4
f 44//44 48//48 45//45 41//41 
s 1
f 45//45 49//49 50//50 46//46 
s 4
f 46//46 50//50 51//51 47//47 
s 1
f 47//47 51//51 52//52 48//48 
s 4
f 48//48 52//52 49//49 45//45 
s 1
f 49//49 53//53 54//54 50//50 
s 4
f 50//50 54//54 55//55 51//51 
s 1
f 51//51 55//55 56//56 52//52 
s 4
f 52//52 56//56 53//53 49//49 
s 1
f 53//53 57//57 58//58 54//54 
s 4
f 54//54 58//58 59//59 55//55 
s 1
f 55//55 59//59 60//60 56//56 
s 4
f 56//56 60//60 57//57 53//53 
s 1
f 57//57 61//61 62//62 58//58 
s 4
f 58//58 62//62 63//63 59//59 
s 1
f 59//59 63//63 64//64 60//60 
s 4
f 60//60 64//64 61//61 57//57 
s 1
f 61//61 65//65 66//66 62//62 
s 4
f 62//62 66//66 67//67 63//63 
s 1
f 63//63 67//67 68//68 64//64 
s 4
f 64//64 68//68 65//65 61//61 
s 1
f 65//65 69//69 70//70 66//66 
s 4
f 66//66 70//70 71//71 67//67 
s 1
f 67//67 71//71 72//72 68//68 
s 4
f 68//68 72//72 69//69 65//65 
s 1
f 69//69 73//73 74//74 70//70 
s 4
f 70//70 74//74 75//75 71//71 
s 1
f 71//71 75//75 76//76 72//72 
s 4
f 72//72 76//76 73//73 69//69 
s 1
f 73//73 77//77 78//78 74//74 
s 4
f 74//74 78//78 79//79 75//75 
s 1
f 75//75 79//79 80//80 76//76 
s 4
f 76//76 80//80 77//77 73//73 
s 1
f 77//77 81//81 82//82 78//78 
s 4
f 78//78 82//82 83//83 79//79 
s 1
f 79//79 83//83 84//84 80//80 
s 4
f 80//80 84//84 81//81 77//77 
s 1
f 81//81 85//85 86//86 82//82 
s 4
f 82//82 86//86 87//87 83//83 
s 1
f 83//83 87//87 88//88 84//84 
s 4
f 84//84 88//88 85//85 81//81 
s 1
f 85//85 89//89 90//90 86//86 
s 4
f 86//86 90//90 91//91 87//87 
s 1
f 87//87 91//91 92//92 88//88 
s 4
f 88//88 92//92 89//89 85//85 
s 1
f 89//89 93//93 94//94 90//90 
s 4
f 90//90 94//94 95//95 91//91 
s 1
f 91//91 95//95 96//96 92//92 
s 4
f 92//92 96//96 93//93 89//89 
s 1
f 93//93 97//97 98//98 94//94 
s 2
f 94//94 98//98 99//99 95//95 
s 1
f 95//95 99//99 100//100 96//96 
s 2
f 96//96 100//100 97//97 93//93 
s 1
f 97//97 101//101 102//102 98//98 
s 2
f 98//98 102//102 103//103 99//99 
s 1
f 99//99 103//103 104//104 100//100 
s 2
f 100//100 104//104 101//101 97//97 
s 1
f 101//101 105//105 106//106 102//102 
s 2
f 102//102 106//106 107//107 103//103 
s 1
f 103//103 107//107 108//108 104//104 
s 2
f 104//104 108//108 105//105 101//101 
s 1
f 105//105 109//109 110//110 106//106 
s 2
f 106//106 110//110 111//111 107//107 
s 1
f 107//107 111//111 112//112 108//108 
s 2
f 108//108 112//112 109//109 105//105 
s 1
f 109//109 113//113 114//114 110//110 
s 2
f 110//110 114//114 115//115 111//111 
s 1
f 111//111 115//115 116//116 112//112 
s 2
f 112//112 116//116 113//113 109//109 
s 1
f 113//113 117//117 118//118 114//114 
s 2
f 114//114 118//118 119//119 115//115 
s 1
f 115//115 119//119 120//120 116//116 
s 2
f 116//116 120//120 117//117 113//113 
s 1
f 117//117 121//121 122//122 118//118 
s 2
f 118//118 122//122 123//123 119//119 
s 1
f 119//119 123//123 124//124 120//120 
s 2
f 120//120 124//124 121//121 117//117 
s 1
f 121//121 125//125 126//126 122//122 
s 2
f 122//122 126//126 127//127 123//123 
s 1
f 123//123 127//127 128//128 124//124 
s 2
f 124//124 128//128 125//125 121//121 
s 1
f 125//125 129//129 130//130 126//126 
s 2
f 126//126 130//130 131//131 127//127 
s 1
f 127//127 131//131 132//132 128//128 
s 2
f 128//128 132//132 129//129 125//125 
s 1
f 129//129 133//133 134//134 130//130 
s 2
f 130//130 134//134 135//135 131//131 
s 1
f 131//131 135//135 136//136 132//132 
s 2
f 132//132 136//136 133//133 129//129 
s 1
f 133//133 137//137 138//138 134//134 
s 2
f 134//134 138//138 139//139 135//135 
s 1
f 135//135 139//139 140//140 136//136 
s 2
f 136//136 140//140 137//137 133//133 
s 1
f 137//137 141//141 142//142 138//138 
s 2
f 138//138 142//142 143//143 139//139 
s 1
f 139//139 143//143 144//144 140//140 
s 2
f 140//140 144//144 141//141 137//137 
s 1
f 141//141 145//145 146//146 142//142 
s 2
f 142//142 146//146 147//147 143//143 
s 1
f 143//143 147//147 148//148 144//144 
s 2
f 144//144 148//148 145//145 141//141 
s 1
f 145//145 149//149 150//150 146//146 
s 2
f 146//146 150//150 151//151 147//147 
s 1
f 147//147 151//151 152//152 148//148 
s 2
f 148//148 152//152 149//149 145//145 
s 1
f 149//149 153//153 154//154 150//150 
s 4
f 150//150 154//154 155//155 151//151 
s 1
f 151//151 155//155 156//156 152//152 
s 4
f 152//152 156//156 153//153 149//149 
f 4//4 6//6 8//8 1//1 
s 2
f 155//155 154//154 153//153 156//156 
s 1
f 157//157 158//158 159//159 160//160 
s 2
f 160//160 159//159 161//161 162//162 
s 1
f 162//162 161//161 163//163 164//164 
s 2
f 164//164 163//163 158//158 157//157 
s 4
f 160//160 162//162 164//164 157//157 
f 161//161 159//159 158//158 163//163 
s 1
f 165//165 166//166 167//167 168//168 
s 2
f 168//168 167//167 169//169 170//170 
s 1
f 170//170 169//169 171//171 172//172 
s 2
f 172//172 171//171 166//166 165//165 
s 4
f 168//168 170//170 172//172 165//165 
f 169//169 167//167 166//166 171//171 
s 1
f 173//173 174//174 175//175 176//176 
s 2
f 176//176 175//175 177//177 178//178 
s 1
f 178//178 177//177 179//179 180//180 
s 2
f 180//180 179//179 174//174 173//173 
s 1
f 174//174 181//181 182//182 175//175 
s 2
f 175//175 182//182 183//183 177//177 
s 1
f 177//177 183//183 184//184 179//179 
s 2
f 179//179 184//184 181//181 174//174 
s 1
f 181//181 185//185 186//186 182//182 
s 2
f 182//182 186//186 187//187 183//183 
s 1
f 183//183 187//187 188//188 184//184 
s 2
f 184//184 188//188 185//185 181//181 
s 4
f 176//176 178//178 180//180 173//173 
f 187//187 186//186 185//185 188//188 
s 1
f 189//189 190//190 191//191 192//192 
s 2
f 192//192 191//191 193//193 194//194 
s 1
f 194//194 193//193 195//195 196//196 
s 2
f 196//196 195//195 190//190 189//189 
s 4
f 192//192 194//194 196//196 189//189 
f 193//193 191//191 190//190 195//195 
s 1
f 197//197 198//198 199//199 200//200 
s 2
f 200//200 199//199 201//201 202//202 
s 1
f 202//202 201//201 203//203 204//204 
s 2
f 204//204 203//203 198//198 197//197 
s 4
f 200//200 202//202 204//204 197//197 
f 201//201 199//199 198//198 203//203 
s 1
f 205//205 206//206 207//207 208//208 
s 2
f 208//208 207//207 209//209 210//210 
s 1
f 210//210 209//209 211//211 212//212 
s 2
f 212//212 211//211 206//206 205//205 
s 4
f 208//208 210//210 212//212 205//205 
f 209//209 207//207 206//206 211//211 
# 198 polygons

