# 3ds Max Wavefront OBJ Exporter v0.99 - (c)2007 guruware
# File Created: 04.10.2024 23:50:27

mtllib TerribleGorillaModelPlaceholder.mtl

#
# object GorillaPLACEHOLDER
#

v  0.7194 0.0000 0.7653
v  -0.6292 0.0000 0.8410
v  -0.7194 0.0000 -0.7653
v  0.6292 0.0000 -0.8410
v  0.7194 1.2214 0.7653
v  0.6292 1.2214 -0.8410
v  -0.7194 1.2214 -0.7653
v  -0.6292 1.2214 0.8410
v  -4.7382 -3.8487 -1.5192
v  -4.3099 -3.8487 -1.5471
v  -4.2432 -3.8487 -0.5228
v  -4.6716 -3.8487 -0.4949
v  -4.2551 -1.5141 -0.7053
v  -4.2980 -1.5141 -1.3646
v  -4.7263 -1.5141 -1.3367
v  -4.6834 -1.5141 -0.6774
v  -4.2432 -3.2766 -0.5228
v  -4.6716 -3.2766 -0.4949
v  -3.6811 -3.8487 -0.5594
v  -3.7478 -3.8487 -1.5836
v  -3.7478 -3.2766 -1.5836
v  -3.6811 -3.2766 -0.5594
v  -4.3099 -3.2766 -1.5471
v  -4.7382 -3.2766 -1.5192
v  -4.2551 -3.2766 -0.7053
v  -4.6834 -3.2766 -0.6774
v  -4.7263 -3.2766 -1.3367
v  -4.2980 -3.2766 -1.3646
v  -4.2551 -1.9632 -0.7053
v  -4.6834 -1.9632 -0.6774
v  -4.2980 -1.9632 -1.3646
v  -4.7263 -1.9632 -1.3367
v  -4.5686 -3.8487 0.9340
v  -4.1402 -3.8487 0.9062
v  -4.0735 -3.8487 1.9304
v  -4.5019 -3.8487 1.9583
v  -4.0854 -1.5447 1.7479
v  -4.1283 -1.5447 1.0886
v  -4.5567 -1.5447 1.1165
v  -4.5138 -1.5447 1.7758
v  -4.0735 -3.2766 1.9304
v  -4.5019 -3.2766 1.9583
v  -3.5115 -3.8487 1.8938
v  -3.5781 -3.8487 0.8696
v  -3.5781 -3.2766 0.8696
v  -3.5115 -3.2766 1.8938
v  -4.1402 -3.2766 0.9062
v  -4.5686 -3.2766 0.9340
v  -4.0854 -3.2766 1.7479
v  -4.5138 -3.2766 1.7758
v  -4.5567 -3.2766 1.1165
v  -4.1283 -3.2766 1.0886
v  -4.0854 -1.9937 1.7479
v  -4.5138 -1.9937 1.7758
v  -4.1283 -1.9937 1.0886
v  -4.5567 -1.9937 1.1165
v  0.0291 -3.8487 0.8554
v  0.4574 -3.8487 0.8275
v  0.5241 -3.8487 1.8518
v  0.0958 -3.8487 1.8797
v  0.5122 0.0724 1.6693
v  0.4693 0.0724 1.0100
v  0.0410 0.0724 1.0379
v  0.0839 0.0724 1.6972
v  0.5241 -3.2766 1.8518
v  0.0958 -3.2766 1.8797
v  1.0862 -3.8487 1.8152
v  1.0195 -3.8487 0.7909
v  1.0195 -3.2766 0.7909
v  1.0862 -3.2766 1.8152
v  0.4574 -3.2766 0.8275
v  0.0291 -3.2766 0.8554
v  0.5122 -3.2766 1.6693
v  0.0839 -3.2766 1.6972
v  0.0410 -3.2766 1.0379
v  0.4693 -3.2766 1.0100
v  0.5122 -0.3766 1.6693
v  0.0839 -0.3766 1.6972
v  0.4693 -0.3766 1.0100
v  0.0410 -0.3766 1.0379
v  -1.6685 -1.9559 1.3040
v  -1.8011 -1.9559 -1.0582
v  0.2640 -1.3317 -1.1741
v  0.3966 -1.3317 1.1881
v  0.2351 0.0280 -1.1725
v  -2.3806 -0.4760 -1.0256
v  -2.2480 -0.4760 1.3366
v  0.3677 0.0280 1.1897
v  -4.7783 -1.8645 -0.8910
v  -4.6457 -1.8645 1.4712
v  -4.7475 -0.4831 1.4769
v  -4.8801 -0.4831 -0.8853
v  -0.2088 -3.8487 -1.9010
v  0.2195 -3.8487 -1.9289
v  0.2862 -3.8487 -0.9047
v  -0.1422 -3.8487 -0.8768
v  0.2743 0.0849 -1.0871
v  0.2314 0.0849 -1.7464
v  -0.1970 0.0849 -1.7186
v  -0.1541 0.0849 -1.0593
v  0.2862 -3.2766 -0.9047
v  -0.1422 -3.2766 -0.8768
v  0.8482 -3.8487 -0.9412
v  0.7816 -3.8487 -1.9655
v  0.7816 -3.2766 -1.9655
v  0.8482 -3.2766 -0.9412
v  0.2195 -3.2766 -1.9289
v  -0.2088 -3.2766 -1.9010
v  0.2743 -3.2766 -1.0871
v  -0.1541 -3.2766 -1.0593
v  -0.1970 -3.2766 -1.7186
v  0.2314 -3.2766 -1.7464
v  0.2743 -0.3641 -1.0871
v  -0.1541 -0.3641 -1.0593
v  0.2314 -0.3641 -1.7464
v  -0.1970 -0.3641 -1.7186
# 116 vertices

vn 0.6088 -0.5774 0.5441
vn -0.5441 -0.5774 0.6088
vn -0.6088 -0.5774 -0.5441
vn 0.5441 -0.5774 -0.6088
vn 0.6088 0.5774 0.5441
vn 0.5441 0.5774 -0.6088
vn -0.6088 0.5774 -0.5441
vn -0.5441 0.5774 0.6088
vn -0.6136 -0.5774 -0.5386
vn -0.0459 -0.7071 -0.7056
vn 0.0459 -0.7071 0.7056
vn -0.5386 -0.5774 0.6136
vn 0.6136 0.5774 0.5386
vn 0.5386 0.5774 -0.6136
vn -0.6136 0.5774 -0.5386
vn -0.5386 0.5774 0.6136
vn 0.0459 0.7071 0.7056
vn 0.6136 -0.5774 0.5386
vn 0.5386 -0.5774 -0.6136
vn -0.0459 0.7071 -0.7056
vn 0.3205 0.9045 0.2813
vn -0.8830 0.3015 0.3596
vn -0.9222 0.3015 -0.2421
vn 0.2813 0.9045 -0.3205
vn 0.7515 0.0000 0.6597
vn -0.6597 0.0000 0.7515
vn 0.6597 0.0000 -0.7515
vn -0.7515 0.0000 -0.6597
vn -0.6135 0.5775 -0.5386
vn 0.2813 0.9045 -0.3204
vn 0.1344 -0.7337 0.6661
vn 0.0590 -0.7337 -0.6769
vn 0.6172 -0.4732 -0.6286
vn 0.6837 -0.4732 0.5556
vn 0.4843 0.6395 -0.5971
vn -0.1067 0.6815 -0.7240
vn -0.0250 0.6815 0.7313
vn 0.5481 0.6395 0.5392
vn -0.5938 -0.5867 -0.5506
vn -0.5284 -0.5867 0.6136
vn -0.5678 0.5566 0.6065
vn -0.6321 0.5566 -0.5391
vn -0.5386 -0.5773 0.6137
vn -0.5386 0.5773 0.6137
vn -0.6136 0.5773 -0.5386
vn -0.8830 0.3016 0.3596
vn -0.6136 -0.5773 -0.5386
# 47 vertex normals

vt 1.0000 0.0000 0.0000
vt 1.0000 1.0000 0.0000
vt 0.0000 1.0000 0.0000
vt 0.0000 0.0000 0.0000
vt 0.6685 1.0000 0.0000
vt 0.6685 0.0000 0.0000
vt 0.3315 0.0000 0.0000
vt 0.3315 1.0000 0.0000
vt 0.1272 1.0000 0.0000
vt 0.8728 1.0000 0.0000
vt 0.3315 0.1272 0.0000
vt 0.3315 0.8728 0.0000
vt 1.0000 0.4912 0.0000
vt 0.0000 0.4912 0.0000
vt 0.4912 0.0000 0.0000
vt 0.4912 1.0000 0.0000
vt 0.5088 0.0000 0.0000
vt 0.5088 1.0000 0.0000
# 18 texture coords

o GorillaPLACEHOLDER
g GorillaPLACEHOLDER
usemtl wire_115115115
s 2
f 1/1/1 2/2/2 3/3/3 4/4/4 
s 4
f 5/4/5 6/1/6 7/2/7 8/3/8 
s 8
f 1/4/1 4/1/4 6/2/6 5/3/5 
s 16
f 4/4/4 3/1/3 7/2/7 6/3/6 
s 32
f 3/4/3 2/1/2 8/2/8 7/3/7 
s 64
f 2/4/2 1/1/1 5/2/5 8/3/8 
s 2
f 9/2/9 10/5/10 11/6/11 12/1/12 
s 4
f 13/7/13 14/8/14 15/3/15 16/4/16 
s 8
f 11/7/11 17/8/17 18/3/16 12/4/12 
s 16
f 19/4/18 20/1/19 21/2/14 22/3/13 
s 32
f 10/6/10 23/5/20 21/3/14 20/4/19 
s 2
f 20/3/19 19/4/18 11/6/11 10/5/10 
s 8
f 19/1/18 22/2/13 17/8/17 11/7/11 
s 32
f 9/1/9 24/2/15 23/5/20 10/6/10 
s 4
f 18/4/16 17/7/17 25/7/21 26/4/22 
f 23/8/20 24/3/15 27/3/23 28/8/24 
s 64
f 27/9/23 24/3/15 9/4/9 26/10/22 
f 26/10/22 9/4/9 12/1/12 18/2/16 
s 4
f 25/11/21 17/7/17 22/1/13 28/12/24 
f 28/12/24 22/1/13 21/2/14 23/8/20 
s off
f 25/7/21 29/7/25 30/4/26 26/4/22 
f 28/8/24 31/8/27 29/7/25 25/7/21 
f 27/3/23 32/3/28 31/8/27 28/8/24 
s 64
f 26/4/22 30/4/26 32/3/28 27/3/23 
s off
f 13/7/13 16/4/16 30/4/26 29/7/25 
f 14/8/14 13/7/13 29/7/25 31/8/27 
f 15/3/15 14/8/14 31/8/27 32/3/28 
s 64
f 16/4/16 15/3/15 32/3/28 30/4/26 
s 2
f 33/2/9 34/5/10 35/6/11 36/1/12 
s 4
f 37/7/13 38/8/14 39/3/15 40/4/16 
s 8
f 35/7/11 41/8/17 42/3/16 36/4/12 
s 16
f 43/4/18 44/1/19 45/2/14 46/3/13 
s 32
f 34/6/10 47/5/20 45/3/14 44/4/19 
s 2
f 44/3/19 43/4/18 35/6/11 34/5/10 
s 8
f 43/1/18 46/2/13 41/8/17 35/7/11 
s 32
f 33/1/9 48/2/15 47/5/20 34/6/10 
s 4
f 42/4/16 41/7/17 49/7/21 50/4/22 
f 47/8/20 48/3/15 51/3/23 52/8/24 
s 64
f 51/9/23 48/3/15 33/4/9 50/10/22 
f 50/10/22 33/4/9 36/1/12 42/2/16 
s 4
f 49/11/21 41/7/17 46/1/13 52/12/24 
f 52/12/24 46/1/13 45/2/14 47/8/20 
s off
f 49/7/21 53/7/25 54/4/26 50/4/22 
f 52/8/24 55/8/27 53/7/25 49/7/21 
f 51/3/23 56/3/28 55/8/27 52/8/24 
s 64
f 50/4/22 54/4/26 56/3/28 51/3/23 
s off
f 37/7/13 40/4/16 54/4/26 53/7/25 
f 38/8/14 37/7/13 53/7/25 55/8/27 
f 39/3/15 38/8/14 55/8/27 56/3/28 
s 64
f 40/4/16 39/3/15 56/3/28 54/4/26 
s 2
f 57/2/9 58/5/10 59/6/11 60/1/12 
s 4
f 61/7/13 62/8/14 63/3/15 64/4/16 
s 8
f 59/7/11 65/8/17 66/3/16 60/4/12 
s 16
f 67/4/18 68/1/19 69/2/14 70/3/13 
s 32
f 58/6/10 71/5/20 69/3/14 68/4/19 
s 2
f 68/3/19 67/4/18 59/6/11 58/5/10 
s 8
f 67/1/18 70/2/13 65/8/17 59/7/11 
s 32
f 57/1/9 72/2/29 71/5/20 58/6/10 
s 4
f 66/4/16 65/7/17 73/7/21 74/4/22 
f 71/8/20 72/3/29 75/3/9 76/8/30 
s 64
f 75/9/9 72/3/29 57/4/9 74/10/22 
f 74/10/22 57/4/9 60/1/12 66/2/16 
s 4
f 73/11/21 65/7/17 70/1/13 76/12/30 
f 76/12/30 70/1/13 69/2/14 71/8/20 
s off
f 73/7/21 77/7/25 78/4/26 74/4/22 
f 76/8/30 79/8/27 77/7/25 73/7/21 
f 75/3/9 80/3/28 79/8/27 76/8/30 
s 64
f 74/4/22 78/4/26 80/3/28 75/3/9 
s off
f 61/7/13 64/4/16 78/4/26 77/7/25 
f 62/8/14 61/7/13 77/7/25 79/8/27 
f 63/3/15 62/8/14 79/8/27 80/3/28 
s 64
f 64/4/16 63/3/15 80/3/28 78/4/26 
s 2
f 81/13/31 82/14/32 83/4/33 84/1/34 
s 4
f 85/1/35 86/13/36 87/14/37 88/4/38 
s 8
f 84/4/34 83/1/33 85/2/35 88/3/38 
s 16
f 82/15/32 86/16/36 85/3/35 83/4/33 
s 32
f 89/4/39 90/1/40 91/2/41 92/3/42 
s 64
f 81/17/31 87/18/37 91/3/41 90/4/40 
s 2
f 90/2/40 89/3/39 82/14/32 81/13/31 
s 4
f 92/2/42 91/3/41 87/14/37 86/13/36 
s 16
f 89/1/39 92/2/42 86/16/36 82/15/32 
s 64
f 84/1/34 88/2/38 87/18/37 81/17/31 
s 2
f 93/2/9 94/5/10 95/6/11 96/1/43 
s 4
f 97/7/13 98/8/14 99/3/15 100/4/16 
s 8
f 95/7/11 101/8/17 102/3/44 96/4/43 
s 16
f 103/4/18 104/1/19 105/2/14 106/3/13 
s 32
f 94/6/10 107/5/20 105/3/14 104/4/19 
s 2
f 104/3/19 103/4/18 95/6/11 94/5/10 
s 8
f 103/1/18 106/2/13 101/8/17 95/7/11 
s 32
f 93/1/9 108/2/45 107/5/20 94/6/10 
s 4
f 102/4/44 101/7/17 109/7/18 110/4/46 
f 107/8/20 108/3/45 111/3/47 112/8/30 
s 64
f 111/9/47 108/3/45 93/4/9 110/10/46 
f 110/10/46 93/4/9 96/1/43 102/2/44 
s 4
f 109/11/18 101/7/17 106/1/13 112/12/30 
f 112/12/30 106/1/13 105/2/14 107/8/20 
s off
f 109/7/18 113/7/25 114/4/26 110/4/46 
f 112/8/30 115/8/27 113/7/25 109/7/18 
f 111/3/47 116/3/28 115/8/27 112/8/30 
s 64
f 110/4/46 114/4/26 116/3/28 111/3/47 
s off
f 97/7/13 100/4/16 114/4/26 113/7/25 
f 98/8/14 97/7/13 113/7/25 115/8/27 
f 99/3/15 98/8/14 115/8/27 116/3/28 
s 64
f 100/4/16 99/3/15 116/3/28 114/4/26 
# 104 polygons

