# 3ds Max Wavefront OBJ Exporter v0.99 - (c)2007 guruware
# File Created: 04.10.2024 23:50:55

mtllib WeirdElephantPlaceholder.mtl

#
# object ElephantPLACEHOLDER
#

v  0.7194 0.0000 0.7653
v  -0.6292 0.0000 0.8410
v  -0.7194 0.0000 -0.7653
v  0.6292 0.0000 -0.8410
v  0.7194 1.2214 0.7653
v  0.6292 1.2214 -0.8410
v  -0.7194 1.2214 -0.7653
v  -0.6292 1.2214 0.8410
v  1.8908 -2.1525 0.0563
v  1.8950 -2.1517 -0.1351
v  2.0360 -2.1652 -0.1320
v  2.0317 -2.1660 0.0594
v  0.2677 -0.6846 -2.4503
v  -0.3579 -0.6846 -2.3745
v  -0.3579 -0.1180 -2.3745
v  0.2677 -0.1180 -2.4503
v  -0.2677 -0.6753 2.4243
v  0.3579 -0.6753 2.3486
v  0.3579 -0.1087 2.3486
v  -0.2677 -0.1087 2.4243
v  -4.7382 -3.8487 -1.5192
v  -4.3099 -3.8487 -1.5471
v  -4.2432 -3.8487 -0.5228
v  -4.6716 -3.8487 -0.4949
v  -4.2551 -1.5141 -0.7053
v  -4.2980 -1.5141 -1.3646
v  -4.7263 -1.5141 -1.3367
v  -4.6834 -1.5141 -0.6774
v  -4.2432 -3.2766 -0.5228
v  -4.6716 -3.2766 -0.4949
v  -3.6811 -3.8487 -0.5594
v  -3.7478 -3.8487 -1.5836
v  -3.7478 -3.2766 -1.5836
v  -3.6811 -3.2766 -0.5594
v  -4.3099 -3.2766 -1.5471
v  -4.7382 -3.2766 -1.5192
v  -4.2551 -3.2766 -0.7053
v  -4.6834 -3.2766 -0.6774
v  -4.7263 -3.2766 -1.3367
v  -4.2980 -3.2766 -1.3646
v  -4.2551 -1.9632 -0.7053
v  -4.6834 -1.9632 -0.6774
v  -4.2980 -1.9632 -1.3646
v  -4.7263 -1.9632 -1.3367
v  -4.5686 -3.8487 0.9340
v  -4.1402 -3.8487 0.9062
v  -4.0735 -3.8487 1.9304
v  -4.5019 -3.8487 1.9583
v  -4.0854 -1.5447 1.7479
v  -4.1283 -1.5447 1.0886
v  -4.5567 -1.5447 1.1165
v  -4.5138 -1.5447 1.7758
v  -4.0735 -3.2766 1.9304
v  -4.5019 -3.2766 1.9583
v  -3.5115 -3.8487 1.8938
v  -3.5781 -3.8487 0.8696
v  -3.5781 -3.2766 0.8696
v  -3.5115 -3.2766 1.8938
v  -4.1402 -3.2766 0.9062
v  -4.5686 -3.2766 0.9340
v  -4.0854 -3.2766 1.7479
v  -4.5138 -3.2766 1.7758
v  -4.5567 -3.2766 1.1165
v  -4.1283 -3.2766 1.0886
v  -4.0854 -1.9937 1.7479
v  -4.5138 -1.9937 1.7758
v  -4.1283 -1.9937 1.0886
v  -4.5567 -1.9937 1.1165
v  0.0291 -3.8487 0.8554
v  0.4574 -3.8487 0.8275
v  0.5241 -3.8487 1.8518
v  0.0958 -3.8487 1.8797
v  0.5122 0.0724 1.6693
v  0.4693 0.0724 1.0100
v  0.0410 0.0724 1.0379
v  0.0839 0.0724 1.6972
v  0.5241 -3.2766 1.8518
v  0.0958 -3.2766 1.8797
v  1.0862 -3.8487 1.8152
v  1.0195 -3.8487 0.7909
v  1.0195 -3.2766 0.7909
v  1.0862 -3.2766 1.8152
v  0.4574 -3.2766 0.8275
v  0.0291 -3.2766 0.8554
v  0.5122 -3.2766 1.6693
v  0.0839 -3.2766 1.6972
v  0.0410 -3.2766 1.0379
v  0.4693 -3.2766 1.0100
v  0.5122 -0.3766 1.6693
v  0.0839 -0.3766 1.6972
v  0.4693 -0.3766 1.0100
v  0.0410 -0.3766 1.0379
v  -1.6685 -1.9559 1.3040
v  -1.8011 -1.9559 -1.0582
v  0.2640 -1.3317 -1.1741
v  0.3966 -1.3317 1.1881
v  0.2351 0.0280 -1.1725
v  -2.3806 -0.4760 -1.0256
v  -2.2480 -0.4760 1.3366
v  0.3677 0.0280 1.1897
v  -7.0166 -3.3470 0.1295
v  -6.8840 -3.3470 0.4556
v  -6.9858 -3.1563 0.4564
v  -7.1184 -3.1563 0.1303
v  -4.7475 -0.4831 1.4769
v  -4.6457 -1.8645 1.4712
v  -4.7783 -1.8645 -0.8910
v  -4.8801 -0.4831 -0.8853
v  -0.2088 -3.8487 -1.9010
v  0.2195 -3.8487 -1.9289
v  0.2862 -3.8487 -0.9047
v  -0.1422 -3.8487 -0.8768
v  0.2743 0.0849 -1.0871
v  0.2314 0.0849 -1.7464
v  -0.1970 0.0849 -1.7186
v  -0.1541 0.0849 -1.0593
v  0.2862 -3.2766 -0.9047
v  -0.1422 -3.2766 -0.8768
v  0.8482 -3.8487 -0.9412
v  0.7816 -3.8487 -1.9655
v  0.7816 -3.2766 -1.9655
v  0.8482 -3.2766 -0.9412
v  0.2195 -3.2766 -1.9289
v  -0.2088 -3.2766 -1.9010
v  0.2743 -3.2766 -1.0871
v  -0.1541 -3.2766 -1.0593
v  -0.1970 -3.2766 -1.7186
v  0.2314 -3.2766 -1.7464
v  0.2743 -0.3641 -1.0871
v  -0.1541 -0.3641 -1.0593
v  0.2314 -0.3641 -1.7464
v  -0.1970 -0.3641 -1.7186
v  0.6292 0.7562 -0.2292
v  0.6292 0.4652 -0.2292
v  0.7194 0.4652 0.1535
v  0.7194 0.7562 0.1535
v  2.0045 -0.4688 -0.2292
v  1.7741 -0.4898 -0.2292
v  1.8292 -0.4982 0.1535
v  2.0596 -0.4772 0.1535
v  -0.3579 1.1174 -0.7653
v  -0.3579 0.5508 -0.7653
v  0.2677 0.5508 -0.8410
v  0.2677 1.1174 -0.8410
v  0.3579 1.1174 0.7653
v  0.3579 0.5508 0.7653
v  -0.2677 0.5508 0.8410
v  -0.2677 1.1174 0.8410
v  -4.6457 -0.8776 0.4556
v  -4.7783 -0.8776 0.1295
v  -4.7475 -0.6869 0.4564
v  -4.8801 -0.6869 0.1303
# 152 vertices

vn 0.5937 -0.5779 0.5599
vn -0.5480 -0.5823 0.6005
vn -0.6058 -0.5724 -0.5527
vn 0.5604 -0.5769 -0.5942
vn 0.5863 0.5783 0.5672
vn 0.5681 0.5765 -0.5873
vn -0.5985 0.5728 -0.5601
vn -0.5558 0.5819 0.5937
vn -0.6064 -0.5741 0.5501
vn -0.5693 -0.5809 -0.5818
vn 0.5730 -0.6141 -0.5428
vn 0.5353 -0.6260 0.5671
vn 0.5285 -0.7380 -0.4195
vn -0.5669 -0.7607 -0.3160
vn -0.6597 0.3428 -0.6687
vn 0.5785 0.3502 -0.7367
vn -0.5285 -0.7389 0.4181
vn 0.5667 -0.7616 0.3144
vn 0.6601 0.3412 0.6692
vn -0.5788 0.3486 0.7372
vn -0.6136 -0.5774 -0.5386
vn -0.0459 -0.7071 -0.7056
vn 0.0459 -0.7071 0.7056
vn -0.5386 -0.5774 0.6136
vn 0.6136 0.5774 0.5386
vn 0.5386 0.5774 -0.6136
vn -0.6136 0.5774 -0.5386
vn -0.5386 0.5774 0.6136
vn 0.0459 0.7071 0.7056
vn 0.6136 -0.5774 0.5386
vn 0.5386 -0.5774 -0.6136
vn -0.0459 0.7071 -0.7056
vn 0.3205 0.9045 0.2813
vn -0.8830 0.3015 0.3596
vn -0.9222 0.3015 -0.2421
vn 0.2813 0.9045 -0.3205
vn 0.7515 0.0000 0.6597
vn -0.6597 0.0000 0.7515
vn 0.6597 0.0000 -0.7515
vn -0.7515 0.0000 -0.6597
vn -0.6135 0.5775 -0.5386
vn 0.2813 0.9045 -0.3204
vn 0.1344 -0.7337 0.6661
vn 0.0590 -0.7337 -0.6769
vn 0.6172 -0.4732 -0.6286
vn 0.6837 -0.4732 0.5556
vn 0.4843 0.6395 -0.5971
vn -0.1067 0.6815 -0.7240
vn -0.0250 0.6815 0.7313
vn 0.5481 0.6395 0.5392
vn -0.2622 -0.8171 -0.5135
vn 0.0656 -0.8362 0.5445
vn -0.6673 0.0960 0.7385
vn -0.8874 0.0975 -0.4505
vn -0.5801 0.5532 0.5979
vn -0.5537 -0.5747 0.6026
vn -0.5967 -0.5853 -0.5490
vn -0.6122 0.5625 -0.5557
vn -0.6135 -0.5774 -0.5387
vn -0.5386 -0.5773 0.6137
vn -0.5386 0.5773 0.6137
vn -0.6136 0.5773 -0.5386
vn -0.2813 0.9045 0.3204
vn -0.6136 -0.5773 -0.5386
vn 0.9577 0.0568 -0.2821
vn 0.8106 -0.0779 -0.5804
vn 0.7650 -0.4553 0.4555
vn 0.9445 0.3286 0.0022
vn 0.6664 0.3043 -0.6807
vn -0.5457 -0.3185 -0.7751
vn -0.4825 -0.2461 0.8406
vn 0.7535 0.2916 0.5892
vn -0.2430 0.0134 -0.9699
vn -0.5182 -0.2179 -0.8271
vn 0.4666 -0.3318 -0.8198
vn 0.0800 0.4026 -0.9119
vn 0.2421 0.0127 0.9702
vn 0.5193 -0.2173 0.8265
vn -0.4681 -0.3311 0.8193
vn -0.0791 0.4017 0.9124
vn -0.8553 -0.2931 0.4273
vn -0.6321 -0.7538 -0.1796
vn -0.7441 -0.4850 0.4595
vn -0.8217 0.5644 -0.0786
# 84 vertex normals

vt 1.0000 0.0000 0.0000
vt 1.0000 1.0000 0.0000
vt 0.0000 1.0000 0.0000
vt 0.0000 0.0000 0.0000
vt 0.6685 1.0000 0.0000
vt 0.6685 0.0000 0.0000
vt 0.3315 0.0000 0.0000
vt 0.3315 1.0000 0.0000
vt 1.0000 0.4912 0.0000
vt 0.0000 0.4912 0.0000
vt 0.4912 0.0000 0.0000
vt 0.4912 1.0000 0.0000
vt 0.5088 0.0000 0.0000
vt 0.5088 1.0000 0.0000
vt 0.8728 1.0000 0.0000
vt 0.1272 1.0000 0.0000
vt 0.3315 0.8728 0.0000
vt 0.3315 0.1272 0.0000
# 18 texture coords

o ElephantPLACEHOLDER
g ElephantPLACEHOLDER
usemtl wire_115115115
s 2
f 1/1/1 2/2/2 3/3/3 4/4/4 
s 4
f 5/4/5 6/1/6 7/2/7 8/3/8 
s 8
f 9/4/9 10/1/10 11/2/11 12/3/12 
s 16
f 13/4/13 14/1/14 15/2/15 16/3/16 
s 32
f 3/4/3 2/1/2 8/2/8 7/3/7 
s 64
f 17/4/17 18/1/18 19/2/19 20/3/20 
s 2
f 21/2/21 22/5/22 23/6/23 24/1/24 
s 4
f 25/7/25 26/8/26 27/3/27 28/4/28 
s 8
f 23/7/23 29/8/29 30/3/28 24/4/24 
s 16
f 31/4/30 32/1/31 33/2/26 34/3/25 
s 32
f 22/6/22 35/5/32 33/3/26 32/4/31 
s 2
f 32/3/31 31/4/30 23/6/23 22/5/22 
s 8
f 31/1/30 34/2/25 29/8/29 23/7/23 
s 32
f 21/1/21 36/2/27 35/5/32 22/6/22 
s 4
f 30/4/28 29/7/29 37/7/33 38/4/34 
f 35/8/32 36/3/27 39/3/35 40/8/36 
s off
f 37/7/33 41/7/37 42/4/38 38/4/34 
f 40/8/36 43/8/39 41/7/37 37/7/33 
f 39/3/35 44/3/40 43/8/39 40/8/36 
s 64
f 38/4/34 42/4/38 44/3/40 39/3/35 
s off
f 25/7/25 28/4/28 42/4/38 41/7/37 
f 26/8/26 25/7/25 41/7/37 43/8/39 
f 27/3/27 26/8/26 43/8/39 44/3/40 
s 64
f 28/4/28 27/3/27 44/3/40 42/4/38 
s 2
f 45/2/21 46/5/22 47/6/23 48/1/24 
s 4
f 49/7/25 50/8/26 51/3/27 52/4/28 
s 8
f 47/7/23 53/8/29 54/3/28 48/4/24 
s 16
f 55/4/30 56/1/31 57/2/26 58/3/25 
s 32
f 46/6/22 59/5/32 57/3/26 56/4/31 
s 2
f 56/3/31 55/4/30 47/6/23 46/5/22 
s 8
f 55/1/30 58/2/25 53/8/29 47/7/23 
s 32
f 45/1/21 60/2/27 59/5/32 46/6/22 
s 4
f 54/4/28 53/7/29 61/7/33 62/4/34 
f 59/8/32 60/3/27 63/3/35 64/8/36 
s off
f 61/7/33 65/7/37 66/4/38 62/4/34 
f 64/8/36 67/8/39 65/7/37 61/7/33 
f 63/3/35 68/3/40 67/8/39 64/8/36 
s 64
f 62/4/34 66/4/38 68/3/40 63/3/35 
s off
f 49/7/25 52/4/28 66/4/38 65/7/37 
f 50/8/26 49/7/25 65/7/37 67/8/39 
f 51/3/27 50/8/26 67/8/39 68/3/40 
s 64
f 52/4/28 51/3/27 68/3/40 66/4/38 
s 2
f 69/2/21 70/5/22 71/6/23 72/1/24 
s 4
f 73/7/25 74/8/26 75/3/27 76/4/28 
s 8
f 71/7/23 77/8/29 78/3/28 72/4/24 
s 16
f 79/4/30 80/1/31 81/2/26 82/3/25 
s 32
f 70/6/22 83/5/32 81/3/26 80/4/31 
s 2
f 80/3/31 79/4/30 71/6/23 70/5/22 
s 8
f 79/1/30 82/2/25 77/8/29 71/7/23 
s 32
f 69/1/21 84/2/41 83/5/32 70/6/22 
s 4
f 78/4/28 77/7/29 85/7/33 86/4/34 
f 83/8/32 84/3/41 87/3/21 88/8/42 
s off
f 85/7/33 89/7/37 90/4/38 86/4/34 
f 88/8/42 91/8/39 89/7/37 85/7/33 
f 87/3/21 92/3/40 91/8/39 88/8/42 
s 64
f 86/4/34 90/4/38 92/3/40 87/3/21 
s off
f 73/7/25 76/4/28 90/4/38 89/7/37 
f 74/8/26 73/7/25 89/7/37 91/8/39 
f 75/3/27 74/8/26 91/8/39 92/3/40 
s 64
f 76/4/28 75/3/27 92/3/40 90/4/38 
s 2
f 93/9/43 94/10/44 95/4/45 96/1/46 
s 4
f 97/1/47 98/9/48 99/10/49 100/4/50 
s 8
f 96/4/46 95/1/45 97/2/47 100/3/50 
s 16
f 94/11/44 98/12/48 97/3/47 95/4/45 
s 32
f 101/4/51 102/1/52 103/2/53 104/3/54 
s 64
f 93/13/43 99/14/49 105/3/55 106/4/56 
s 2
f 106/2/56 107/3/57 94/10/44 93/9/43 
s 4
f 108/2/58 105/3/55 99/10/49 98/9/48 
s 16
f 107/1/57 108/2/58 98/12/48 94/11/44 
s 64
f 96/1/46 100/2/50 99/14/49 93/13/43 
s 2
f 109/2/59 110/5/22 111/6/23 112/1/60 
s 4
f 113/7/25 114/8/26 115/3/27 116/4/28 
s 8
f 111/7/23 117/8/29 118/3/61 112/4/60 
s 16
f 119/4/30 120/1/31 121/2/26 122/3/25 
s 32
f 110/6/22 123/5/32 121/3/26 120/4/31 
s 2
f 120/3/31 119/4/30 111/6/23 110/5/22 
s 8
f 119/1/30 122/2/25 117/8/29 111/7/23 
s 32
f 109/1/59 124/2/62 123/5/32 110/6/22 
s 4
f 118/4/61 117/7/29 125/7/30 126/4/63 
f 123/8/32 124/3/62 127/3/64 128/8/42 
s off
f 125/7/30 129/7/37 130/4/38 126/4/63 
f 128/8/42 131/8/39 129/7/37 125/7/30 
f 127/3/64 132/3/40 131/8/39 128/8/42 
s 64
f 126/4/63 130/4/38 132/3/40 127/3/64 
s off
f 113/7/25 116/4/28 130/4/38 129/7/37 
f 114/8/26 113/7/25 129/7/37 131/8/39 
f 115/3/27 114/8/26 131/8/39 132/3/40 
s 64
f 116/4/28 115/3/27 132/3/40 130/4/38 
s 1
f 4/1/4 6/2/6 133/2/65 134/1/66 
f 5/3/5 1/4/1 135/4/67 136/3/68 
s off
f 134/1/66 133/2/65 137/2/69 138/1/70 
f 136/3/68 135/4/67 139/4/71 140/3/72 
s 8
f 3/1/3 7/2/7 141/2/73 142/1/74 
f 6/3/6 4/4/4 143/4/75 144/3/76 
f 1/1/1 5/2/5 145/2/77 146/1/78 
f 8/3/8 2/4/2 147/4/79 148/3/80 
s off
f 143/4/75 142/1/74 14/1/14 13/4/13 
f 142/1/74 141/2/73 15/2/15 14/1/14 
f 141/2/73 144/3/76 16/3/16 15/2/15 
f 144/3/76 143/4/75 13/4/13 16/3/16 
f 147/4/79 146/1/78 18/1/18 17/4/17 
f 146/1/78 145/2/77 19/2/19 18/1/18 
f 145/2/77 148/3/80 20/3/20 19/2/19 
f 148/3/80 147/4/79 17/4/17 20/3/20 
s 64
f 38/15/34 39/16/35 36/3/27 21/4/21 24/1/24 30/2/28 
s 4
f 40/17/36 37/18/33 29/7/29 34/1/25 33/2/26 35/8/32 
s 64
f 62/15/34 63/16/35 60/3/27 45/4/21 48/1/24 54/2/28 
s 4
f 64/17/36 61/18/33 53/7/29 58/1/25 57/2/26 59/8/32 
s 64
f 86/15/34 87/16/21 84/3/41 69/4/21 72/1/24 78/2/28 
s 4
f 88/17/42 85/18/33 77/7/29 82/1/25 81/2/26 83/8/32 
s 64
f 126/15/63 127/16/64 124/3/62 109/4/59 112/1/60 118/2/61 
s 4
f 128/17/42 125/18/30 117/7/29 122/1/25 121/2/26 123/8/32 
s 1
f 1/4/1 4/1/4 134/1/66 135/4/67 
f 6/2/6 5/3/5 136/3/68 133/2/65 
s off
f 135/4/67 134/1/66 138/1/70 139/4/71 
f 136/3/68 140/3/72 137/2/69 133/2/65 
f 10/1/10 9/4/9 139/4/71 138/1/70 
f 11/2/11 10/1/10 138/1/70 137/2/69 
f 140/3/72 12/3/12 11/2/11 137/2/69 
f 139/4/71 9/4/9 12/3/12 140/3/72 
s 24
f 4/4/4 3/1/3 142/1/74 143/4/75 
f 7/2/7 6/3/6 144/3/76 141/2/73 
s 72
f 2/4/2 1/1/1 146/1/78 147/4/79 
f 5/2/5 8/3/8 148/3/80 145/2/77 
s 1
f 107/4/57 106/1/56 149/1/81 150/4/82 
f 106/1/56 105/2/55 151/2/83 149/1/81 
f 105/2/55 108/3/58 152/3/84 151/2/83 
f 108/3/58 107/4/57 150/4/82 152/3/84 
s off
f 150/4/82 149/1/81 102/1/52 101/4/51 
f 149/1/81 151/2/83 103/2/53 102/1/52 
f 151/2/83 152/3/84 104/3/54 103/2/53 
f 152/3/84 150/4/82 101/4/51 104/3/54 
# 132 polygons

