# 3ds Max Wavefront OBJ Exporter v0.99 - (c)2007 guruware
# File Created: 25.09.2024 13:27:58

mtllib Building2_Placeholder.mtl

#
# object Building2
#

v  -2.0392 0.0000 4.4249
v  -2.0392 0.0000 3.8942
v  2.0392 0.0000 3.8942
v  2.0392 0.0000 4.4249
v  -2.0392 4.8279 4.4249
v  2.0392 4.8279 4.4249
v  2.0392 4.8279 3.8942
v  -2.0392 4.8279 3.8942
v  2.0392 1.0916 4.4249
v  -2.0392 1.0916 4.4249
v  2.0392 1.0916 3.8942
v  2.0392 0.0000 -4.4249
v  -2.0392 0.0000 -4.4249
v  -2.0392 1.0916 -4.4249
v  2.0392 1.0916 -4.4249
v  -2.0392 0.0000 -2.9400
v  -2.0392 1.0916 -2.9400
v  -2.0392 0.0000 2.3739
v  -2.0392 0.0000 1.6386
v  2.0392 0.0000 1.6386
v  2.0392 0.0000 2.3739
v  2.0392 4.8279 2.3739
v  2.0392 4.8279 1.6386
v  -2.0392 4.8279 1.6386
v  -2.0392 4.8279 2.3739
v  2.0392 1.0916 1.6386
v  2.0392 1.0916 2.3739
v  -2.0392 1.0916 3.8942
v  -2.0392 1.0916 2.3739
v  -2.0392 0.0000 -1.1466
v  -2.0392 1.0916 -1.1466
v  2.0392 0.0000 -2.9400
v  2.0392 4.8279 -2.9400
v  2.0392 4.8279 -4.4249
v  -2.0392 4.8279 -4.4249
v  -2.0392 4.8279 -2.9400
v  2.0392 1.0916 -2.9400
v  2.0392 2.3311 4.4249
v  -2.0392 2.3311 4.4249
v  3.1075 2.3311 2.3739
v  2.5843 4.2363 2.3739
v  2.5843 4.2363 3.8942
v  3.1075 2.3311 3.8942
v  -2.0392 2.3311 -4.4249
v  2.0392 2.3311 -4.4249
v  -2.0392 2.3311 -2.9400
v  3.1075 2.3311 -2.9400
v  2.5843 4.2363 -2.9400
v  2.5843 4.2363 -1.1466
v  3.1075 2.3311 -1.1466
v  -2.0392 2.3311 3.8942
v  -2.0392 2.3311 2.3739
v  -2.0392 2.3311 1.6386
v  3.1075 2.3311 -4.4249
v  2.5843 4.2363 -4.4249
v  -2.0392 0.0000 0.9830
v  -2.0392 0.0000 -0.6059
v  2.0392 0.0000 -0.6059
v  2.0392 0.0000 0.9830
v  2.0392 4.8279 0.9830
v  2.0392 4.8279 -0.6059
v  -2.0392 4.8279 -0.6059
v  -2.0392 4.8279 0.9830
v  -2.0392 1.0916 1.6386
v  -2.0392 1.0916 0.9830
v  2.5843 4.2363 0.9830
v  2.5843 4.2363 1.6386
v  3.1075 2.3311 1.6386
v  3.1075 2.3311 0.9830
v  -2.0392 2.3311 -0.6059
v  -2.0392 2.3311 0.9830
v  -2.0392 1.0916 -0.6059
v  2.5843 4.2363 -0.6059
v  3.1075 2.3311 -0.6059
v  2.0392 0.0000 -1.1466
v  2.0392 4.8279 -1.1466
v  -2.0392 4.8279 -1.1466
v  2.0392 1.0916 -1.1466
v  2.0392 1.0916 -0.6059
v  -2.0392 2.3311 -1.1466
v  2.0392 1.0916 0.9830
v  2.5843 4.2363 4.4249
v  3.1075 2.3311 4.4249
v  2.0392 2.3311 3.8942
v  2.0392 2.3311 1.6386
v  2.0392 2.3311 2.3739
v  2.0392 2.3311 -2.9400
v  2.0392 2.3311 -1.1466
v  2.0392 2.3311 -0.6059
v  2.0392 2.3311 0.9830
# 90 vertices

vn -0.5774 -0.5774 0.5774
vn -0.7071 -0.7071 -0.0000
vn 0.7071 -0.7071 0.0000
vn 0.5774 -0.5774 0.5774
vn -0.5774 0.5774 0.5774
vn 0.2892 0.7190 0.6320
vn 0.3732 0.9277 0.0000
vn -0.7071 0.7071 -0.0000
vn 0.7071 0.0000 0.7071
vn -0.7071 0.0000 0.7071
vn 1.0000 0.0000 0.0000
vn 0.5774 -0.5774 -0.5774
vn -0.5774 -0.5774 -0.5774
vn -0.7071 0.0000 -0.7071
vn 0.7071 0.0000 -0.7071
vn -1.0000 0.0000 -0.0000
vn 0.2892 0.7190 -0.6320
vn -0.5774 0.5774 -0.5774
vn 0.3015 -0.3015 0.9045
vn 0.8052 -0.5931 0.0000
vn 0.8507 0.5256 0.0000
vn 0.8507 0.5257 0.0000
vn 0.8051 -0.5932 0.0000
vn 0.3015 -0.3015 -0.9045
vn 0.6652 -0.4902 -0.5632
vn 0.6428 0.3972 -0.6550
vn 0.4472 -0.8944 0.0000
vn 0.8051 -0.5932 -0.0000
vn 0.8052 -0.5931 -0.0000
vn 0.6428 0.3972 0.6550
vn 0.6652 -0.4902 0.5632
vn 0.4472 -0.8944 -0.0000
# 32 vertex normals

vt 1.0000 0.0000 0.0000
vt 1.0000 0.0600 0.0000
vt 0.0000 0.0600 0.0000
vt 0.0000 0.0000 0.0000
vt 1.0000 0.2261 0.0000
vt 0.0000 0.2261 0.0000
vt 0.0600 0.0000 0.0000
vt 0.0600 0.2261 0.0000
vt 0.2595 0.0000 0.0000
vt 0.2595 0.2261 0.0000
vt 1.0000 0.2318 0.0000
vt 1.0000 0.3148 0.0000
vt 0.0000 0.3148 0.0000
vt 0.0000 0.2318 0.0000
vt 0.2318 0.0000 0.0000
vt 0.3148 0.0000 0.0000
vt 0.3148 0.2261 0.0000
vt 0.2318 0.2261 0.0000
vt 0.7682 0.0000 0.0000
vt 0.9400 0.0000 0.0000
vt 0.9400 0.2261 0.0000
vt 0.7682 0.2261 0.0000
vt 0.3704 0.0000 0.0000
vt 0.3704 0.2261 0.0000
vt 1.0000 0.7405 0.0000
vt 1.0000 1.0000 0.0000
vt 0.0000 1.0000 0.0000
vt 0.0000 0.7405 0.0000
vt 0.7405 0.0000 0.0000
vt 0.7405 0.2261 0.0000
vt 1.0000 0.4828 0.0000
vt 0.0000 0.4828 0.0000
vt 0.2318 0.4828 0.0000
vt 0.2318 1.0000 0.0000
vt 0.0600 1.0000 0.0000
vt 0.0600 0.4828 0.0000
vt 0.2595 0.4828 0.0000
vt 0.2595 1.0000 0.0000
vt 0.7405 0.4828 0.0000
vt 0.7405 1.0000 0.0000
vt 0.6296 1.0000 0.0000
vt 0.6296 0.4828 0.0000
vt 0.9400 1.0000 0.0000
vt 0.9400 0.4828 0.0000
vt 0.7682 0.4828 0.0000
vt 0.7682 1.0000 0.0000
vt 0.6852 1.0000 0.0000
vt 0.6852 0.4828 0.0000
vt 1.0000 0.3889 0.0000
vt 1.0000 0.5685 0.0000
vt 0.0000 0.5685 0.0000
vt 0.0000 0.3889 0.0000
vt 0.6111 0.0000 0.0000
vt 0.6852 0.0000 0.0000
vt 0.6852 0.2261 0.0000
vt 0.6111 0.2261 0.0000
vt 0.3889 1.0000 0.0000
vt 0.3148 1.0000 0.0000
vt 0.3148 0.4828 0.0000
vt 0.3889 0.4828 0.0000
vt 0.6111 1.0000 0.0000
vt 0.4315 1.0000 0.0000
vt 0.4315 0.4828 0.0000
vt 0.6111 0.4828 0.0000
vt 0.4315 0.0000 0.0000
vt 0.4315 0.2261 0.0000
vt 0.5685 1.0000 0.0000
vt 0.5685 0.4828 0.0000
vt 1.0000 0.6296 0.0000
vt 0.0000 0.6296 0.0000
vt 0.5685 0.0000 0.0000
vt 0.6296 0.0000 0.0000
vt 0.6296 0.2261 0.0000
vt 0.5685 0.2261 0.0000
vt 0.3704 1.0000 0.0000
vt 0.3704 0.4828 0.0000
vt 0.3889 0.0000 0.0000
vt 0.3889 0.2261 0.0000
# 78 texture coords

o Building2
g Building2
usemtl wire_152173046
s 2
f 1/1/1 2/2/2 3/3/3 4/4/4 
s 4
f 5/4/5 6/1/6 7/2/7 8/3/8 
s 8
f 1/4/1 4/1/4 9/5/9 10/6/10 
s 16
f 4/4/4 3/7/3 11/8/11 9/6/9 
s 32
f 12/4/12 13/1/13 14/5/14 15/6/15 
s 64
f 13/4/13 16/9/2 17/10/16 14/6/14 
s 2
f 18/11/2 19/12/2 20/13/3 21/14/3 
s 4
f 22/11/7 23/12/7 24/13/8 25/14/8 
s 16
f 21/15/3 20/16/3 26/17/11 27/18/11 
s 64
f 18/19/2 2/20/2 28/21/16 29/22/16 
f 16/9/2 30/23/2 31/24/16 17/10/16 
s 2
f 16/25/2 13/26/13 12/27/12 32/28/3 
s 4
f 33/25/7 34/26/17 35/27/18 36/28/8 
s 16
f 32/29/3 12/1/12 15/5/15 37/30/11 
s 8
f 38/31/19 6/26/6 5/27/5 39/32/10 
s 16
f 40/33/20 41/34/21 42/35/22 43/36/23 
s 32
f 44/31/14 35/26/18 34/27/17 45/32/24 
s 64
f 46/37/16 36/38/8 35/27/18 44/32/14 
s 16
f 47/39/23 48/40/22 49/41/22 50/42/20 
s 64
f 39/31/10 5/26/5 8/43/8 51/44/16 
f 52/45/16 25/46/8 24/47/8 53/48/16 
s 16
f 54/31/25 55/26/26 48/40/22 47/39/23 
s 2
f 56/49/2 57/50/2 58/51/27 59/52/27 
s 4
f 60/49/7 61/50/7 62/51/8 63/52/8 
s 64
f 56/53/2 19/54/2 64/55/16 65/56/16 
s 16
f 66/57/21 67/58/21 68/59/20 69/60/28 
s 64
f 63/61/8 62/62/8 70/63/16 71/64/16 
f 57/65/2 56/53/2 65/56/16 72/66/16 
s 16
f 73/67/22 66/57/21 69/60/28 74/68/29 
s 2
f 57/50/2 30/69/2 75/70/3 58/51/27 
s 4
f 61/50/7 76/69/7 77/70/8 62/51/8 
s 16
f 58/71/27 75/72/3 78/73/11 79/74/11 
s 64
f 62/62/8 77/75/8 80/76/16 70/63/16 
s 2
f 19/12/2 56/49/2 59/52/27 20/13/3 
s 4
f 23/12/7 60/49/7 63/52/8 24/13/8 
s 16
f 20/16/3 59/77/27 81/78/11 26/17/11 
s 64
f 24/47/8 63/61/8 71/64/16 53/48/16 
f 19/54/2 18/19/2 29/22/16 64/55/16 
s 16
f 67/58/21 41/34/21 40/33/20 68/59/20 
s 64
f 30/23/2 57/65/2 72/66/16 31/24/16 
s 16
f 49/41/22 73/67/22 74/68/29 50/42/20 
s 2
f 30/69/2 16/25/2 32/28/3 75/70/3 
s 4
f 76/69/7 33/25/7 36/28/8 77/70/8 
s 16
f 75/72/3 32/29/3 37/30/11 78/73/11 
s 64
f 77/75/8 36/38/8 46/37/16 80/76/16 
s 2
f 2/2/2 18/11/2 21/14/3 3/3/3 
s 4
f 7/2/7 22/11/7 25/14/8 8/3/8 
s 16
f 3/7/3 21/15/3 27/18/11 11/8/11 
s 64
f 2/20/2 1/1/1 10/5/10 28/21/16 
s 16
f 42/35/22 82/27/30 83/32/31 43/36/23 
s 64
f 8/43/8 25/46/8 52/45/16 51/44/16 
s 8
f 9/5/9 38/31/19 39/32/10 10/6/10 
s 16
f 11/8/11 84/36/27 38/32/19 9/6/9 
s 32
f 14/5/14 44/31/14 45/32/24 15/6/15 
s 64
f 17/10/16 46/37/16 44/32/14 14/6/14 
s 16
f 26/17/11 85/59/3 86/33/27 27/18/11 
s 64
f 28/21/16 51/44/16 52/45/16 29/22/16 
f 31/24/16 80/76/16 46/37/16 17/10/16 
s 16
f 15/5/15 45/31/24 87/39/27 37/30/11 
s 64
f 64/55/16 53/48/16 71/64/16 65/56/16 
f 65/56/16 71/64/16 70/63/16 72/66/16 
s 16
f 78/73/11 88/42/27 89/68/32 79/74/11 
f 81/78/11 90/60/32 85/59/3 26/17/11 
s 64
f 29/22/16 52/45/16 53/48/16 64/55/16 
f 72/66/16 70/63/16 80/76/16 31/24/16 
f 10/5/10 39/31/10 51/44/16 28/21/16 
s 4
f 7/35/7 6/27/6 82/27/30 42/35/22 
s 8
f 6/27/6 38/32/19 83/32/31 82/27/30 
s 1
f 38/32/19 84/36/27 43/36/23 83/32/31 
f 84/36/27 86/33/27 40/33/20 43/36/23 
f 86/33/27 85/59/3 68/59/20 40/33/20 
f 85/59/3 90/60/32 69/60/28 68/59/20 
f 90/60/32 89/68/32 74/68/29 69/60/28 
f 89/68/32 88/42/27 50/42/20 74/68/29 
f 88/42/27 87/39/27 47/39/23 50/42/20 
f 87/39/27 45/31/24 54/31/25 47/39/23 
s 32
f 45/31/24 34/26/17 55/26/26 54/31/25 
s 4
f 34/26/17 33/40/7 48/40/22 55/26/26 
f 33/40/7 76/41/7 49/41/22 48/40/22 
f 76/41/7 61/67/7 73/67/22 49/41/22 
f 61/67/7 60/57/7 66/57/21 73/67/22 
f 60/57/7 23/58/7 67/58/21 66/57/21 
f 23/58/7 22/34/7 41/34/21 67/58/21 
f 22/34/7 7/35/7 42/35/22 41/34/21 
# 84 polygons

