# 3ds Max Wavefront OBJ Exporter v0.99 - (c)2007 guruware
# File Created: 25.09.2024 13:27:45

mtllib Building_Placeholder.mtl

#
# object Building1
#

v  1.8588 -0.0191 -4.0275
v  -1.8554 -0.0191 -4.1494
v  -1.8554 0.8692 -4.1494
v  1.8588 0.8692 -4.0275
v  -1.8808 -0.0191 -2.6965
v  -1.8808 0.8692 -2.6965
v  -1.8808 -0.0191 -1.0463
v  -1.8808 0.8692 -1.0463
v  1.8719 -0.0191 -2.6965
v  1.8719 3.9100 -2.6965
v  1.8588 3.9100 -4.0275
v  -1.8554 3.9100 -4.1494
v  -1.8808 3.9100 -2.6965
v  1.8719 0.8692 -2.6965
v  -1.8554 1.8780 -4.1494
v  1.8588 1.8780 -4.0275
v  -1.8808 1.8780 -2.6965
v  1.9930 2.1385 -2.8181
v  2.3735 3.4285 -2.6965
v  2.3735 3.4285 -1.0463
v  1.9930 2.1385 -1.1679
v  -1.8808 -0.0191 0.9132
v  -1.8808 -0.0191 -0.5488
v  1.8719 -0.0191 -0.5488
v  1.8719 -0.0191 0.9132
v  1.8719 3.9100 0.9132
v  1.8719 3.9100 -0.5488
v  -1.8808 3.9100 -0.5488
v  -1.8808 3.9100 0.9132
v  -1.8563 -0.0191 1.4748
v  -1.8563 0.8692 1.4748
v  -1.8808 0.8692 0.9132
v  -1.8808 1.8780 -0.5488
v  -1.8808 1.8780 0.9132
v  -1.8808 0.8692 -0.5488
v  2.3735 3.4285 -0.5488
v  2.3735 3.4285 0.9132
v  1.9930 2.1385 0.7917
v  1.9930 2.1385 -0.6703
v  1.8719 -0.0191 -1.0463
v  1.8719 3.9100 -1.0463
v  -1.8808 3.9100 -1.0463
v  1.8719 0.8692 -1.0463
v  1.8719 0.8692 -0.5488
v  -1.8808 1.8780 -1.0463
v  1.8594 -0.0191 1.5228
v  1.8594 3.9100 1.5228
v  -1.8563 3.9100 1.4748
v  1.8719 0.8692 0.9132
v  1.8594 0.8692 1.5228
v  -1.8563 1.8780 1.4748
v  1.8719 1.8780 -2.6965
v  1.8719 1.8780 -1.0463
v  1.8719 1.8780 -0.5488
v  1.8719 1.8780 0.9132
v  1.8594 1.8780 1.5228
v  0.4052 1.9153 1.5472
v  1.9623 2.1385 1.5241
v  2.3560 3.4285 1.5292
v  2.3552 3.4285 -4.0112
v  1.9620 2.1385 -4.0321
v  1.8584 1.8790 -1.0449
v  1.8584 1.8790 -2.6793
v  1.8584 0.8799 -2.6793
v  1.8584 0.8799 -1.0449
v  1.8584 0.0000 0.8958
v  1.8584 0.8799 0.8958
v  1.8584 1.8790 0.8958
v  1.8584 1.8790 -0.5521
v  1.8584 0.8799 -0.5521
v  1.8584 0.0000 -0.5521
# 71 vertices

vn 0.5827 -0.5797 -0.5696
vn -0.5629 -0.5766 -0.5921
vn -0.6891 0.0000 -0.7247
vn 0.7152 0.0000 -0.6989
vn -0.7090 -0.7052 -0.0062
vn -1.0000 0.0000 -0.0088
vn -0.7071 -0.7071 0.0000
vn -1.0000 0.0000 0.0000
vn 0.7082 -0.7060 -0.0035
vn 0.3742 0.9273 -0.0019
vn 0.3033 0.7169 -0.6278
vn -0.5629 0.5766 -0.5921
vn -0.7090 0.7052 -0.0062
vn 0.9891 0.1005 0.1076
vn -0.6890 0.0000 -0.7248
vn 0.6565 -0.1224 -0.7443
vn 0.9347 -0.3552 -0.0137
vn 0.9666 0.2563 -0.0065
vn 0.9665 0.2566 0.0000
vn 0.9356 -0.3531 -0.0000
vn -0.7117 -0.7023 0.0155
vn 0.7832 -0.5981 0.1699
vn 0.7528 -0.6465 -0.1236
vn 0.3753 0.9269 0.0039
vn 0.3732 0.9277 -0.0000
vn -0.7071 0.7071 0.0000
vn -0.7118 0.7022 0.0155
vn -0.5690 -0.5823 0.5807
vn -0.7030 0.0000 0.7112
vn -0.9998 -0.0000 0.0218
vn 0.9665 0.2566 -0.0000
vn 0.9669 0.2548 0.0141
vn 0.9363 -0.3508 0.0166
vn 0.7071 -0.7071 -0.0000
vn 0.9628 0.2219 -0.1543
vn 0.6158 0.0000 0.7879
vn 0.5697 -0.5805 0.5819
vn 0.2836 0.7223 0.6308
vn -0.5690 0.5822 0.5807
vn 0.9491 -0.0000 -0.3151
vn 0.7058 0.0000 0.7084
vn 0.9306 -0.3291 0.1602
vn 0.7715 -0.5586 -0.3045
vn 0.7427 -0.5972 0.3030
vn 0.9332 -0.3255 -0.1521
vn 0.6479 -0.1256 0.7513
vn -0.0093 -0.0007 1.0000
vn 0.6676 -0.2364 0.7060
vn 0.7614 0.2004 0.6166
vn 0.7778 0.1999 -0.5959
vn 0.5329 -0.1869 -0.8253
vn -0.1219 -0.6950 -0.7086
vn 0.3625 -0.8705 0.3330
vn 0.8059 0.4909 0.3309
vn 0.2649 0.4500 -0.8528
vn 0.8850 0.3131 -0.3446
vn 0.7890 -0.0000 -0.6144
vn 0.3635 -0.8709 -0.3306
vn -0.2255 -0.6549 0.7213
vn -0.2416 0.0000 0.9704
vn 0.2122 0.3133 0.9256
# 61 vertex normals

vt 0.0000 0.0000 0.0000
vt 1.0000 0.0000 0.0000
vt 1.0000 0.2261 0.0000
vt 0.0000 0.2261 0.0000
vt 0.2595 0.0000 0.0000
vt 0.2595 0.2261 0.0000
vt 0.3704 0.0000 0.0000
vt 0.3704 0.2261 0.0000
vt 1.0000 0.7405 0.0000
vt 1.0000 1.0000 0.0000
vt 0.0000 1.0000 0.0000
vt 0.0000 0.7405 0.0000
vt 0.7405 0.0000 0.0000
vt 0.7405 0.2261 0.0000
vt 1.0000 0.4828 0.0000
vt 0.0000 0.4828 0.0000
vt 0.2595 0.4828 0.0000
vt 0.2595 1.0000 0.0000
vt 0.7405 0.4828 0.0000
vt 0.7405 1.0000 0.0000
vt 0.6296 1.0000 0.0000
vt 0.6296 0.4828 0.0000
vt 1.0000 0.3889 0.0000
vt 1.0000 0.5685 0.0000
vt 0.0000 0.5685 0.0000
vt 0.0000 0.3889 0.0000
vt 0.6111 0.0000 0.0000
vt 0.6852 0.0000 0.0000
vt 0.6852 0.2261 0.0000
vt 0.6111 0.2261 0.0000
vt 0.6111 1.0000 0.0000
vt 0.4315 1.0000 0.0000
vt 0.4315 0.4828 0.0000
vt 0.6111 0.4828 0.0000
vt 0.4315 0.0000 0.0000
vt 0.4315 0.2261 0.0000
vt 0.5685 1.0000 0.0000
vt 0.3889 1.0000 0.0000
vt 0.3889 0.4828 0.0000
vt 0.5685 0.4828 0.0000
vt 1.0000 0.6296 0.0000
vt 0.0000 0.6296 0.0000
vt 0.5685 0.0000 0.0000
vt 0.6296 0.0000 0.0000
vt 0.6296 0.2261 0.0000
vt 0.5685 0.2261 0.0000
vt 0.3704 1.0000 0.0000
vt 0.3704 0.4828 0.0000
vt 1.0000 0.3148 0.0000
vt 0.0000 0.3148 0.0000
vt 0.3148 0.0000 0.0000
vt 0.3889 0.0000 0.0000
vt 0.3889 0.2261 0.0000
vt 0.3148 0.2261 0.0000
vt 0.6852 1.0000 0.0000
vt 0.6852 0.4828 0.0000
vt 0.3148 0.4828 0.0000
vt 0.5000 0.3148 0.0000
vt 0.3148 0.6490 0.0000
vt 0.6852 0.6182 0.0000
vt 0.3148 1.0000 0.0000
# 61 texture coords

o Building1
g Building1
usemtl wire_152173046
s 32
f 1/1/1 2/2/2 3/3/3 4/4/4 
s 64
f 2/1/2 5/5/5 6/6/6 3/4/3 
f 5/5/5 7/7/7 8/8/8 6/6/6 
s 2
f 5/9/5 2/10/2 1/11/1 9/12/9 
s 4
f 10/9/10 11/10/11 12/11/12 13/12/13 
s 16
f 9/13/9 1/2/1 4/3/4 14/14/14 
s 32
f 15/15/15 12/10/12 11/11/11 16/16/16 
s 64
f 17/17/6 13/18/13 12/11/12 15/16/15 
s 16
f 18/19/17 19/20/18 20/21/19 21/22/20 
s 2
f 22/23/21 23/24/7 24/25/22 25/26/23 
s 4
f 26/23/24 27/24/25 28/25/26 29/26/27 
s 64
f 22/27/21 30/28/28 31/29/29 32/30/30 
f 29/31/27 28/32/26 33/33/8 34/34/30 
f 23/35/7 22/27/21 32/30/30 35/36/8 
s 16
f 36/37/31 37/38/32 38/39/33 39/40/20 
s 2
f 23/24/7 7/41/7 40/42/34 24/25/22 
s 4
f 27/24/25 41/41/25 42/42/26 28/25/26 
s 16
f 24/43/22 40/44/34 43/45/35 44/46/36 
s 64
f 28/32/26 42/47/26 45/48/8 33/33/8 
s 2
f 30/49/28 22/23/21 25/26/23 46/50/37 
s 4
f 47/49/38 26/23/24 29/26/27 48/50/39 
s 16
f 46/51/37 25/52/23 49/53/40 50/54/41 
s 64
f 48/55/39 29/31/27 34/34/30 51/56/29 
f 7/7/7 23/35/7 35/36/8 8/8/8 
s 16
f 20/21/19 36/37/31 39/40/20 21/22/20 
s 2
f 7/41/7 5/9/5 9/12/9 40/42/34 
s 4
f 41/41/25 10/9/10 13/12/13 42/42/26 
s 16
f 40/44/34 9/13/9 14/14/14 43/45/35 
s 64
f 42/47/26 13/18/13 17/17/6 45/48/8 
s 32
f 3/3/3 15/15/15 16/16/16 4/4/4 
s 64
f 6/6/6 17/17/6 15/16/15 3/4/3 
f 8/8/8 45/48/8 17/17/6 6/6/6 
s 16
f 4/3/4 16/15/16 52/19/42 14/14/14 
s 64
f 31/29/29 51/56/29 34/34/30 32/30/30 
f 32/30/30 34/34/30 33/33/8 35/36/8 
s 16
f 43/45/35 53/22/43 54/40/44 44/46/36 
f 49/53/40 55/39/45 56/57/46 50/54/41 
s 64
f 35/36/8 33/33/8 45/48/8 8/8/8 
s 1
f 55/39/45 54/40/44 39/40/20 38/39/33 
f 54/40/44 53/22/43 21/22/20 39/40/20 
f 53/22/43 52/19/42 18/19/17 21/22/20 
s 4
f 10/20/10 41/21/25 20/21/19 19/20/18 
f 41/21/25 27/37/25 36/37/31 20/21/19 
f 27/37/25 26/38/24 37/38/32 36/37/31 
s off
f 30/49/28 46/50/37 57/58/47 
f 47/49/38 48/50/39 57/58/47 
f 46/51/37 50/54/41 57/59/47 
f 48/55/39 51/56/29 57/60/47 
f 31/29/29 30/28/28 57/60/47 
f 58/57/48 59/61/49 57/59/47 
f 50/54/41 56/57/46 57/59/47 
f 51/56/29 31/29/29 57/60/47 
f 56/57/46 58/57/48 57/59/47 
f 59/61/49 47/61/38 57/59/47 
s 16
f 60/10/50 19/20/18 18/19/17 61/15/51 
f 59/61/49 58/57/48 38/39/33 37/38/32 
s 1
f 56/57/46 55/39/45 38/39/33 58/57/48 
f 52/19/42 16/15/16 61/15/51 18/19/17 
s 32
f 16/15/16 11/10/11 60/10/50 61/15/51 
s 4
f 11/10/11 10/20/10 19/20/18 60/10/50 
f 26/38/24 47/61/38 59/61/49 37/38/32 
s off
f 62/22/52 63/19/53 52/19/42 53/22/43 
f 63/19/53 64/14/54 14/14/14 52/19/42 
f 64/14/54 65/45/55 43/45/35 14/14/14 
f 65/45/55 62/22/52 53/22/43 43/45/35 
s 4
f 66/52/56 67/53/57 49/53/40 25/52/23 
f 67/53/57 68/39/58 55/39/45 49/53/40 
s off
f 68/39/58 69/40/59 54/40/44 55/39/45 
s 4
f 69/40/59 70/46/60 44/46/36 54/40/44 
f 70/46/60 71/43/61 24/43/22 44/46/36 
s off
f 71/25/61 66/26/56 25/26/23 24/25/22 
# 61 polygons - 10 triangles

