# 3ds Max Wavefront OBJ Exporter v0.99 - (c)2007 guruware
# File Created: 25.09.2024 13:40:28

mtllib Heal_Placeholder.mtl

#
# object Heal1
#

v  -0.3191 0.0008 1.5328
v  0.3165 -0.0011 1.5331
v  0.3277 -0.0008 -1.5328
v  -0.3079 0.0011 -1.5331
v  -0.3319 -0.1377 1.5328
v  -0.3207 -0.1375 -1.5331
v  0.3149 -0.1394 -1.5329
v  0.3037 -0.1396 1.5331
v  1.8679 -4.0942 2.9511
v  1.8679 -3.1803 2.9511
v  -1.9509 -3.1803 2.7728
v  -1.9509 -4.0942 2.7728
v  1.9148 -4.0942 1.4570
v  1.9148 -3.1803 1.4570
v  1.9261 -4.0942 0.6462
v  1.9261 -3.1803 0.6462
v  -1.9454 -4.0942 1.4035
v  -1.9509 -0.0521 2.7728
v  1.8679 -0.0521 2.9511
v  1.9148 -0.0521 1.4570
v  -1.9454 -0.0521 1.4035
v  -1.9509 -2.1425 2.7728
v  1.8679 -2.1425 2.9511
v  1.9148 -2.1425 1.4570
v  -1.9143 -0.5474 1.3963
v  -1.9031 -0.5474 0.5856
v  -2.0604 -1.8745 0.7160
v  -2.0717 -1.8745 1.5267
v  1.9455 -4.0942 -0.7523
v  -1.9148 -4.0942 -0.8058
v  -1.8939 -4.0942 -2.3097
v  1.9663 -4.0942 -2.2562
v  -1.9148 -0.0521 -0.8058
v  1.9455 -0.0521 -0.7523
v  1.9663 -0.0521 -2.2562
v  -1.8939 -0.0521 -2.3097
v  1.9491 -4.0942 -2.8342
v  1.9491 -3.1803 -2.8342
v  1.9663 -3.1803 -2.2562
v  1.9455 -2.1425 -0.7523
v  1.9663 -2.1425 -2.2562
v  1.9455 -3.1803 -0.7523
v  -1.8628 -0.5474 -2.3168
v  -2.0202 -1.8745 -2.1864
v  -2.0410 -1.8745 -0.6825
v  -1.8837 -0.5474 -0.8130
v  1.9384 -4.0942 -0.2405
v  -1.9219 -4.0942 -0.2940
v  -1.9219 -0.0521 -0.2940
v  1.9384 -0.0521 -0.2405
v  -1.9219 -3.1803 -0.2940
v  -1.9148 -3.1803 -0.8058
v  1.9384 -2.1425 -0.2405
v  -1.8724 -4.0942 -2.9366
v  1.9491 -0.0521 -2.8342
v  -1.8724 -0.0521 -2.9366
v  -1.8939 -3.1803 -2.3097
v  -1.8724 -3.1803 -2.9366
v  1.9491 -2.1425 -2.8342
v  1.9384 -3.1803 -0.2405
v  -2.0481 -1.8745 -0.1707
v  -1.8908 -0.5474 -0.3012
v  1.9290 -4.0942 0.4373
v  -1.9313 -4.0942 0.3838
v  -1.9313 -0.0521 0.3838
v  1.9290 -0.0521 0.4373
v  1.9290 -2.1425 0.4373
v  1.9290 -3.1803 0.4373
v  -1.9454 -2.1425 1.5459
v  -1.9454 -3.1803 1.5459
v  -1.9219 -2.1425 -0.2940
v  -1.9148 -2.1425 -0.8058
v  -1.8939 -2.1425 -2.3097
v  -1.8724 -2.1425 -2.9366
v  -1.9342 -0.0521 0.5927
v  -0.3762 -2.1042 -2.9409
v  -1.9782 -1.8745 -2.9394
v  -1.8361 -0.5474 -2.9503
v  -1.9002 -0.5474 0.3767
v  -2.0575 -1.8745 0.5071
v  -1.9342 -4.0942 0.5927
v  1.9261 -0.0521 0.6462
v  1.9261 -2.1425 0.6462
v  -1.9342 -2.1425 0.7898
v  -1.9313 -2.1425 0.5633
v  -1.9313 -3.1803 0.5633
v  -1.9342 -3.1803 0.7898
v  -1.9143 -0.5474 2.7489
v  -2.0571 -1.8745 2.7760
v  -1.8670 -2.1407 -0.2886
v  -1.8761 -2.1407 0.5368
v  -1.8761 -3.1398 0.5368
v  -1.8670 -3.1398 -0.2886
v  -1.8401 -4.0197 -2.2292
v  -1.8401 -3.1398 -2.2292
v  -1.8401 -2.1407 -2.2292
v  -1.8602 -2.1407 -0.7814
v  -1.8602 -3.1398 -0.7814
v  -1.8602 -4.0197 -0.7814
v  -1.8897 -2.1407 1.4827
v  -1.8897 -3.1398 1.4827
v  -1.8789 -3.1398 0.7548
v  -1.8789 -2.1407 0.7548
v  -1.5316 0.0138 -0.3791
v  -1.5337 0.0138 0.2809
v  1.5316 -0.0138 0.3792
v  1.5337 -0.0138 -0.2808
v  -1.5358 -0.1248 -0.3792
v  1.5295 -0.1523 -0.2810
v  1.5274 -0.1523 0.3791
v  -1.5379 -0.1248 0.2808
# 111 vertices

vn -0.5531 0.5873 0.5789
vn 0.6011 0.5666 0.5763
vn 0.6036 0.5662 -0.5737
vn -0.5507 0.5877 -0.5806
vn -0.6036 -0.5662 0.5737
vn -0.6011 -0.5666 -0.5763
vn 0.5531 -0.5873 -0.5789
vn 0.5507 -0.5877 0.5806
vn 0.5470 -0.5721 0.5998
vn 0.6792 0.0052 0.7342
vn -0.7252 -0.0054 0.6888
vn -0.5987 -0.5838 0.5614
vn 0.6994 -0.6995 0.0159
vn 1.0001 0.0075 0.0226
vn 0.6975 -0.7014 0.0097
vn 1.0002 0.0075 0.0139
vn -0.7185 -0.7107 -0.0066
vn -0.5952 0.5647 0.5589
vn 0.5629 0.5805 0.5999
vn 0.7189 0.7102 0.0161
vn -0.7107 0.6881 -0.0063
vn -0.6976 -0.0763 0.7141
vn -1.0000 0.0074 -0.0070
vn -0.9999 0.0073 -0.0139
vn -0.9971 -0.1018 -0.0138
vn -0.9973 -0.1004 -0.0010
vn 0.6975 -0.7015 0.0097
vn -0.7739 -0.6408 -0.1067
vn -0.7571 -0.6660 0.0664
vn 0.7024 -0.6966 -0.0058
vn -0.7096 0.6893 -0.0099
vn 0.7171 0.7121 0.0099
vn 0.7219 0.7073 -0.0056
vn -0.7117 0.6869 -0.0173
vn 0.5682 -0.5775 -0.5740
vn 0.7130 0.0053 -0.7014
vn 1.0003 0.0075 -0.0080
vn -0.9996 0.0069 -0.0283
vn -0.9970 -0.0975 -0.0327
vn -0.9973 -0.0992 -0.0138
vn -0.7171 -0.7121 -0.0099
vn -0.9830 0.1405 0.0919
vn -0.5379 -0.0041 -0.8431
vn -0.5685 -0.5839 -0.5915
vn 0.5843 0.5860 -0.5739
vn -0.5645 0.5660 -0.5889
vn -0.9621 -0.0072 0.2738
vn -0.6961 -0.0053 -0.7181
vn 0.6974 -0.7015 0.0097
vn -0.7176 -0.7116 -0.0099
vn -0.7096 0.6892 -0.0099
vn 0.7170 0.7121 0.0099
vn -0.9560 -0.2523 -0.1815
vn -0.9898 0.0854 -0.0984
vn -0.8691 -0.4210 0.2882
vn -0.7802 -0.5589 -0.3122
vn -0.9703 -0.2301 0.1241
vn -0.6682 -0.0780 -0.7415
vn -0.7095 0.6893 -0.0099
vn 0.0224 -0.0006 -0.9997
vn -0.7153 -0.0636 -0.6974
vn -0.6659 0.0109 -0.7458
vn -0.9971 -0.1016 -0.0138
vn -0.7561 -0.6117 0.2712
vn -0.9124 -0.3341 -0.2630
vn -0.9844 0.1175 -0.1123
vn -0.9753 0.1842 0.0867
vn -0.8312 0.0053 -0.5560
vn -0.7077 -0.0582 0.7055
vn -0.0307 -0.7398 0.6722
vn -0.2242 -0.8116 -0.5460
vn -0.7132 0.3032 -0.6246
vn -0.4998 0.3088 0.8052
vn -0.9287 0.1708 0.3191
vn -0.8317 -0.0062 0.5557
vn -0.3988 -0.8762 0.2950
vn 0.3494 -0.5983 -0.7147
vn 0.4092 0.0030 -0.9125
vn -0.0725 0.2034 -0.9760
vn -0.3668 -0.8655 -0.3593
vn -0.8612 0.3144 -0.3847
vn 0.1545 0.3279 0.9331
vn 0.4667 -0.5339 0.6972
vn -0.5504 0.5808 -0.5879
vn -0.5690 0.5838 0.5666
vn 0.5852 0.5704 0.5885
vn 0.6042 0.5735 -0.5661
vn -0.5852 -0.5704 -0.5885
vn 0.5690 -0.5838 -0.5666
vn 0.5504 -0.5808 0.5879
vn -0.6042 -0.5735 0.5661
# 91 vertex normals

vt 1.0000 0.0000 0.0000
vt 0.0000 0.0000 0.0000
vt 0.0000 1.0000 0.0000
vt 1.0000 1.0000 0.0000
vt 1.0000 0.2261 0.0000
vt 0.0000 0.2261 0.0000
vt 0.2595 0.0000 0.0000
vt 0.2595 0.2261 0.0000
vt 0.3125 0.0000 0.0000
vt 0.3125 0.2261 0.0000
vt 0.0000 0.7405 0.0000
vt 1.0000 0.7405 0.0000
vt 0.0000 0.4828 0.0000
vt 1.0000 0.4828 0.0000
vt 0.2595 1.0000 0.0000
vt 0.2595 0.4828 0.0000
vt 0.7405 1.0000 0.0000
vt 0.6875 1.0000 0.0000
vt 0.6875 0.4828 0.0000
vt 0.7405 0.4828 0.0000
vt 1.0000 0.5685 0.0000
vt 0.0000 0.5685 0.0000
vt 0.0000 0.3889 0.0000
vt 1.0000 0.3889 0.0000
vt 0.6852 0.0000 0.0000
vt 0.6852 0.2261 0.0000
vt 0.6111 0.2261 0.0000
vt 0.6111 0.0000 0.0000
vt 0.4315 1.0000 0.0000
vt 0.4315 0.4828 0.0000
vt 0.6111 0.4828 0.0000
vt 0.6111 1.0000 0.0000
vt 0.4315 0.2261 0.0000
vt 0.4315 0.0000 0.0000
vt 0.3889 1.0000 0.0000
vt 0.3889 0.4828 0.0000
vt 0.5685 0.4828 0.0000
vt 0.5685 1.0000 0.0000
vt 1.0000 0.6296 0.0000
vt 0.0000 0.6296 0.0000
vt 0.6296 0.0000 0.0000
vt 0.6296 0.2261 0.0000
vt 0.5685 0.2261 0.0000
vt 0.5685 0.0000 0.0000
vt 0.3704 1.0000 0.0000
vt 0.3704 0.4828 0.0000
vt 0.0000 0.3148 0.0000
vt 1.0000 0.3148 0.0000
vt 0.3889 0.0000 0.0000
vt 0.3889 0.2261 0.0000
vt 0.3148 0.2261 0.0000
vt 0.3148 0.0000 0.0000
vt 0.6852 0.4828 0.0000
vt 0.6852 1.0000 0.0000
vt 0.3704 0.2261 0.0000
vt 0.3704 0.0000 0.0000
vt 0.6296 0.4828 0.0000
vt 0.6296 1.0000 0.0000
vt 1.0000 0.6739 0.0000
vt 0.0000 0.6739 0.0000
vt 0.3261 1.0000 0.0000
vt 0.3261 0.4828 0.0000
vt 0.3261 0.2261 0.0000
vt 0.7405 0.2261 0.0000
vt 0.3148 0.4828 0.0000
vt 0.5000 0.3148 0.0000
vt 0.3148 0.6490 0.0000
vt 0.6852 0.6182 0.0000
vt 0.3148 1.0000 0.0000
vt 0.3261 0.0000 0.0000
vt 0.6739 1.0000 0.0000
vt 0.6739 0.4828 0.0000
vt 1.0000 0.6875 0.0000
vt 0.0000 0.6875 0.0000
vt 0.3125 1.0000 0.0000
vt 0.3125 0.4828 0.0000
vt 0.7405 0.0000 0.0000
vt 0.6739 0.0000 0.0000
vt 0.6739 0.2261 0.0000
vt 0.6875 0.0000 0.0000
vt 0.6875 0.2261 0.0000
# 81 texture coords

o Heal1
g Heal1
usemtl wire_085015009
s 2
f 1/1/1 2/2/2 3/3/3 4/4/4 
s 4
f 5/2/5 6/3/6 7/4/7 8/1/8 
s 8
f 1/2/1 5/3/5 8/4/8 2/1/2 
s 16
f 2/2/2 8/3/8 7/4/7 3/1/3 
s 32
f 3/2/3 7/3/7 6/4/6 4/1/4 
s 64
f 4/2/4 6/3/6 5/4/5 1/1/1 
s 32
f 9/1/9 10/5/10 11/6/11 12/2/12 
s 64
f 13/7/13 14/8/14 10/6/10 9/2/9 
f 15/9/15 16/10/16 14/8/14 13/7/13 
s 2
f 9/4/9 12/3/12 17/11/17 13/12/13 
s 4
f 18/4/18 19/3/19 20/11/20 21/12/21 
s 32
f 19/4/19 18/3/18 22/13/22 23/14/10 
s 64
f 20/15/20 19/3/19 23/13/10 24/16/14 
s 16
f 25/17/23 26/18/24 27/19/25 28/20/26 
s 2
f 29/21/27 30/22/28 31/23/29 32/24/30 
s 4
f 33/21/31 34/22/32 35/23/33 36/24/34 
s 64
f 37/25/35 38/26/36 39/27/37 32/28/30 
f 34/29/32 40/30/16 41/31/37 35/32/33 
f 32/28/30 39/27/37 42/33/16 29/34/27 
s 16
f 43/35/38 44/36/39 45/37/40 46/38/24 
s 2
f 47/39/27 48/40/41 30/22/28 29/21/27 
s 4
f 49/39/31 50/40/32 34/22/32 33/21/31 
s 16
f 48/41/41 51/42/42 52/43/43 30/44/28 
s 64
f 50/45/32 53/46/16 40/30/16 34/29/32 
s 2
f 32/24/30 31/23/29 54/47/44 37/48/35 
s 4
f 36/24/34 35/23/33 55/47/45 56/48/46 
s 16
f 31/49/29 57/50/47 58/51/48 54/52/44 
s 64
f 35/32/33 41/31/37 59/53/36 55/54/45 
f 29/34/27 42/33/16 60/55/16 47/56/27 
s 16
f 46/38/24 45/37/40 61/57/40 62/58/24 
s 2
f 63/59/49 64/60/50 48/40/41 47/39/27 
s 4
f 65/59/51 66/60/52 50/40/32 49/39/31 
s 64
f 66/61/52 67/62/16 53/46/16 50/45/32 
s 32
f 23/14/10 22/13/22 11/6/11 10/5/10 
s 64
f 24/16/14 23/13/10 10/6/10 14/8/14 
f 53/46/16 67/62/16 68/63/16 60/55/16 
s 16
f 22/14/22 69/20/53 70/64/54 11/5/11 
s 64
f 59/53/36 41/31/37 39/27/37 38/26/36 
f 41/31/37 40/30/16 42/33/16 39/27/37 
s 16
f 71/57/55 72/37/56 52/43/43 51/42/42 
f 73/36/57 74/65/58 58/51/48 57/50/47 
s 64
f 40/30/16 53/46/16 60/55/16 42/33/16 
s 1
f 73/36/57 72/37/56 45/37/40 44/36/39 
f 72/37/56 71/57/55 61/57/40 45/37/40 
s 4
f 75/18/59 26/18/24 25/17/23 21/17/21 
f 49/58/31 33/38/31 46/38/24 62/58/24 
f 33/38/31 36/35/34 43/35/38 46/38/24 
s off
f 37/48/35 54/47/44 76/66/60 
f 56/48/46 55/47/45 76/66/60 
f 54/52/44 58/51/48 76/67/60 
f 55/54/45 59/53/36 76/68/60 
f 38/26/36 37/25/35 76/68/60 
f 77/65/61 78/69/62 76/67/60 
f 58/51/48 74/65/58 76/67/60 
f 59/53/36 38/26/36 76/68/60 
f 74/65/58 77/65/61 76/67/60 
f 78/69/62 56/69/46 76/67/60 
s 64
f 47/56/27 60/55/16 68/63/16 63/70/49 
s 16
f 79/71/24 62/58/24 61/57/40 80/72/63 
s 2
f 15/73/15 81/74/50 64/60/50 63/59/49 
s 4
f 75/73/59 82/74/32 66/60/52 65/59/51 
s 64
f 82/75/32 83/76/16 67/62/16 66/61/52 
f 83/76/16 16/10/16 68/63/16 67/62/16 
s 4
f 49/58/31 62/58/24 79/71/24 65/71/51 
s 64
f 63/70/49 68/63/16 16/10/16 15/9/15 
s 16
f 26/18/24 79/71/24 80/72/63 27/19/25 
s 4
f 65/71/51 79/71/24 26/18/24 75/18/59 
s 2
f 13/12/13 17/11/17 81/74/50 15/73/15 
s 4
f 21/12/21 20/11/20 82/74/32 75/73/59 
s 64
f 20/15/20 24/16/14 83/76/16 82/75/32 
f 24/16/14 14/8/14 16/10/16 83/76/16 
s off
f 84/19/64 85/72/65 86/72/66 87/19/67 
s 16
f 12/1/12 11/5/11 70/64/54 17/77/17 
f 88/4/68 25/17/23 28/20/26 89/14/69 
f 78/69/62 77/65/61 44/36/39 43/35/38 
f 64/78/50 86/79/66 51/42/42 48/41/41 
s 1
f 74/65/58 73/36/57 44/36/39 77/65/61 
f 85/72/65 80/72/63 61/57/40 71/57/55 
f 69/20/53 22/14/22 89/14/69 28/20/26 
s 32
f 88/4/68 89/14/69 22/14/22 18/4/18 
s 4
f 18/4/18 21/17/21 25/17/23 88/4/68 
f 36/35/34 56/69/46 78/69/62 43/35/38 
s 16
f 81/80/50 87/81/67 86/79/66 64/78/50 
s 1
f 84/19/64 27/19/25 80/72/63 85/72/65 
s 16
f 17/77/17 70/64/54 87/81/67 81/80/50 
s 1
f 69/20/53 28/20/26 27/19/25 84/19/64 
s off
f 90/57/70 91/72/71 85/72/65 71/57/55 
f 91/72/71 92/72/72 86/72/66 85/72/65 
f 92/79/72 93/42/73 51/42/42 86/79/66 
f 93/42/73 90/57/70 71/57/55 51/42/42 
s 4
f 94/49/74 95/50/75 57/50/47 31/49/29 
f 95/50/75 96/36/76 73/36/57 57/50/47 
s off
f 96/36/76 97/37/77 72/37/56 73/36/57 
s 4
f 97/37/77 98/43/78 52/43/43 72/37/56 
f 98/43/78 99/44/79 30/44/28 52/43/43 
s off
f 99/22/79 94/23/74 31/23/29 30/22/28 
f 100/20/80 101/64/81 70/64/54 69/20/53 
f 101/64/81 102/81/82 87/81/67 70/64/54 
f 102/19/82 103/19/83 84/19/64 87/19/67 
f 103/19/83 100/20/80 69/20/53 84/19/64 
s 2
f 104/1/84 105/2/85 106/3/86 107/4/87 
s 4
f 108/2/88 109/3/89 110/4/90 111/1/91 
s 8
f 104/2/84 108/3/88 111/4/91 105/1/85 
s 16
f 105/2/85 111/3/91 110/4/90 106/1/86 
s 32
f 106/2/86 110/3/90 109/4/89 107/1/87 
s 64
f 107/2/87 109/3/89 108/4/88 104/1/84 
# 96 polygons - 10 triangles

